WIPSHDC-Old-Traditional-Serif-ExtraLight.ufo
<glyph name="uni4E49" format="2">
	<advance width="1000" height="1000"/>
	<unicode hex="4E49"/>
	<note>
		cid09602
	</note>
	<outline>
		<contour>
			<point x="246" y="696" type="curve"/>
			<point x="226" y="683" type="line"/>
			<point x="308" y="303"/>
			<point x="528" y="44"/>
			<point x="902" y="-70" type="curve"/>
			<point x="914" y="-47"/>
			<point x="935" y="-35"/>
			<point x="960" y="-36" type="curve"/>
			<point x="963" y="-25" type="line"/>
			<point x="574" y="77"/>
			<point x="334" y="331"/>
		</contour>
		<contour>
			<point x="844" y="725" type="curve"/>
			<point x="754" y="748" type="line"/>
			<point x="675" y="379"/>
			<point x="476" y="87"/>
			<point x="41" y="-57" type="curve"/>
			<point x="50" y="-74" type="line"/>
			<point x="513" y="59"/>
			<point x="713" y="351"/>
			<point x="800" y="708" type="curve"/>
			<point x="829" y="706"/>
			<point x="839" y="712"/>
		</contour>
		<contour>
			<point x="393" y="813" type="curve"/>
			<point x="380" y="805" type="line"/>
			<point x="436" y="750"/>
			<point x="505" y="655"/>
			<point x="516" y="584" type="curve"/>
			<point x="573" y="539"/>
			<point x="611" y="684"/>
		</contour>
		<contour>
			<point x="246" y="696" type="curve"/>
			<point x="284" y="756" type="line"/>
			<point x="242" y="768" type="line"/>
			<point x="224" y="702" type="line"/>
			<point x="188" y="659"/>
			<point x="130" y="597"/>
			<point x="95" y="565" type="curve"/>
			<point x="160" y="509" type="line"/>
			<point x="168" y="518"/>
			<point x="170" y="529"/>
			<point x="160" y="540" type="curve"/>
			<point x="185" y="578"/>
			<point x="222" y="651"/>
		</contour>
	</outline>
</glyph>
<glyph name="uni4FC1" format="2">
	<advance width="1000" height="1000"/>
	<unicode hex="4FC1"/>
	<note>
		cid10153
	</note>
	<outline>
		<contour>
			<point x="251" y="562" type="curve"/>
			<point x="202" y="580" type="line"/>
			<point x="177" y="548" type="line"/>
			<point x="177" y="-73" type="line"/>
			<point x="185" y="-73" type="line" smooth="yes"/>
			<point x="202" y="-73"/>
			<point x="221" y="-60"/>
			<point x="222" y="-56" type="curve"/>
			<point x="222" y="544" type="line"/>
			<point x="238" y="546"/>
			<point x="248" y="553"/>
		</contour>
		<contour>
			<point x="349" y="806" type="curve"/>
			<point x="269" y="832" type="line"/>
			<point x="215" y="645"/>
			<point x="125" y="459"/>
			<point x="39" y="342" type="curve"/>
			<point x="54" y="331" type="line"/>
			<point x="155" y="440"/>
			<point x="248" y="611"/>
			<point x="311" y="787" type="curve"/>
			<point x="333" y="786"/>
			<point x="345" y="795"/>
		</contour>
		<contour>
			<point x="807" y="570" type="line"/>
			<point x="522" y="570" type="line"/>
			<point x="522" y="541" type="line"/>
			<point x="807" y="541" type="line"/>
		</contour>
		<contour>
			<point x="427" y="729" type="curve"/>
			<point x="346" y="739" type="line"/>
			<point x="346" y="334" type="line"/>
			<point x="355" y="334" type="line" smooth="yes"/>
			<point x="371" y="334"/>
			<point x="390" y="345"/>
			<point x="390" y="353" type="curve" smooth="yes"/>
			<point x="390" y="702" type="line"/>
			<point x="415" y="706"/>
			<point x="425" y="715"/>
		</contour>
		<contour>
			<point x="822" y="433" type="line"/>
			<point x="381" y="433" type="line"/>
			<point x="381" y="404" type="line"/>
			<point x="822" y="404" type="line"/>
		</contour>
		<contour>
			<point x="901" y="285" type="curve"/>
			<point x="868" y="235" type="line"/>
			<point x="271" y="235" type="line"/>
			<point x="279" y="205" type="line"/>
			<point x="939" y="205" type="line" smooth="yes"/>
			<point x="953" y="205"/>
			<point x="961" y="210"/>
			<point x="963" y="221" type="curve"/>
			<point x="941" y="247"/>
			<point x="901" y="285"/>
		</contour>
		<contour>
			<point x="784" y="788" type="line"/>
			<point x="794" y="788" type="line"/>
			<point x="794" y="501" type="line"/>
			<point x="800" y="501" type="line" smooth="yes"/>
			<point x="815" y="501"/>
			<point x="837" y="514"/>
			<point x="838" y="520" type="curve"/>
			<point x="838" y="749" type="line"/>
			<point x="858" y="753"/>
			<point x="875" y="761"/>
			<point x="882" y="768" type="curve"/>
			<point x="814" y="821" type="line"/>
		</contour>
		<contour>
			<point x="493" y="815" type="line"/>
			<point x="493" y="788" type="line"/>
			<point x="493" y="488" type="line"/>
			<point x="499" y="488" type="line" smooth="yes"/>
			<point x="521" y="488"/>
			<point x="537" y="500"/>
			<point x="537" y="504" type="curve" smooth="yes"/>
			<point x="537" y="788" type="line"/>
			<point x="549" y="788" type="line"/>
		</contour>
		<contour>
			<point x="806" y="788" type="line"/>
			<point x="521" y="788" type="line"/>
			<point x="521" y="759" type="line"/>
			<point x="806" y="759" type="line"/>
		</contour>
		<contour>
			<point x="621" y="229" type="curve"/>
			<point x="603" y="221" type="line"/>
			<point x="660" y="68"/>
			<point x="765" y="-30"/>
			<point x="924" y="-77" type="curve"/>
			<point x="929" y="-55"/>
			<point x="946" y="-42"/>
			<point x="965" y="-38" type="curve"/>
			<point x="966" y="-27" type="line"/>
			<point x="805" y="4"/>
			<point x="680" y="97"/>
		</contour>
		<contour>
			<point x="786" y="433" type="line"/>
			<point x="795" y="433" type="line"/>
			<point x="795" y="227" type="line"/>
			<point x="839" y="227" type="line"/>
			<point x="839" y="402" type="line"/>
			<point x="854" y="404"/>
			<point x="862" y="406"/>
			<point x="869" y="413" type="curve"/>
			<point x="814" y="462" type="line"/>
		</contour>
		<contour>
			<point x="620" y="419" type="curve"/>
			<point x="571" y="419" type="line"/>
			<point x="571" y="195"/>
			<point x="569" y="57"/>
			<point x="260" y="-52" type="curve"/>
			<point x="273" y="-70" type="line"/>
			<point x="610" y="36"/>
			<point x="618" y="176"/>
		</contour>
	</outline>
</glyph>
<glyph name="uni506F" format="2">
	<advance width="1000" height="1000"/>
	<unicode hex="506F"/>
	<note>
		cid10439
	</note>
	<outline>
		<contour>
			<point x="331" y="809" type="curve"/>
			<point x="251" y="834" type="line"/>
			<point x="201" y="649"/>
			<point x="118" y="464"/>
			<point x="36" y="346" type="curve"/>
			<point x="52" y="336" type="line"/>
			<point x="161" y="462"/>
			<point x="242" y="639"/>
			<point x="293" y="789" type="curve"/>
			<point x="316" y="788"/>
			<point x="327" y="797"/>
		</contour>
		<contour>
			<point x="249" y="561" type="curve"/>
			<point x="191" y="583" type="line"/>
			<point x="175" y="553" type="line"/>
			<point x="175" y="-73" type="line"/>
			<point x="183" y="-73" type="line" smooth="yes"/>
			<point x="199" y="-73"/>
			<point x="218" y="-60"/>
			<point x="219" y="-56" type="curve"/>
			<point x="219" y="543" type="line"/>
			<point x="236" y="545"/>
			<point x="246" y="552"/>
		</contour>
		<contour>
			<point x="668" y="817" type="curve"/>
			<point x="587" y="827" type="line"/>
			<point x="587" y="687" type="line"/>
			<point x="631" y="687" type="line"/>
			<point x="631" y="790" type="line"/>
			<point x="655" y="793"/>
			<point x="666" y="803"/>
		</contour>
		<contour>
			<point x="874" y="759" type="curve"/>
			<point x="833" y="709" type="line"/>
			<point x="301" y="709" type="line"/>
			<point x="309" y="679" type="line"/>
			<point x="924" y="679" type="line" smooth="yes"/>
			<point x="937" y="679"/>
			<point x="947" y="684"/>
			<point x="949" y="695" type="curve"/>
			<point x="921" y="723"/>
			<point x="874" y="759"/>
		</contour>
		<contour>
			<point x="393" y="613" type="line"/>
			<point x="393" y="588" type="line"/>
			<point x="393" y="281" type="line"/>
			<point x="399" y="281" type="line" smooth="yes"/>
			<point x="421" y="281"/>
			<point x="436" y="292"/>
			<point x="436" y="297" type="curve" smooth="yes"/>
			<point x="436" y="558" type="line"/>
			<point x="808" y="558" type="line"/>
			<point x="808" y="588" type="line"/>
			<point x="448" y="588" type="line"/>
		</contour>
		<contour>
			<point x="784" y="588" type="line"/>
			<point x="787" y="588" type="line"/>
			<point x="787" y="294" type="line"/>
			<point x="794" y="294" type="line" smooth="yes"/>
			<point x="811" y="294"/>
			<point x="831" y="306"/>
			<point x="831" y="310" type="curve" smooth="yes"/>
			<point x="831" y="555" type="line"/>
			<point x="850" y="558"/>
			<point x="861" y="564"/>
			<point x="866" y="571" type="curve"/>
			<point x="808" y="616" type="line"/>
		</contour>
		<contour>
			<point x="808" y="374" type="line"/>
			<point x="415" y="374" type="line"/>
			<point x="415" y="344" type="line"/>
			<point x="808" y="344" type="line"/>
		</contour>
		<contour>
			<point x="622" y="351" type="curve"/>
			<point x="622" y="367" type="line"/>
			<point x="570" y="367" type="line"/>
			<point x="502" y="262"/>
			<point x="391" y="165"/>
			<point x="259" y="95" type="curve"/>
			<point x="269" y="77" type="line"/>
			<point x="422" y="142"/>
			<point x="549" y="240"/>
		</contour>
		<contour>
			<point x="522" y="14" type="curve" smooth="yes"/>
			<point x="522" y="267" type="line"/>
			<point x="478" y="237" type="line"/>
			<point x="478" y="3" type="line"/>
			<point x="484" y="3" type="line" smooth="yes"/>
			<point x="506" y="3"/>
			<point x="522" y="10"/>
		</contour>
		<contour>
			<point x="336" y="-10" type="curve"/>
			<point x="371" y="-72" type="line"/>
			<point x="380" y="-68"/>
			<point x="387" y="-60"/>
			<point x="391" y="-48" type="curve"/>
			<point x="524" y="-3"/>
			<point x="626" y="37"/>
			<point x="700" y="64" type="curve"/>
			<point x="696" y="81" type="line"/>
			<point x="617" y="60"/>
			<point x="397" y="2"/>
		</contour>
		<contour>
			<point x="938" y="275" type="curve"/>
			<point x="870" y="318" type="line"/>
			<point x="829" y="274"/>
			<point x="768" y="217"/>
			<point x="712" y="170" type="curve"/>
			<point x="725" y="157" type="line"/>
			<point x="794" y="196"/>
			<point x="864" y="240"/>
			<point x="905" y="271" type="curve"/>
			<point x="920" y="265"/>
			<point x="932" y="266"/>
		</contour>
		<contour>
			<point x="622" y="367" type="curve"/>
			<point x="604" y="358" type="line"/>
			<point x="663" y="151"/>
			<point x="766" y="9"/>
			<point x="914" y="-70" type="curve"/>
			<point x="922" y="-46"/>
			<point x="939" y="-31"/>
			<point x="961" y="-29" type="curve"/>
			<point x="963" y="-18" type="line"/>
			<point x="811" y="43"/>
			<point x="689" y="181"/>
		</contour>
	</outline>
</glyph>
<glyph name="uni515D" format="2">
	<advance width="1000" height="1000"/>
	<unicode hex="515D"/>
	<note>
		cid10877
	</note>
	<outline>
		<contour>
			<point x="857" y="772" type="curve"/>
			<point x="781" y="826" type="line"/>
			<point x="753" y="787" type="line"/>
			<point x="771" y="787" type="line"/>
			<point x="771" y="766" type="line"/>
			<point x="792" y="649"/>
			<point x="844" y="542"/>
			<point x="925" y="464" type="curve"/>
			<point x="932" y="482"/>
			<point x="950" y="494"/>
			<point x="968" y="496" type="curve"/>
			<point x="971" y="506" type="line"/>
			<point x="889" y="567"/>
			<point x="826" y="662"/>
			<point x="799" y="752" type="curve"/>
			<point x="827" y="754"/>
			<point x="847" y="760"/>
		</contour>
		<contour>
			<point x="796" y="757" type="line"/>
			<point x="796" y="787" type="line"/>
			<point x="604" y="787" type="line"/>
			<point x="613" y="757" type="line"/>
		</contour>
		<contour>
			<point x="678" y="463" type="curve"/>
			<point x="629" y="463" type="line"/>
			<point x="624" y="343"/>
			<point x="601" y="199"/>
			<point x="446" y="86" type="curve"/>
			<point x="460" y="70" type="line"/>
			<point x="640" y="181"/>
			<point x="668" y="330"/>
		</contour>
		<contour>
			<point x="896" y="464" type="curve"/>
			<point x="834" y="514" type="line"/>
			<point x="806" y="483" type="line"/>
			<point x="816" y="483" type="line"/>
			<point x="811" y="254"/>
			<point x="798" y="158"/>
			<point x="778" y="136" type="curve" smooth="yes"/>
			<point x="771" y="129"/>
			<point x="764" y="127"/>
			<point x="748" y="127" type="curve" smooth="yes"/>
			<point x="731" y="127"/>
			<point x="686" y="131"/>
			<point x="657" y="133" type="curve"/>
			<point x="656" y="115" type="line"/>
			<point x="680" y="112"/>
			<point x="708" y="106"/>
			<point x="717" y="99" type="curve" smooth="yes"/>
			<point x="728" y="92"/>
			<point x="730" y="78"/>
			<point x="730" y="66" type="curve"/>
			<point x="758" y="66"/>
			<point x="787" y="75"/>
			<point x="806" y="95" type="curve" smooth="yes"/>
			<point x="837" y="127"/>
			<point x="853" y="230"/>
			<point x="858" y="450" type="curve"/>
			<point x="878" y="452"/>
			<point x="890" y="456"/>
		</contour>
		<contour>
			<point x="845" y="453" type="line"/>
			<point x="845" y="483" type="line"/>
			<point x="541" y="483" type="line"/>
			<point x="550" y="453" type="line"/>
		</contour>
		<contour>
			<point x="678" y="718" type="curve"/>
			<point x="598" y="742" type="line"/>
			<point x="587" y="659"/>
			<point x="555" y="545"/>
			<point x="501" y="472" type="curve"/>
			<point x="513" y="458" type="line"/>
			<point x="581" y="525"/>
			<point x="621" y="628"/>
			<point x="642" y="703" type="curve"/>
			<point x="666" y="702"/>
			<point x="673" y="707"/>
		</contour>
		<contour>
			<point x="253" y="328" type="curve"/>
			<point x="204" y="328" type="line"/>
			<point x="197" y="166"/>
			<point x="165" y="45"/>
			<point x="47" y="-57" type="curve"/>
			<point x="57" y="-72" type="line"/>
			<point x="195" y="23"/>
			<point x="239" y="147"/>
		</contour>
		<contour>
			<point x="370" y="24" type="curve" smooth="yes"/>
			<point x="370" y="328" type="line"/>
			<point x="326" y="328" type="line"/>
			<point x="326" y="20" type="line" smooth="yes"/>
			<point x="326" y="-32"/>
			<point x="348" y="-45"/>
			<point x="454" y="-45" type="curve" smooth="yes"/>
			<point x="659" y="-45" type="line" smooth="yes"/>
			<point x="922" y="-45"/>
			<point x="960" y="-40"/>
			<point x="960" y="-12" type="curve" smooth="yes"/>
			<point x="960" y="-2"/>
			<point x="952" y="3"/>
			<point x="930" y="9" type="curve"/>
			<point x="928" y="144" type="line"/>
			<point x="914" y="144" type="line"/>
			<point x="904" y="81"/>
			<point x="893" y="33"/>
			<point x="885" y="15" type="curve" smooth="yes"/>
			<point x="880" y="5"/>
			<point x="876" y="1"/>
			<point x="857" y="-1" type="curve" smooth="yes"/>
			<point x="829" y="-4"/>
			<point x="755" y="-5"/>
			<point x="658" y="-5" type="curve" smooth="yes"/>
			<point x="454" y="-5" type="line" smooth="yes"/>
			<point x="378" y="-5"/>
			<point x="370" y="2"/>
		</contour>
		<contour>
			<point x="346" y="824" type="curve"/>
			<point x="265" y="834" type="line"/>
			<point x="265" y="529" type="line"/>
			<point x="309" y="529" type="line"/>
			<point x="309" y="797" type="line"/>
			<point x="333" y="800"/>
			<point x="344" y="810"/>
		</contour>
		<contour>
			<point x="471" y="746" type="curve"/>
			<point x="431" y="696" type="line"/>
			<point x="42" y="696" type="line"/>
			<point x="50" y="666" type="line"/>
			<point x="520" y="666" type="line" smooth="yes"/>
			<point x="534" y="666"/>
			<point x="544" y="671"/>
			<point x="546" y="682" type="curve"/>
			<point x="517" y="710"/>
			<point x="471" y="746"/>
		</contour>
		<contour>
			<point x="138" y="294" type="curve" smooth="yes"/>
			<point x="138" y="514" type="line"/>
			<point x="455" y="514" type="line"/>
			<point x="455" y="544" type="line"/>
			<point x="143" y="544" type="line"/>
			<point x="94" y="568" type="line"/>
			<point x="94" y="280" type="line"/>
			<point x="101" y="280" type="line" smooth="yes"/>
			<point x="119" y="280"/>
			<point x="138" y="290"/>
		</contour>
		<contour>
			<point x="455" y="313" type="line"/>
			<point x="455" y="343" type="line"/>
			<point x="116" y="343" type="line"/>
			<point x="116" y="313" type="line"/>
		</contour>
		<contour>
			<point x="518" y="524" type="curve"/>
			<point x="452" y="575" type="line"/>
			<point x="423" y="544" type="line"/>
			<point x="433" y="544" type="line"/>
			<point x="433" y="286" type="line"/>
			<point x="439" y="286" type="line" smooth="yes"/>
			<point x="454" y="286"/>
			<point x="476" y="298"/>
			<point x="477" y="304" type="curve"/>
			<point x="477" y="505" type="line"/>
			<point x="496" y="509"/>
			<point x="512" y="517"/>
		</contour>
	</outline>
</glyph>
<glyph name="uni53FC" format="2">
	<advance width="1000" height="1000"/>
	<unicode hex="53FC"/>
	<note>
		cid11921
	</note>
	<outline>
		<contour>
			<point x="386" y="268" type="curve"/>
			<point x="429" y="218" type="line"/>
			<point x="437" y="223"/>
			<point x="442" y="233"/>
			<point x="443" y="245" type="curve"/>
			<point x="536" y="298"/>
			<point x="669" y="380"/>
			<point x="788" y="459" type="curve"/>
			<point x="780" y="475" type="line"/>
			<point x="616" y="384"/>
			<point x="464" y="304"/>
		</contour>
		<contour>
			<point x="867" y="696" type="line"/>
			<point x="867" y="726" type="line"/>
			<point x="399" y="726" type="line"/>
			<point x="408" y="696" type="line"/>
		</contour>
		<contour>
			<point x="315" y="186" type="line"/>
			<point x="315" y="216" type="line"/>
			<point x="105" y="216" type="line"/>
			<point x="105" y="186" type="line"/>
		</contour>
		<contour>
			<point x="382" y="659" type="curve"/>
			<point x="314" y="712" type="line"/>
			<point x="284" y="679" type="line"/>
			<point x="294" y="679" type="line"/>
			<point x="294" y="103" type="line"/>
			<point x="300" y="103" type="line" smooth="yes"/>
			<point x="316" y="103"/>
			<point x="337" y="116"/>
			<point x="338" y="122" type="curve"/>
			<point x="338" y="640" type="line"/>
			<point x="358" y="644"/>
			<point x="375" y="651"/>
		</contour>
		<contour>
			<point x="125" y="69" type="curve" smooth="yes"/>
			<point x="125" y="649" type="line"/>
			<point x="316" y="649" type="line"/>
			<point x="316" y="679" type="line"/>
			<point x="131" y="679" type="line"/>
			<point x="82" y="705" type="line"/>
			<point x="82" y="51" type="line"/>
			<point x="90" y="51" type="line" smooth="yes"/>
			<point x="110" y="51"/>
			<point x="125" y="63"/>
		</contour>
		<contour>
			<point x="927" y="707" type="curve"/>
			<point x="861" y="761" type="line"/>
			<point x="831" y="726" type="line"/>
			<point x="842" y="726" type="line"/>
			<point x="834" y="316"/>
			<point x="815" y="50"/>
			<point x="774" y="8" type="curve" smooth="yes"/>
			<point x="762" y="-5"/>
			<point x="755" y="-7"/>
			<point x="734" y="-7" type="curve" smooth="yes"/>
			<point x="712" y="-7"/>
			<point x="642" y="0"/>
			<point x="599" y="5" type="curve"/>
			<point x="598" y="-15" type="line"/>
			<point x="634" y="-21"/>
			<point x="676" y="-30"/>
			<point x="691" y="-39" type="curve" smooth="yes"/>
			<point x="704" y="-47"/>
			<point x="707" y="-61"/>
			<point x="707" y="-75" type="curve"/>
			<point x="747" y="-75"/>
			<point x="786" y="-60"/>
			<point x="810" y="-26" type="curve" smooth="yes"/>
			<point x="856" y="33"/>
			<point x="877" y="286"/>
			<point x="885" y="692" type="curve"/>
			<point x="907" y="694"/>
			<point x="919" y="699"/>
		</contour>
	</outline>
</glyph>
<glyph name="uni5406" format="2">
	<advance width="1000" height="1000"/>
	<unicode hex="5406"/>
	<note>
		cid11932
	</note>
	<outline>
		<contour>
			<point x="82" y="731" type="line"/>
			<point x="82" y="85" type="line"/>
			<point x="90" y="85" type="line" smooth="yes"/>
			<point x="109" y="85"/>
			<point x="125" y="97"/>
			<point x="125" y="103" type="curve" smooth="yes"/>
			<point x="125" y="675" type="line"/>
			<point x="315" y="675" type="line"/>
			<point x="315" y="705" type="line"/>
			<point x="131" y="705" type="line"/>
		</contour>
		<contour>
			<point x="283" y="705" type="line"/>
			<point x="293" y="705" type="line"/>
			<point x="293" y="133" type="line"/>
			<point x="299" y="133" type="line" smooth="yes"/>
			<point x="315" y="133"/>
			<point x="336" y="146"/>
			<point x="337" y="152" type="curve"/>
			<point x="337" y="665" type="line"/>
			<point x="357" y="669"/>
			<point x="373" y="677"/>
			<point x="380" y="685" type="curve"/>
			<point x="313" y="738" type="line"/>
		</contour>
		<contour>
			<point x="315" y="244" type="line"/>
			<point x="103" y="244" type="line"/>
			<point x="103" y="214" type="line"/>
			<point x="315" y="214" type="line"/>
		</contour>
		<contour>
			<point x="726" y="774" type="curve"/>
			<point x="644" y="809" type="line"/>
			<point x="590" y="687"/>
			<point x="533" y="565"/>
			<point x="496" y="492" type="curve"/>
			<point x="510" y="480" type="line"/>
			<point x="559" y="547"/>
			<point x="628" y="654"/>
			<point x="688" y="758" type="curve"/>
			<point x="708" y="755"/>
			<point x="721" y="764"/>
		</contour>
		<contour>
			<point x="404" y="585" type="curve"/>
			<point x="391" y="577" type="line"/>
			<point x="451" y="521"/>
			<point x="529" y="424"/>
			<point x="548" y="353" type="curve"/>
			<point x="610" y="310"/>
			<point x="636" y="456"/>
		</contour>
		<contour>
			<point x="879" y="582" type="curve"/>
			<point x="803" y="621" type="line"/>
			<point x="722" y="458"/>
			<point x="592" y="242"/>
			<point x="466" y="61" type="curve"/>
			<point x="493" y="61" type="line"/>
			<point x="623" y="223"/>
			<point x="756" y="418"/>
			<point x="838" y="568" type="curve"/>
			<point x="860" y="564"/>
			<point x="873" y="571"/>
		</contour>
		<contour>
			<point x="337" y="57" type="curve"/>
			<point x="369" y="-11" type="line"/>
			<point x="378" y="-8"/>
			<point x="387" y="-1"/>
			<point x="392" y="11" type="curve"/>
			<point x="541" y="39"/>
			<point x="727" y="76"/>
			<point x="872" y="106" type="curve"/>
			<point x="872" y="125" type="line"/>
			<point x="640" y="92"/>
			<point x="434" y="66"/>
		</contour>
		<contour>
			<point x="756" y="278" type="curve"/>
			<point x="742" y="272" type="line"/>
			<point x="826" y="166"/>
			<point x="888" y="53"/>
			<point x="903" y="-21" type="curve"/>
			<point x="965" y="-72"/>
			<point x="1000" y="86"/>
		</contour>
	</outline>
</glyph>
<glyph name="uni5433" format="2">
	<advance width="1000" height="1000"/>
	<unicode hex="5433"/>
	<note>
		cid12008
	</note>
	<outline>
		<contour>
			<point x="879" y="282" type="curve"/>
			<point x="836" y="230" type="line"/>
			<point x="46" y="230" type="line"/>
			<point x="55" y="200" type="line"/>
			<point x="932" y="200" type="line" smooth="yes"/>
			<point x="946" y="200"/>
			<point x="955" y="205"/>
			<point x="958" y="216" type="curve"/>
			<point x="927" y="244"/>
			<point x="879" y="282"/>
		</contour>
		<contour>
			<point x="337" y="805" type="line"/>
			<point x="337" y="780" type="line"/>
			<point x="337" y="493" type="line"/>
			<point x="344" y="493" type="line" smooth="yes"/>
			<point x="363" y="493"/>
			<point x="381" y="502"/>
			<point x="381" y="507" type="curve" smooth="yes"/>
			<point x="381" y="751" type="line"/>
			<point x="803" y="751" type="line"/>
			<point x="803" y="780" type="line"/>
			<point x="386" y="780" type="line"/>
			<point x="337" y="805" type="line"/>
		</contour>
		<contour>
			<point x="760" y="780" type="line"/>
			<point x="769" y="780" type="line"/>
			<point x="769" y="499" type="line"/>
			<point x="775" y="499" type="line" smooth="yes"/>
			<point x="790" y="499"/>
			<point x="813" y="510"/>
			<point x="814" y="516" type="curve"/>
			<point x="814" y="741" type="line"/>
			<point x="833" y="745"/>
			<point x="850" y="753"/>
			<point x="857" y="761" type="curve"/>
			<point x="789" y="813" type="line"/>
		</contour>
		<contour>
			<point x="790" y="575" type="line"/>
			<point x="350" y="575" type="line"/>
			<point x="350" y="546" type="line"/>
			<point x="790" y="546" type="line"/>
		</contour>
		<contour>
			<point x="761" y="419" type="line"/>
			<point x="174" y="419" type="line"/>
			<point x="174" y="389" type="line"/>
			<point x="761" y="389" type="line"/>
		</contour>
		<contour>
			<point x="232" y="745" type="curve"/>
			<point x="155" y="754" type="line"/>
			<point x="155" y="317" type="line"/>
			<point x="164" y="317" type="line" smooth="yes"/>
			<point x="180" y="317"/>
			<point x="199" y="328"/>
			<point x="199" y="336" type="curve" smooth="yes"/>
			<point x="199" y="720" type="line"/>
			<point x="221" y="723"/>
			<point x="230" y="732"/>
		</contour>
		<contour>
			<point x="730" y="419" type="line"/>
			<point x="740" y="419" type="line"/>
			<point x="740" y="220" type="line"/>
			<point x="784" y="220" type="line"/>
			<point x="784" y="379" type="line"/>
			<point x="803" y="383"/>
			<point x="821" y="391"/>
			<point x="828" y="399" type="curve"/>
			<point x="761" y="450" type="line"/>
		</contour>
		<contour>
			<point x="526" y="404" type="curve"/>
			<point x="476" y="404" type="line"/>
			<point x="476" y="173"/>
			<point x="421" y="16"/>
			<point x="37" y="-56" type="curve"/>
			<point x="45" y="-74" type="line"/>
			<point x="460" y="-5"/>
			<point x="526" y="153"/>
		</contour>
		<contour>
			<point x="517" y="230" type="curve"/>
			<point x="500" y="220" type="line"/>
			<point x="571" y="52"/>
			<point x="710" y="-30"/>
			<point x="927" y="-72" type="curve"/>
			<point x="933" y="-50"/>
			<point x="949" y="-35"/>
			<point x="969" y="-32" type="curve"/>
			<point x="970" y="-22" type="line"/>
			<point x="749" y="6"/>
			<point x="590" y="80"/>
		</contour>
	</outline>
</glyph>
<glyph name="uni5478" format="2">
	<advance width="1000" height="1000"/>
	<unicode hex="5478"/>
	<note>
		cid12104
	</note>
	<outline>
		<contour>
			<point x="125" y="115" type="curve" smooth="yes"/>
			<point x="125" y="660" type="line"/>
			<point x="298" y="660" type="line"/>
			<point x="298" y="690" type="line"/>
			<point x="130" y="690" type="line"/>
			<point x="82" y="715" type="line"/>
			<point x="82" y="98" type="line"/>
			<point x="90" y="98" type="line" smooth="yes"/>
			<point x="109" y="98"/>
			<point x="125" y="109"/>
		</contour>
		<contour>
			<point x="298" y="220" type="line"/>
			<point x="298" y="250" type="line"/>
			<point x="104" y="250" type="line"/>
			<point x="104" y="220" type="line"/>
		</contour>
		<contour>
			<point x="355" y="670" type="curve"/>
			<point x="288" y="723" type="line"/>
			<point x="258" y="690" type="line"/>
			<point x="268" y="690" type="line"/>
			<point x="268" y="154" type="line"/>
			<point x="274" y="154" type="line" smooth="yes"/>
			<point x="289" y="154"/>
			<point x="311" y="168"/>
			<point x="312" y="174" type="curve"/>
			<point x="312" y="650" type="line"/>
			<point x="332" y="654"/>
			<point x="349" y="662"/>
		</contour>
		<contour>
			<point x="747" y="718" type="curve"/>
			<point x="691" y="718" type="line"/>
			<point x="623" y="556"/>
			<point x="498" y="396"/>
			<point x="342" y="287" type="curve"/>
			<point x="354" y="272" type="line"/>
			<point x="543" y="390"/>
			<point x="661" y="529"/>
		</contour>
		<contour>
			<point x="689" y="536" type="curve"/>
			<point x="609" y="545" type="line"/>
			<point x="609" y="32" type="line"/>
			<point x="618" y="32" type="line" smooth="yes"/>
			<point x="634" y="32"/>
			<point x="653" y="43"/>
			<point x="653" y="51" type="curve" smooth="yes"/>
			<point x="653" y="509" type="line"/>
			<point x="678" y="512"/>
			<point x="686" y="522"/>
		</contour>
		<contour>
			<point x="710" y="503" type="curve"/>
			<point x="699" y="492" type="line"/>
			<point x="775" y="441"/>
			<point x="880" y="347"/>
			<point x="911" y="277" type="curve"/>
			<point x="977" y="240"/>
			<point x="995" y="386"/>
		</contour>
		<contour>
			<point x="889" y="66" type="curve"/>
			<point x="846" y="13" type="line"/>
			<point x="342" y="13" type="line"/>
			<point x="349" y="-17" type="line"/>
			<point x="943" y="-17" type="line" smooth="yes"/>
			<point x="956" y="-17"/>
			<point x="965" y="-12"/>
			<point x="968" y="-1" type="curve"/>
			<point x="938" y="28"/>
			<point x="889" y="66"/>
		</contour>
		<contour>
			<point x="883" y="786" type="curve"/>
			<point x="841" y="736" type="line"/>
			<point x="369" y="736" type="line"/>
			<point x="377" y="706" type="line"/>
			<point x="933" y="706" type="line" smooth="yes"/>
			<point x="946" y="706"/>
			<point x="955" y="711"/>
			<point x="958" y="722" type="curve"/>
			<point x="929" y="750"/>
			<point x="883" y="786"/>
		</contour>
	</outline>
</glyph>
<glyph name="uni549A" format="2">
	<advance width="1000" height="1000"/>
	<unicode hex="549A"/>
	<note>
		cid12147
	</note>
	<outline>
		<contour>
			<point x="670" y="793" type="curve"/>
			<point x="595" y="832" type="line"/>
			<point x="544" y="684"/>
			<point x="450" y="542"/>
			<point x="350" y="466" type="curve"/>
			<point x="364" y="452" type="line"/>
			<point x="473" y="522"/>
			<point x="576" y="649"/>
			<point x="630" y="781" type="curve"/>
			<point x="652" y="776"/>
			<point x="665" y="783"/>
		</contour>
		<contour>
			<point x="564" y="306" type="curve"/>
			<point x="556" y="290" type="line"/>
			<point x="629" y="248"/>
			<point x="692" y="194"/>
			<point x="719" y="150" type="curve"/>
			<point x="773" y="125"/>
			<point x="803" y="230"/>
		</contour>
		<contour>
			<point x="543" y="669" type="curve"/>
			<point x="530" y="650" type="line"/>
			<point x="591" y="466"/>
			<point x="741" y="312"/>
			<point x="920" y="250" type="curve"/>
			<point x="926" y="272"/>
			<point x="944" y="283"/>
			<point x="964" y="285" type="curve"/>
			<point x="967" y="296" type="line"/>
			<point x="779" y="342"/>
			<point x="615" y="486"/>
		</contour>
		<contour>
			<point x="770" y="707" type="line"/>
			<point x="780" y="707" type="line"/>
			<point x="710" y="511"/>
			<point x="539" y="334"/>
			<point x="338" y="247" type="curve"/>
			<point x="348" y="230" type="line"/>
			<point x="558" y="310"/>
			<point x="742" y="481"/>
			<point x="823" y="673" type="curve"/>
			<point x="847" y="674"/>
			<point x="858" y="675"/>
			<point x="866" y="684" type="curve"/>
			<point x="807" y="740" type="line"/>
		</contour>
		<contour>
			<point x="807" y="707" type="line"/>
			<point x="570" y="707" type="line"/>
			<point x="556" y="677" type="line"/>
			<point x="807" y="677" type="line"/>
		</contour>
		<contour>
			<point x="84" y="734" type="line"/>
			<point x="84" y="708" type="line"/>
			<point x="84" y="73" type="line"/>
			<point x="92" y="73" type="line" smooth="yes"/>
			<point x="113" y="73"/>
			<point x="127" y="85"/>
			<point x="127" y="91" type="curve" smooth="yes"/>
			<point x="127" y="678" type="line"/>
			<point x="295" y="678" type="line"/>
			<point x="295" y="708" type="line"/>
			<point x="133" y="708" type="line"/>
		</contour>
		<contour>
			<point x="296" y="222" type="line"/>
			<point x="106" y="222" type="line"/>
			<point x="106" y="192" type="line"/>
			<point x="296" y="192" type="line"/>
		</contour>
		<contour>
			<point x="275" y="708" type="line"/>
			<point x="285" y="708" type="line"/>
			<point x="285" y="106" type="line"/>
			<point x="291" y="106" type="line" smooth="yes"/>
			<point x="307" y="106"/>
			<point x="328" y="120"/>
			<point x="329" y="126" type="curve"/>
			<point x="329" y="669" type="line"/>
			<point x="349" y="673"/>
			<point x="367" y="680"/>
			<point x="373" y="688" type="curve"/>
			<point x="305" y="741" type="line"/>
		</contour>
		<contour>
			<point x="472" y="-7" type="curve"/>
			<point x="514" y="-70" type="line"/>
			<point x="523" y="-67"/>
			<point x="530" y="-57"/>
			<point x="533" y="-45" type="curve"/>
			<point x="647" y="1"/>
			<point x="781" y="59"/>
			<point x="881" y="105" type="curve"/>
			<point x="874" y="122" type="line"/>
			<point x="723" y="70"/>
			<point x="568" y="20"/>
		</contour>
	</outline>
</glyph>
<glyph name="uni552C" format="2">
	<advance width="1000" height="1000"/>
	<unicode hex="552C"/>
	<note>
		cid12356
	</note>
	<outline>
		<contour>
			<point x="84" y="729" type="line"/>
			<point x="84" y="83" type="line"/>
			<point x="92" y="83" type="line" smooth="yes"/>
			<point x="111" y="83"/>
			<point x="127" y="95"/>
			<point x="127" y="101" type="curve" smooth="yes"/>
			<point x="127" y="673" type="line"/>
			<point x="292" y="673" type="line"/>
			<point x="292" y="703" type="line"/>
			<point x="132" y="703" type="line"/>
		</contour>
		<contour>
			<point x="255" y="703" type="line"/>
			<point x="265" y="703" type="line"/>
			<point x="265" y="139" type="line"/>
			<point x="271" y="139" type="line" smooth="yes"/>
			<point x="287" y="139"/>
			<point x="308" y="152"/>
			<point x="309" y="159" type="curve"/>
			<point x="309" y="663" type="line"/>
			<point x="329" y="667"/>
			<point x="346" y="675"/>
			<point x="352" y="683" type="curve"/>
			<point x="285" y="736" type="line"/>
		</contour>
		<contour>
			<point x="287" y="237" type="line"/>
			<point x="105" y="237" type="line"/>
			<point x="105" y="207" type="line"/>
			<point x="287" y="207" type="line"/>
		</contour>
		<contour>
			<point x="696" y="823" type="curve"/>
			<point x="616" y="833" type="line"/>
			<point x="616" y="608" type="line"/>
			<point x="660" y="608" type="line"/>
			<point x="660" y="796" type="line"/>
			<point x="684" y="799"/>
			<point x="694" y="809"/>
		</contour>
		<contour>
			<point x="832" y="784" type="curve"/>
			<point x="792" y="737" type="line"/>
			<point x="638" y="737" type="line"/>
			<point x="638" y="707" type="line"/>
			<point x="883" y="707" type="line" smooth="yes"/>
			<point x="895" y="707"/>
			<point x="905" y="712"/>
			<point x="908" y="723" type="curve"/>
			<point x="879" y="750"/>
			<point x="832" y="784"/>
		</contour>
		<contour>
			<point x="903" y="618" type="line"/>
			<point x="412" y="618" type="line"/>
			<point x="412" y="588" type="line"/>
			<point x="903" y="588" type="line"/>
		</contour>
		<contour>
			<point x="857" y="618" type="line"/>
			<point x="862" y="618" type="line"/>
			<point x="858" y="590"/>
			<point x="849" y="539"/>
			<point x="840" y="511" type="curve"/>
			<point x="855" y="503" type="line"/>
			<point x="877" y="523"/>
			<point x="902" y="555"/>
			<point x="916" y="580" type="curve"/>
			<point x="935" y="581"/>
			<point x="946" y="582"/>
			<point x="953" y="589" type="curve"/>
			<point x="892" y="654" type="line"/>
		</contour>
		<contour>
			<point x="389" y="645" type="line"/>
			<point x="389" y="449" type="line" smooth="yes"/>
			<point x="389" y="280"/>
			<point x="375" y="95"/>
			<point x="269" y="-62" type="curve"/>
			<point x="285" y="-74" type="line"/>
			<point x="421" y="83"/>
			<point x="433" y="298"/>
			<point x="433" y="449" type="curve" smooth="yes"/>
			<point x="433" y="618" type="line"/>
			<point x="443" y="618" type="line"/>
		</contour>
		<contour>
			<point x="766" y="540" type="curve"/>
			<point x="733" y="491" type="line"/>
			<point x="459" y="465" type="line"/>
			<point x="472" y="431" type="line"/>
			<point x="817" y="463" type="line" smooth="yes"/>
			<point x="831" y="464"/>
			<point x="841" y="471"/>
			<point x="842" y="484" type="curve"/>
			<point x="814" y="506"/>
			<point x="766" y="540"/>
		</contour>
		<contour>
			<point x="675" y="563" type="curve"/>
			<point x="603" y="573" type="line"/>
			<point x="603" y="376" type="line" smooth="yes"/>
			<point x="603" y="341"/>
			<point x="614" y="329"/>
			<point x="675" y="329" type="curve" smooth="yes"/>
			<point x="766" y="329" type="line" smooth="yes"/>
			<point x="896" y="329"/>
			<point x="920" y="337"/>
			<point x="920" y="358" type="curve" smooth="yes"/>
			<point x="920" y="367"/>
			<point x="914" y="372"/>
			<point x="897" y="377" type="curve"/>
			<point x="894" y="454" type="line"/>
			<point x="881" y="454" type="line"/>
			<point x="875" y="421"/>
			<point x="867" y="388"/>
			<point x="861" y="378" type="curve" smooth="yes"/>
			<point x="857" y="372"/>
			<point x="854" y="370"/>
			<point x="846" y="370" type="curve" smooth="yes"/>
			<point x="835" y="369"/>
			<point x="804" y="369"/>
			<point x="765" y="369" type="curve" smooth="yes"/>
			<point x="681" y="369" type="line" smooth="yes"/>
			<point x="650" y="369"/>
			<point x="647" y="371"/>
			<point x="647" y="384" type="curve" smooth="yes"/>
			<point x="647" y="540" type="line"/>
			<point x="663" y="542"/>
			<point x="673" y="552"/>
		</contour>
		<contour>
			<point x="630" y="279" type="curve"/>
			<point x="555" y="287" type="line"/>
			<point x="553" y="164"/>
			<point x="549" y="35"/>
			<point x="401" y="-60" type="curve"/>
			<point x="416" y="-76" type="line"/>
			<point x="589" y="15"/>
			<point x="594" y="147"/>
			<point x="600" y="255" type="curve"/>
			<point x="620" y="257"/>
			<point x="629" y="268"/>
		</contour>
		<contour>
			<point x="780" y="277" type="curve"/>
			<point x="709" y="287" type="line"/>
			<point x="709" y="-12" type="line" smooth="yes"/>
			<point x="709" y="-44"/>
			<point x="719" y="-57"/>
			<point x="770" y="-57" type="curve" smooth="yes"/>
			<point x="837" y="-57" type="line" smooth="yes"/>
			<point x="938" y="-57"/>
			<point x="959" y="-49"/>
			<point x="959" y="-29" type="curve" smooth="yes"/>
			<point x="959" y="-20"/>
			<point x="955" y="-15"/>
			<point x="938" y="-10" type="curve"/>
			<point x="936" y="101" type="line"/>
			<point x="922" y="101" type="line"/>
			<point x="915" y="56"/>
			<point x="907" y="5"/>
			<point x="901" y="-7" type="curve" smooth="yes"/>
			<point x="898" y="-15"/>
			<point x="896" y="-17"/>
			<point x="889" y="-17" type="curve" smooth="yes"/>
			<point x="882" y="-18"/>
			<point x="861" y="-18"/>
			<point x="834" y="-18" type="curve" smooth="yes"/>
			<point x="777" y="-18" type="line" smooth="yes"/>
			<point x="754" y="-18"/>
			<point x="751" y="-15"/>
			<point x="751" y="-2" type="curve" smooth="yes"/>
			<point x="751" y="253" type="line"/>
			<point x="768" y="256"/>
			<point x="778" y="265"/>
		</contour>
	</outline>
</glyph>
<glyph name="uni5537" format="2">
	<advance width="1000" height="1000"/>
	<unicode hex="5537"/>
	<note>
		cid12374
	</note>
	<outline>
		<contour>
			<point x="127" y="96" type="curve" smooth="yes"/>
			<point x="127" y="641" type="line"/>
			<point x="293" y="641" type="line"/>
			<point x="293" y="671" type="line"/>
			<point x="132" y="671" type="line"/>
			<point x="84" y="697" type="line"/>
			<point x="84" y="80" type="line"/>
			<point x="92" y="80" type="line" smooth="yes"/>
			<point x="111" y="80"/>
			<point x="127" y="90"/>
		</contour>
		<contour>
			<point x="358" y="651" type="curve"/>
			<point x="291" y="704" type="line"/>
			<point x="261" y="671" type="line"/>
			<point x="271" y="671" type="line"/>
			<point x="271" y="136" type="line"/>
			<point x="277" y="136" type="line" smooth="yes"/>
			<point x="292" y="136"/>
			<point x="314" y="150"/>
			<point x="315" y="156" type="curve"/>
			<point x="315" y="631" type="line"/>
			<point x="335" y="635"/>
			<point x="351" y="643"/>
		</contour>
		<contour>
			<point x="293" y="207" type="line"/>
			<point x="293" y="237" type="line"/>
			<point x="105" y="237" type="line"/>
			<point x="105" y="207" type="line"/>
		</contour>
		<contour>
			<point x="701" y="824" type="curve"/>
			<point x="621" y="834" type="line"/>
			<point x="621" y="702" type="line"/>
			<point x="665" y="702" type="line"/>
			<point x="665" y="797" type="line"/>
			<point x="689" y="800"/>
			<point x="699" y="810"/>
		</contour>
		<contour>
			<point x="882" y="768" type="curve"/>
			<point x="840" y="717" type="line"/>
			<point x="350" y="717" type="line"/>
			<point x="358" y="687" type="line"/>
			<point x="934" y="687" type="line" smooth="yes"/>
			<point x="947" y="687"/>
			<point x="956" y="692"/>
			<point x="959" y="703" type="curve"/>
			<point x="929" y="732"/>
			<point x="882" y="768"/>
		</contour>
		<contour>
			<point x="643" y="705" type="curve"/>
			<point x="580" y="705" type="line"/>
			<point x="549" y="636"/>
			<point x="510" y="562"/>
			<point x="478" y="512" type="curve"/>
			<point x="507" y="512" type="line"/>
			<point x="546" y="557"/>
			<point x="599" y="632"/>
		</contour>
		<contour>
			<point x="359" y="521" type="curve"/>
			<point x="389" y="452" type="line"/>
			<point x="399" y="454"/>
			<point x="408" y="460"/>
			<point x="414" y="472" type="curve"/>
			<point x="573" y="490"/>
			<point x="742" y="511"/>
			<point x="852" y="528" type="curve"/>
			<point x="851" y="547" type="line"/>
			<point x="647" y="534"/>
			<point x="457" y="524"/>
		</contour>
		<contour>
			<point x="698" y="656" type="curve"/>
			<point x="689" y="644" type="line"/>
			<point x="793" y="585"/>
			<point x="876" y="510"/>
			<point x="904" y="452" type="curve"/>
			<point x="968" y="421"/>
			<point x="977" y="566"/>
		</contour>
		<contour>
			<point x="485" y="-57" type="curve" smooth="yes"/>
			<point x="485" y="376" type="line"/>
			<point x="832" y="376" type="line"/>
			<point x="832" y="406" type="line"/>
			<point x="490" y="406" type="line"/>
			<point x="441" y="432" type="line"/>
			<point x="441" y="-74" type="line"/>
			<point x="449" y="-74" type="line" smooth="yes"/>
			<point x="467" y="-74"/>
			<point x="485" y="-63"/>
		</contour>
		<contour>
			<point x="897" y="385" type="curve"/>
			<point x="826" y="438" type="line"/>
			<point x="800" y="406" type="line"/>
			<point x="810" y="406" type="line"/>
			<point x="810" y="8" type="line" smooth="yes"/>
			<point x="810" y="-7"/>
			<point x="805" y="-13"/>
			<point x="784" y="-13" type="curve" smooth="yes"/>
			<point x="762" y="-13"/>
			<point x="652" y="-5"/>
			<point x="652" y="-5" type="curve"/>
			<point x="652" y="-22" type="line"/>
			<point x="698" y="-26"/>
			<point x="726" y="-34"/>
			<point x="742" y="-42" type="curve" smooth="yes"/>
			<point x="756" y="-48"/>
			<point x="762" y="-61"/>
			<point x="765" y="-74" type="curve"/>
			<point x="845" y="-66"/>
			<point x="854" y="-38"/>
			<point x="854" y="3" type="curve" smooth="yes"/>
			<point x="854" y="366" type="line"/>
			<point x="874" y="369"/>
			<point x="891" y="378"/>
		</contour>
		<contour>
			<point x="832" y="249" type="line"/>
			<point x="832" y="279" type="line"/>
			<point x="463" y="279" type="line"/>
			<point x="463" y="249" type="line"/>
		</contour>
		<contour>
			<point x="832" y="120" type="line"/>
			<point x="832" y="150" type="line"/>
			<point x="463" y="150" type="line"/>
			<point x="463" y="120" type="line"/>
		</contour>
	</outline>
</glyph>
<glyph name="uni5555" format="2">
	<advance width="1000" height="1000"/>
	<unicode hex="5555"/>
	<note>
		cid12428
	</note>
	<outline>
		<contour>
			<point x="127" y="112" type="curve" smooth="yes"/>
			<point x="127" y="684" type="line"/>
			<point x="280" y="684" type="line"/>
			<point x="280" y="714" type="line"/>
			<point x="132" y="714" type="line"/>
			<point x="84" y="740" type="line"/>
			<point x="84" y="94" type="line"/>
			<point x="92" y="94" type="line" smooth="yes"/>
			<point x="111" y="94"/>
			<point x="127" y="106"/>
		</contour>
		<contour>
			<point x="338" y="694" type="curve"/>
			<point x="270" y="747" type="line"/>
			<point x="240" y="714" type="line"/>
			<point x="250" y="714" type="line"/>
			<point x="250" y="151" type="line"/>
			<point x="256" y="151" type="line" smooth="yes"/>
			<point x="272" y="151"/>
			<point x="293" y="164"/>
			<point x="294" y="170" type="curve"/>
			<point x="294" y="674" type="line"/>
			<point x="314" y="678"/>
			<point x="331" y="686"/>
		</contour>
		<contour>
			<point x="272" y="223" type="line"/>
			<point x="272" y="253" type="line"/>
			<point x="105" y="253" type="line"/>
			<point x="105" y="223" type="line"/>
		</contour>
		<contour>
			<point x="561" y="801" type="curve"/>
			<point x="486" y="830" type="line"/>
			<point x="442" y="711"/>
			<point x="371" y="600"/>
			<point x="303" y="533" type="curve"/>
			<point x="318" y="521" type="line"/>
			<point x="400" y="584"/>
			<point x="479" y="686"/>
			<point x="523" y="785" type="curve"/>
			<point x="544" y="782"/>
			<point x="556" y="791"/>
		</contour>
		<contour>
			<point x="899" y="671" type="line"/>
			<point x="899" y="701" type="line"/>
			<point x="468" y="701" type="line"/>
			<point x="449" y="671" type="line"/>
		</contour>
		<contour>
			<point x="965" y="682" type="curve"/>
			<point x="899" y="737" type="line"/>
			<point x="869" y="701" type="line"/>
			<point x="880" y="701" type="line"/>
			<point x="873" y="325"/>
			<point x="854" y="47"/>
			<point x="814" y="6" type="curve" smooth="yes"/>
			<point x="802" y="-6"/>
			<point x="795" y="-9"/>
			<point x="773" y="-9" type="curve" smooth="yes"/>
			<point x="750" y="-9"/>
			<point x="669" y="-1"/>
			<point x="620" y="5" type="curve"/>
			<point x="619" y="-15" type="line"/>
			<point x="660" y="-21"/>
			<point x="710" y="-31"/>
			<point x="727" y="-40" type="curve" smooth="yes"/>
			<point x="740" y="-47"/>
			<point x="743" y="-60"/>
			<point x="743" y="-73" type="curve"/>
			<point x="788" y="-73"/>
			<point x="826" y="-61"/>
			<point x="851" y="-28" type="curve" smooth="yes"/>
			<point x="897" y="32"/>
			<point x="916" y="306"/>
			<point x="923" y="666" type="curve"/>
			<point x="945" y="669"/>
			<point x="957" y="674"/>
		</contour>
		<contour>
			<point x="537" y="612" type="curve"/>
			<point x="465" y="638" type="line"/>
			<point x="438" y="550"/>
			<point x="394" y="467"/>
			<point x="348" y="414" type="curve"/>
			<point x="364" y="404" type="line"/>
			<point x="416" y="446"/>
			<point x="469" y="520"/>
			<point x="501" y="595" type="curve"/>
			<point x="521" y="593"/>
			<point x="532" y="602"/>
		</contour>
		<contour>
			<point x="721" y="575" type="curve"/>
			<point x="686" y="533" type="line"/>
			<point x="450" y="533" type="line"/>
			<point x="433" y="503" type="line"/>
			<point x="759" y="503" type="line" smooth="yes"/>
			<point x="773" y="503"/>
			<point x="782" y="508"/>
			<point x="785" y="519" type="curve"/>
			<point x="760" y="544"/>
			<point x="721" y="575"/>
		</contour>
		<contour>
			<point x="744" y="424" type="curve"/>
			<point x="709" y="381" type="line"/>
			<point x="334" y="381" type="line"/>
			<point x="341" y="351" type="line"/>
			<point x="785" y="351" type="line" smooth="yes"/>
			<point x="797" y="351"/>
			<point x="806" y="356"/>
			<point x="809" y="367" type="curve"/>
			<point x="784" y="392"/>
			<point x="744" y="424"/>
		</contour>
		<contour>
			<point x="597" y="131" type="line"/>
			<point x="597" y="518" type="line"/>
			<point x="553" y="518" type="line"/>
			<point x="553" y="131" type="line"/>
		</contour>
		<contour>
			<point x="459" y="286" type="curve"/>
			<point x="383" y="295" type="line"/>
			<point x="383" y="43" type="line"/>
			<point x="392" y="43" type="line" smooth="yes"/>
			<point x="408" y="43"/>
			<point x="427" y="55"/>
			<point x="427" y="62" type="curve" smooth="yes"/>
			<point x="427" y="261" type="line"/>
			<point x="449" y="264"/>
			<point x="458" y="273"/>
		</contour>
		<contour>
			<point x="741" y="116" type="line"/>
			<point x="741" y="146" type="line"/>
			<point x="405" y="146" type="line"/>
			<point x="405" y="116" type="line"/>
		</contour>
		<contour>
			<point x="795" y="286" type="curve"/>
			<point x="719" y="295" type="line"/>
			<point x="719" y="57" type="line"/>
			<point x="728" y="57" type="line" smooth="yes"/>
			<point x="744" y="57"/>
			<point x="763" y="69"/>
			<point x="763" y="76" type="curve" smooth="yes"/>
			<point x="763" y="261" type="line"/>
			<point x="785" y="264"/>
			<point x="793" y="273"/>
		</contour>
	</outline>
</glyph>
<glyph name="uni55B3" format="2">
	<advance width="1000" height="1000"/>
	<unicode hex="55B3"/>
	<note>
		cid12584
	</note>
	<outline>
		<contour>
			<point x="509" y="397" type="line"/>
			<point x="454" y="423" type="line"/>
			<point x="454" y="33" type="line"/>
			<point x="460" y="33" type="line" smooth="yes"/>
			<point x="483" y="33"/>
			<point x="497" y="45"/>
			<point x="497" y="50" type="curve" smooth="yes"/>
			<point x="497" y="367" type="line"/>
			<point x="796" y="367" type="line"/>
			<point x="796" y="51" type="line"/>
			<point x="802" y="51" type="line" smooth="yes"/>
			<point x="821" y="51"/>
			<point x="840" y="64"/>
			<point x="840" y="68" type="curve" smooth="yes"/>
			<point x="840" y="364" type="line"/>
			<point x="859" y="367"/>
			<point x="870" y="372"/>
			<point x="877" y="380" type="curve"/>
			<point x="817" y="427" type="line"/>
			<point x="793" y="397" type="line"/>
		</contour>
		<contour>
			<point x="702" y="818" type="curve"/>
			<point x="621" y="828" type="line"/>
			<point x="621" y="423" type="line"/>
			<point x="630" y="423" type="line" smooth="yes"/>
			<point x="646" y="423"/>
			<point x="665" y="433"/>
			<point x="665" y="441" type="curve" smooth="yes"/>
			<point x="665" y="791" type="line"/>
			<point x="690" y="795"/>
			<point x="700" y="804"/>
		</contour>
		<contour>
			<point x="671" y="690" type="curve"/>
			<point x="654" y="680" type="line"/>
			<point x="706" y="577"/>
			<point x="809" y="479"/>
			<point x="922" y="425" type="curve"/>
			<point x="928" y="445"/>
			<point x="942" y="456"/>
			<point x="961" y="458" type="curve"/>
			<point x="963" y="468" type="line"/>
			<point x="845" y="509"/>
			<point x="733" y="595"/>
		</contour>
		<contour>
			<point x="637" y="683" type="curve"/>
			<point x="637" y="699" type="line"/>
			<point x="593" y="699" type="line"/>
			<point x="541" y="591"/>
			<point x="439" y="482"/>
			<point x="330" y="415" type="curve"/>
			<point x="342" y="397" type="line"/>
			<point x="467" y="463"/>
			<point x="581" y="573"/>
		</contour>
		<contour>
			<point x="816" y="96" type="line"/>
			<point x="816" y="126" type="line"/>
			<point x="475" y="126" type="line"/>
			<point x="475" y="96" type="line"/>
		</contour>
		<contour>
			<point x="820" y="232" type="line"/>
			<point x="820" y="262" type="line"/>
			<point x="474" y="262" type="line"/>
			<point x="474" y="232" type="line"/>
		</contour>
		<contour>
			<point x="893" y="41" type="curve"/>
			<point x="852" y="-9" type="line"/>
			<point x="306" y="-9" type="line"/>
			<point x="314" y="-39" type="line"/>
			<point x="942" y="-39" type="line" smooth="yes"/>
			<point x="956" y="-39"/>
			<point x="966" y="-34"/>
			<point x="969" y="-23" type="curve"/>
			<point x="939" y="5"/>
			<point x="893" y="41"/>
		</contour>
		<contour>
			<point x="870" y="749" type="curve"/>
			<point x="829" y="699" type="line"/>
			<point x="366" y="699" type="line"/>
			<point x="374" y="669" type="line"/>
			<point x="920" y="669" type="line" smooth="yes"/>
			<point x="934" y="669"/>
			<point x="943" y="674"/>
			<point x="945" y="685" type="curve"/>
			<point x="917" y="713"/>
			<point x="870" y="749"/>
		</contour>
		<contour>
			<point x="127" y="122" type="curve" smooth="yes"/>
			<point x="127" y="647" type="line"/>
			<point x="285" y="647" type="line"/>
			<point x="285" y="677" type="line"/>
			<point x="132" y="677" type="line"/>
			<point x="84" y="703" type="line"/>
			<point x="84" y="105" type="line"/>
			<point x="92" y="105" type="line" smooth="yes"/>
			<point x="111" y="105"/>
			<point x="127" y="116"/>
		</contour>
		<contour>
			<point x="285" y="228" type="line"/>
			<point x="285" y="258" type="line"/>
			<point x="105" y="258" type="line"/>
			<point x="105" y="228" type="line"/>
		</contour>
		<contour>
			<point x="350" y="657" type="curve"/>
			<point x="283" y="710" type="line"/>
			<point x="253" y="677" type="line"/>
			<point x="263" y="677" type="line"/>
			<point x="263" y="147" type="line"/>
			<point x="269" y="147" type="line" smooth="yes"/>
			<point x="284" y="147"/>
			<point x="306" y="159"/>
			<point x="307" y="165" type="curve"/>
			<point x="307" y="637" type="line"/>
			<point x="327" y="641"/>
			<point x="344" y="649"/>
		</contour>
	</outline>
</glyph>
<glyph name="uni55E1" format="2">
	<advance width="1000" height="1000"/>
	<unicode hex="55E1"/>
	<note>
		cid12671
	</note>
	<outline>
		<contour>
			<point x="123" y="123" type="curve" smooth="yes"/>
			<point x="123" y="675" type="line"/>
			<point x="276" y="675" type="line"/>
			<point x="276" y="705" type="line"/>
			<point x="128" y="705" type="line"/>
			<point x="80" y="731" type="line"/>
			<point x="80" y="106" type="line"/>
			<point x="88" y="106" type="line" smooth="yes"/>
			<point x="107" y="106"/>
			<point x="123" y="117"/>
		</contour>
		<contour>
			<point x="269" y="237" type="line"/>
			<point x="269" y="267" type="line"/>
			<point x="102" y="267" type="line"/>
			<point x="102" y="237" type="line"/>
		</contour>
		<contour>
			<point x="332" y="685" type="curve"/>
			<point x="265" y="738" type="line"/>
			<point x="235" y="705" type="line"/>
			<point x="245" y="705" type="line"/>
			<point x="245" y="162" type="line"/>
			<point x="251" y="162" type="line" smooth="yes"/>
			<point x="266" y="162"/>
			<point x="288" y="175"/>
			<point x="289" y="181" type="curve"/>
			<point x="289" y="665" type="line"/>
			<point x="309" y="669"/>
			<point x="326" y="677"/>
		</contour>
		<contour>
			<point x="556" y="778" type="curve"/>
			<point x="481" y="810" type="line"/>
			<point x="453" y="739"/>
			<point x="392" y="647"/>
			<point x="322" y="591" type="curve"/>
			<point x="332" y="578" type="line"/>
			<point x="415" y="625"/>
			<point x="484" y="704"/>
			<point x="520" y="766" type="curve"/>
			<point x="543" y="763"/>
			<point x="551" y="767"/>
		</contour>
		<contour>
			<point x="376" y="532" type="curve"/>
			<point x="399" y="467" type="line"/>
			<point x="408" y="469"/>
			<point x="418" y="476"/>
			<point x="423" y="488" type="curve"/>
			<point x="532" y="501"/>
			<point x="669" y="520"/>
			<point x="778" y="537" type="curve"/>
			<point x="776" y="556" type="line"/>
			<point x="608" y="544"/>
			<point x="453" y="534"/>
		</contour>
		<contour>
			<point x="682" y="640" type="curve"/>
			<point x="671" y="630" type="line"/>
			<point x="730" y="591"/>
			<point x="805" y="517"/>
			<point x="825" y="460" type="curve"/>
			<point x="880" y="426"/>
			<point x="902" y="553"/>
		</contour>
		<contour>
			<point x="556" y="401" type="line"/>
			<point x="320" y="401" type="line"/>
			<point x="329" y="371" type="line"/>
			<point x="556" y="371" type="line"/>
		</contour>
		<contour>
			<point x="530" y="401" type="line"/>
			<point x="540" y="401" type="line"/>
			<point x="540" y="6" type="line" smooth="yes"/>
			<point x="540" y="-9"/>
			<point x="535" y="-14"/>
			<point x="518" y="-14" type="curve" smooth="yes"/>
			<point x="499" y="-14"/>
			<point x="413" y="-7"/>
			<point x="413" y="-7" type="curve"/>
			<point x="413" y="-24" type="line"/>
			<point x="450" y="-28"/>
			<point x="473" y="-35"/>
			<point x="487" y="-43" type="curve" smooth="yes"/>
			<point x="498" y="-49"/>
			<point x="503" y="-63"/>
			<point x="506" y="-76" type="curve"/>
			<point x="576" y="-68"/>
			<point x="584" y="-42"/>
			<point x="584" y="0" type="curve" smooth="yes"/>
			<point x="584" y="361" type="line"/>
			<point x="604" y="364"/>
			<point x="621" y="373"/>
			<point x="627" y="380" type="curve"/>
			<point x="556" y="433" type="line"/>
		</contour>
		<contour>
			<point x="892" y="401" type="line"/>
			<point x="641" y="401" type="line"/>
			<point x="650" y="371" type="line"/>
			<point x="892" y="371" type="line"/>
		</contour>
		<contour>
			<point x="857" y="401" type="line"/>
			<point x="867" y="401" type="line"/>
			<point x="867" y="7" type="line" smooth="yes"/>
			<point x="867" y="-8"/>
			<point x="862" y="-14"/>
			<point x="843" y="-14" type="curve" smooth="yes"/>
			<point x="822" y="-14"/>
			<point x="723" y="-7"/>
			<point x="723" y="-7" type="curve"/>
			<point x="723" y="-23" type="line"/>
			<point x="766" y="-28"/>
			<point x="791" y="-35"/>
			<point x="806" y="-43" type="curve" smooth="yes"/>
			<point x="819" y="-50"/>
			<point x="824" y="-62"/>
			<point x="827" y="-76" type="curve"/>
			<point x="902" y="-68"/>
			<point x="911" y="-41"/>
			<point x="911" y="1" type="curve" smooth="yes"/>
			<point x="911" y="361" type="line"/>
			<point x="931" y="364"/>
			<point x="948" y="373"/>
			<point x="954" y="380" type="curve"/>
			<point x="883" y="433" type="line"/>
		</contour>
		<contour>
			<point x="659" y="686" type="curve"/>
			<point x="580" y="706" type="line"/>
			<point x="551" y="637"/>
			<point x="510" y="563"/>
			<point x="474" y="515" type="curve"/>
			<point x="489" y="505" type="line"/>
			<point x="535" y="548"/>
			<point x="587" y="613"/>
			<point x="624" y="673" type="curve"/>
			<point x="648" y="671"/>
			<point x="656" y="675"/>
		</contour>
		<contour>
			<point x="700" y="793" type="line"/>
			<point x="715" y="793" type="line"/>
			<point x="715" y="777" type="line"/>
			<point x="747" y="706"/>
			<point x="826" y="647"/>
			<point x="918" y="607" type="curve"/>
			<point x="924" y="628"/>
			<point x="944" y="643"/>
			<point x="964" y="647" type="curve"/>
			<point x="966" y="658" type="line"/>
			<point x="872" y="679"/>
			<point x="783" y="719"/>
			<point x="747" y="763" type="curve"/>
			<point x="773" y="764"/>
			<point x="794" y="770"/>
			<point x="804" y="781" type="curve"/>
			<point x="726" y="832" type="line"/>
		</contour>
		<contour>
			<point x="745" y="793" type="line"/>
			<point x="578" y="793" type="line"/>
			<point x="586" y="768" type="line"/>
			<point x="745" y="768" type="line"/>
		</contour>
		<contour>
			<point x="519" y="344" type="curve"/>
			<point x="452" y="376" type="line"/>
			<point x="418" y="318"/>
			<point x="362" y="254"/>
			<point x="308" y="211" type="curve"/>
			<point x="320" y="198" type="line"/>
			<point x="385" y="234"/>
			<point x="449" y="292"/>
			<point x="483" y="335" type="curve"/>
			<point x="504" y="330"/>
			<point x="512" y="334"/>
		</contour>
		<contour>
			<point x="568" y="231" type="curve"/>
			<point x="500" y="263" type="line"/>
			<point x="453" y="179"/>
			<point x="353" y="74"/>
			<point x="253" y="12" type="curve"/>
			<point x="264" y="-3" type="line"/>
			<point x="375" y="53"/>
			<point x="479" y="147"/>
			<point x="531" y="221" type="curve"/>
			<point x="553" y="217"/>
			<point x="561" y="221"/>
		</contour>
		<contour>
			<point x="826" y="338" type="curve"/>
			<point x="759" y="371" type="line"/>
			<point x="730" y="322"/>
			<point x="669" y="253"/>
			<point x="611" y="212" type="curve"/>
			<point x="623" y="198" type="line"/>
			<point x="689" y="232"/>
			<point x="755" y="287"/>
			<point x="790" y="330" type="curve"/>
			<point x="812" y="325"/>
			<point x="819" y="328"/>
		</contour>
		<contour>
			<point x="893" y="246" type="curve"/>
			<point x="827" y="276" type="line"/>
			<point x="782" y="197"/>
			<point x="690" y="98"/>
			<point x="594" y="39" type="curve"/>
			<point x="605" y="24" type="line"/>
			<point x="710" y="77"/>
			<point x="808" y="165"/>
			<point x="857" y="236" type="curve"/>
			<point x="877" y="232"/>
			<point x="886" y="234"/>
		</contour>
	</outline>
</glyph>
<glyph name="uni57C2" format="2">
	<advance width="1000" height="1000"/>
	<unicode hex="57C2"/>
	<note>
		cid13445
	</note>
	<outline>
		<contour>
			<point x="894" y="801" type="curve"/>
			<point x="853" y="752" type="line"/>
			<point x="358" y="752" type="line"/>
			<point x="366" y="722" type="line"/>
			<point x="944" y="722" type="line" smooth="yes"/>
			<point x="958" y="722"/>
			<point x="966" y="727"/>
			<point x="969" y="738" type="curve"/>
			<point x="940" y="765"/>
			<point x="894" y="801"/>
		</contour>
		<contour>
			<point x="666" y="378" type="curve" smooth="yes"/>
			<point x="666" y="752" type="line"/>
			<point x="622" y="752" type="line"/>
			<point x="622" y="375" type="line" smooth="yes"/>
			<point x="622" y="147"/>
			<point x="553" y="34"/>
			<point x="241" y="-54" type="curve"/>
			<point x="250" y="-73" type="line"/>
			<point x="593" y="3"/>
			<point x="666" y="143"/>
		</contour>
		<contour>
			<point x="401" y="641" type="line"/>
			<point x="401" y="617" type="line"/>
			<point x="401" y="249" type="line"/>
			<point x="408" y="249" type="line" smooth="yes"/>
			<point x="427" y="249"/>
			<point x="444" y="259"/>
			<point x="444" y="264" type="curve" smooth="yes"/>
			<point x="444" y="587" type="line"/>
			<point x="871" y="587" type="line"/>
			<point x="871" y="617" type="line"/>
			<point x="450" y="617" type="line"/>
		</contour>
		<contour>
			<point x="840" y="617" type="line"/>
			<point x="850" y="617" type="line"/>
			<point x="850" y="260" type="line"/>
			<point x="856" y="260" type="line" smooth="yes"/>
			<point x="871" y="260"/>
			<point x="894" y="273"/>
			<point x="894" y="279" type="curve" smooth="yes"/>
			<point x="894" y="577" type="line"/>
			<point x="914" y="581"/>
			<point x="931" y="589"/>
			<point x="938" y="597" type="curve"/>
			<point x="870" y="649" type="line"/>
		</contour>
		<contour>
			<point x="876" y="477" type="line"/>
			<point x="427" y="477" type="line"/>
			<point x="427" y="447" type="line"/>
			<point x="876" y="447" type="line"/>
		</contour>
		<contour>
			<point x="876" y="338" type="line"/>
			<point x="427" y="338" type="line"/>
			<point x="427" y="308" type="line"/>
			<point x="876" y="308" type="line"/>
		</contour>
		<contour>
			<point x="494" y="219" type="curve"/>
			<point x="528" y="253" type="line"/>
			<point x="497" y="270" type="line"/>
			<point x="477" y="228" type="line"/>
			<point x="448" y="206"/>
			<point x="401" y="174"/>
			<point x="373" y="159" type="curve"/>
			<point x="413" y="105" type="line"/>
			<point x="420" y="109"/>
			<point x="423" y="116"/>
			<point x="419" y="126" type="curve"/>
			<point x="438" y="149"/>
			<point x="473" y="193"/>
		</contour>
		<contour>
			<point x="494" y="219" type="curve"/>
			<point x="476" y="209" type="line"/>
			<point x="552" y="36"/>
			<point x="693" y="-35"/>
			<point x="930" y="-71" type="curve"/>
			<point x="936" y="-47"/>
			<point x="952" y="-32"/>
			<point x="973" y="-28" type="curve"/>
			<point x="974" y="-18" type="line"/>
			<point x="732" y="3"/>
			<point x="569" y="65"/>
		</contour>
		<contour>
			<point x="309" y="590" type="curve"/>
			<point x="271" y="542" type="line"/>
			<point x="47" y="542" type="line"/>
			<point x="55" y="512" type="line"/>
			<point x="357" y="512" type="line" smooth="yes"/>
			<point x="370" y="512"/>
			<point x="380" y="517"/>
			<point x="382" y="528" type="curve"/>
			<point x="355" y="555"/>
			<point x="309" y="590"/>
		</contour>
		<contour>
			<point x="256" y="791" type="curve"/>
			<point x="175" y="801" type="line"/>
			<point x="175" y="143" type="line"/>
			<point x="220" y="157" type="line"/>
			<point x="220" y="764" type="line"/>
			<point x="244" y="767"/>
			<point x="253" y="777"/>
		</contour>
		<contour>
			<point x="36" y="110" type="curve"/>
			<point x="74" y="47" type="line"/>
			<point x="83" y="50"/>
			<point x="89" y="61"/>
			<point x="91" y="73" type="curve"/>
			<point x="217" y="142"/>
			<point x="314" y="201"/>
			<point x="387" y="244" type="curve"/>
			<point x="380" y="258" type="line"/>
			<point x="235" y="193"/>
			<point x="94" y="131"/>
		</contour>
	</outline>
</glyph>
<glyph name="uni5A1B" format="2">
	<advance width="1000" height="1000"/>
	<unicode hex="5A1B"/>
	<note>
		cid14598
	</note>
	<outline>
		<contour>
			<point x="859" y="558" type="line"/>
			<point x="588" y="558" type="line"/>
			<point x="588" y="528" type="line"/>
			<point x="859" y="528" type="line"/>
		</contour>
		<contour>
			<point x="825" y="406" type="line"/>
			<point x="460" y="406" type="line"/>
			<point x="460" y="376" type="line"/>
			<point x="825" y="376" type="line"/>
		</contour>
		<contour>
			<point x="825" y="777" type="line"/>
			<point x="834" y="777" type="line"/>
			<point x="834" y="479" type="line"/>
			<point x="840" y="479" type="line" smooth="yes"/>
			<point x="855" y="479"/>
			<point x="878" y="491"/>
			<point x="879" y="497" type="curve"/>
			<point x="879" y="738" type="line"/>
			<point x="898" y="742"/>
			<point x="915" y="750"/>
			<point x="922" y="758" type="curve"/>
			<point x="854" y="810" type="line"/>
		</contour>
		<contour>
			<point x="569" y="802" type="line"/>
			<point x="569" y="777" type="line"/>
			<point x="569" y="469" type="line"/>
			<point x="576" y="469" type="line" smooth="yes"/>
			<point x="595" y="469"/>
			<point x="614" y="480"/>
			<point x="614" y="485" type="curve" smooth="yes"/>
			<point x="614" y="748" type="line"/>
			<point x="862" y="748" type="line"/>
			<point x="862" y="777" type="line"/>
			<point x="619" y="777" type="line"/>
			<point x="569" y="802" type="line"/>
		</contour>
		<contour>
			<point x="503" y="735" type="curve"/>
			<point x="423" y="745" type="line"/>
			<point x="423" y="303" type="line"/>
			<point x="432" y="303" type="line" smooth="yes"/>
			<point x="448" y="303"/>
			<point x="467" y="314"/>
			<point x="467" y="322" type="curve" smooth="yes"/>
			<point x="467" y="708" type="line"/>
			<point x="492" y="711"/>
			<point x="501" y="721"/>
		</contour>
		<contour>
			<point x="779" y="406" type="line"/>
			<point x="789" y="406" type="line"/>
			<point x="789" y="193" type="line"/>
			<point x="833" y="193" type="line"/>
			<point x="833" y="367" type="line"/>
			<point x="852" y="370"/>
			<point x="870" y="378"/>
			<point x="877" y="386" type="curve"/>
			<point x="810" y="437" type="line"/>
		</contour>
		<contour>
			<point x="895" y="261" type="curve"/>
			<point x="855" y="211" type="line"/>
			<point x="346" y="211" type="line"/>
			<point x="354" y="181" type="line"/>
			<point x="946" y="181" type="line" smooth="yes"/>
			<point x="959" y="181"/>
			<point x="968" y="186"/>
			<point x="971" y="197" type="curve"/>
			<point x="942" y="225"/>
			<point x="895" y="261"/>
		</contour>
		<contour>
			<point x="666" y="391" type="curve"/>
			<point x="617" y="391" type="line"/>
			<point x="617" y="155"/>
			<point x="562" y="23"/>
			<point x="332" y="-58" type="curve"/>
			<point x="344" y="-75" type="line"/>
			<point x="604" y="6"/>
			<point x="665" y="139"/>
		</contour>
		<contour>
			<point x="662" y="210" type="curve"/>
			<point x="642" y="200" type="line"/>
			<point x="687" y="66"/>
			<point x="786" y="-33"/>
			<point x="917" y="-74" type="curve"/>
			<point x="922" y="-52"/>
			<point x="943" y="-39"/>
			<point x="967" y="-34" type="curve"/>
			<point x="968" y="-23" type="line"/>
			<point x="817" y="8"/>
			<point x="708" y="92"/>
		</contour>
		<contour>
			<point x="312" y="612" type="line"/>
			<point x="41" y="612" type="line"/>
			<point x="50" y="582" type="line"/>
			<point x="312" y="582" type="line"/>
		</contour>
		<contour>
			<point x="260" y="824" type="curve"/>
			<point x="183" y="834" type="line"/>
			<point x="166" y="682"/>
			<point x="96" y="346"/>
			<point x="51" y="209" type="curve"/>
			<point x="71" y="203"/>
			<point x="90" y="204"/>
			<point x="100" y="211" type="curve"/>
			<point x="143" y="374"/>
			<point x="203" y="665"/>
			<point x="224" y="799" type="curve"/>
			<point x="248" y="801"/>
			<point x="257" y="811"/>
		</contour>
		<contour>
			<point x="99" y="303" type="curve"/>
			<point x="88" y="292" type="line"/>
			<point x="176" y="238"/>
			<point x="302" y="138"/>
			<point x="340" y="62" type="curve"/>
			<point x="407" y="28"/>
			<point x="414" y="178"/>
		</contour>
		<contour>
			<point x="285" y="612" type="line"/>
			<point x="294" y="612" type="line"/>
			<point x="280" y="354"/>
			<point x="236" y="108"/>
			<point x="34" y="-49" type="curve"/>
			<point x="46" y="-64" type="line"/>
			<point x="275" y="89"/>
			<point x="318" y="333"/>
			<point x="340" y="576" type="curve"/>
			<point x="360" y="578"/>
			<point x="368" y="581"/>
			<point x="376" y="589" type="curve"/>
			<point x="316" y="644" type="line"/>
		</contour>
	</outline>
</glyph>
<glyph name="uni5B53" format="2">
	<advance width="1000" height="1000"/>
	<unicode hex="5B53"/>
	<note>
		cid15334
	</note>
	<outline>
		<contour>
			<point x="178" y="552" type="curve"/>
			<point x="159" y="536" type="line"/>
			<point x="291" y="309"/>
			<point x="553" y="153"/>
			<point x="888" y="103" type="curve"/>
			<point x="895" y="127"/>
			<point x="921" y="136"/>
			<point x="951" y="137" type="curve"/>
			<point x="952" y="150" type="line"/>
			<point x="586" y="193"/>
			<point x="308" y="337"/>
		</contour>
		<contour>
			<point x="563" y="554" type="curve"/>
			<point x="483" y="564" type="line"/>
			<point x="483" y="14" type="line" smooth="yes"/>
			<point x="483" y="-6"/>
			<point x="476" y="-13"/>
			<point x="450" y="-13" type="curve" smooth="yes"/>
			<point x="423" y="-13"/>
			<point x="276" y="-2"/>
			<point x="276" y="-2" type="curve"/>
			<point x="276" y="-19" type="line"/>
			<point x="335" y="-25"/>
			<point x="372" y="-31"/>
			<point x="392" y="-40" type="curve" smooth="yes"/>
			<point x="409" y="-47"/>
			<point x="417" y="-59"/>
			<point x="421" y="-73" type="curve"/>
			<point x="517" y="-64"/>
			<point x="527" y="-32"/>
			<point x="527" y="10" type="curve" smooth="yes"/>
			<point x="527" y="528" type="line"/>
			<point x="551" y="531"/>
			<point x="560" y="540"/>
		</contour>
		<contour>
			<point x="755" y="753" type="line"/>
			<point x="766" y="753" type="line"/>
			<point x="710" y="693"/>
			<point x="588" y="593"/>
			<point x="488" y="542" type="curve"/>
			<point x="509" y="542" type="line"/>
			<point x="618" y="583"/>
			<point x="739" y="662"/>
			<point x="815" y="718" type="curve"/>
			<point x="837" y="719"/>
			<point x="850" y="721"/>
			<point x="859" y="728" type="curve"/>
			<point x="793" y="789" type="line"/>
		</contour>
		<contour>
			<point x="791" y="753" type="line"/>
			<point x="149" y="753" type="line"/>
			<point x="158" y="723" type="line"/>
			<point x="791" y="723" type="line"/>
		</contour>
		<contour>
			<point x="178" y="552" type="curve"/>
			<point x="211" y="602" type="line"/>
			<point x="174" y="613" type="line"/>
			<point x="160" y="557" type="line"/>
			<point x="129" y="519"/>
			<point x="81" y="468"/>
			<point x="50" y="440" type="curve"/>
			<point x="105" y="393" type="line"/>
			<point x="112" y="400"/>
			<point x="114" y="409"/>
			<point x="106" y="420" type="curve"/>
			<point x="125" y="452"/>
			<point x="158" y="513"/>
		</contour>
	</outline>
</glyph>
<glyph name="uni609E" format="2">
	<advance width="1000" height="1000"/>
	<unicode hex="609E"/>
	<note>
		cid17856
	</note>
	<outline>
		<contour>
			<point x="536" y="813" type="line"/>
			<point x="536" y="788" type="line"/>
			<point x="536" y="492" type="line"/>
			<point x="543" y="492" type="line" smooth="yes"/>
			<point x="562" y="492"/>
			<point x="580" y="502"/>
			<point x="580" y="507" type="curve" smooth="yes"/>
			<point x="580" y="759" type="line"/>
			<point x="851" y="759" type="line"/>
			<point x="851" y="788" type="line"/>
			<point x="585" y="788" type="line"/>
			<point x="536" y="813" type="line"/>
		</contour>
		<contour>
			<point x="811" y="788" type="line"/>
			<point x="821" y="788" type="line"/>
			<point x="821" y="494" type="line"/>
			<point x="827" y="494" type="line" smooth="yes"/>
			<point x="841" y="494"/>
			<point x="864" y="505"/>
			<point x="865" y="511" type="curve"/>
			<point x="865" y="749" type="line"/>
			<point x="885" y="753"/>
			<point x="901" y="761"/>
			<point x="908" y="768" type="curve"/>
			<point x="840" y="821" type="line"/>
		</contour>
		<contour>
			<point x="847" y="568" type="line"/>
			<point x="558" y="568" type="line"/>
			<point x="558" y="539" type="line"/>
			<point x="847" y="539" type="line"/>
		</contour>
		<contour>
			<point x="810" y="434" type="line"/>
			<point x="408" y="434" type="line"/>
			<point x="408" y="405" type="line"/>
			<point x="810" y="405" type="line"/>
		</contour>
		<contour>
			<point x="470" y="725" type="curve"/>
			<point x="389" y="735" type="line"/>
			<point x="389" y="339" type="line"/>
			<point x="398" y="339" type="line" smooth="yes"/>
			<point x="415" y="339"/>
			<point x="434" y="350"/>
			<point x="434" y="358" type="curve" smooth="yes"/>
			<point x="434" y="698" type="line"/>
			<point x="458" y="702"/>
			<point x="468" y="711"/>
		</contour>
		<contour>
			<point x="782" y="434" type="line"/>
			<point x="792" y="434" type="line"/>
			<point x="792" y="231" type="line"/>
			<point x="838" y="231" type="line"/>
			<point x="838" y="395" type="line"/>
			<point x="857" y="399"/>
			<point x="875" y="407"/>
			<point x="881" y="415" type="curve"/>
			<point x="814" y="467" type="line"/>
		</contour>
		<contour>
			<point x="898" y="297" type="curve"/>
			<point x="859" y="245" type="line"/>
			<point x="322" y="245" type="line"/>
			<point x="330" y="216" type="line"/>
			<point x="946" y="216" type="line" smooth="yes"/>
			<point x="959" y="216"/>
			<point x="968" y="221"/>
			<point x="971" y="232" type="curve"/>
			<point x="944" y="259"/>
			<point x="898" y="297"/>
		</contour>
		<contour>
			<point x="650" y="245" type="curve"/>
			<point x="632" y="239" type="line"/>
			<point x="660" y="147"/>
			<point x="724" y="11"/>
			<point x="923" y="-72" type="curve"/>
			<point x="930" y="-48"/>
			<point x="946" y="-45"/>
			<point x="969" y="-43" type="curve"/>
			<point x="971" y="-31" type="line"/>
			<point x="762" y="45"/>
			<point x="682" y="159"/>
		</contour>
		<contour>
			<point x="279" y="825" type="curve"/>
			<point x="199" y="834" type="line"/>
			<point x="199" y="-74" type="line"/>
			<point x="208" y="-74" type="line" smooth="yes"/>
			<point x="225" y="-74"/>
			<point x="243" y="-62"/>
			<point x="243" y="-53" type="curve" smooth="yes"/>
			<point x="243" y="797" type="line"/>
			<point x="268" y="801"/>
			<point x="276" y="811"/>
		</contour>
		<contour>
			<point x="141" y="635" type="curve"/>
			<point x="122" y="636" type="line"/>
			<point x="122" y="564"/>
			<point x="93" y="482"/>
			<point x="64" y="449" type="curve" smooth="yes"/>
			<point x="49" y="433"/>
			<point x="42" y="412"/>
			<point x="54" y="398" type="curve" smooth="yes"/>
			<point x="69" y="382"/>
			<point x="100" y="396"/>
			<point x="115" y="419" type="curve" smooth="yes"/>
			<point x="139" y="453"/>
			<point x="161" y="533"/>
		</contour>
		<contour>
			<point x="279" y="670" type="curve"/>
			<point x="265" y="665" type="line"/>
			<point x="288" y="624"/>
			<point x="312" y="557"/>
			<point x="311" y="506" type="curve"/>
			<point x="357" y="461"/>
			<point x="410" y="566"/>
		</contour>
		<contour>
			<point x="645" y="420" type="curve"/>
			<point x="597" y="420" type="line"/>
			<point x="597" y="191"/>
			<point x="590" y="50"/>
			<point x="291" y="-57" type="curve"/>
			<point x="303" y="-75" type="line"/>
			<point x="630" y="29"/>
			<point x="643" y="172"/>
		</contour>
	</outline>
</glyph>
<glyph name="uni60E6" format="2">
	<advance width="1000" height="1000"/>
	<unicode hex="60E6"/>
	<note>
		cid17969
	</note>
	<outline>
		<contour>
			<point x="280" y="669" type="curve"/>
			<point x="266" y="663" type="line"/>
			<point x="292" y="623"/>
			<point x="321" y="556"/>
			<point x="323" y="506" type="curve"/>
			<point x="370" y="462"/>
			<point x="420" y="569"/>
		</contour>
		<contour>
			<point x="135" y="642" type="curve"/>
			<point x="116" y="643" type="line"/>
			<point x="116" y="571"/>
			<point x="86" y="490"/>
			<point x="58" y="457" type="curve" smooth="yes"/>
			<point x="43" y="440"/>
			<point x="36" y="419"/>
			<point x="48" y="406" type="curve" smooth="yes"/>
			<point x="63" y="390"/>
			<point x="93" y="404"/>
			<point x="109" y="426" type="curve" smooth="yes"/>
			<point x="133" y="461"/>
			<point x="155" y="541"/>
		</contour>
		<contour>
			<point x="280" y="824" type="curve"/>
			<point x="200" y="834" type="line"/>
			<point x="200" y="-74" type="line"/>
			<point x="209" y="-74" type="line" smooth="yes"/>
			<point x="225" y="-74"/>
			<point x="244" y="-62"/>
			<point x="244" y="-53" type="curve" smooth="yes"/>
			<point x="244" y="796" type="line"/>
			<point x="269" y="800"/>
			<point x="277" y="810"/>
		</contour>
		<contour>
			<point x="475" y="295" type="line"/>
			<point x="475" y="269" type="line"/>
			<point x="475" y="-73" type="line"/>
			<point x="481" y="-73" type="line" smooth="yes"/>
			<point x="503" y="-73"/>
			<point x="518" y="-61"/>
			<point x="518" y="-56" type="curve" smooth="yes"/>
			<point x="518" y="239" type="line"/>
			<point x="855" y="239" type="line"/>
			<point x="855" y="-61" type="line"/>
			<point x="862" y="-61" type="line" smooth="yes"/>
			<point x="879" y="-61"/>
			<point x="899" y="-48"/>
			<point x="899" y="-44" type="curve" smooth="yes"/>
			<point x="899" y="236" type="line"/>
			<point x="918" y="239"/>
			<point x="929" y="245"/>
			<point x="934" y="252" type="curve"/>
			<point x="876" y="298" type="line"/>
			<point x="852" y="269" type="line"/>
			<point x="530" y="269" type="line"/>
		</contour>
		<contour>
			<point x="873" y="30" type="line"/>
			<point x="494" y="30" type="line"/>
			<point x="494" y="0" type="line"/>
			<point x="873" y="0" type="line"/>
		</contour>
		<contour>
			<point x="734" y="620" type="curve"/>
			<point x="653" y="630" type="line"/>
			<point x="653" y="255" type="line"/>
			<point x="697" y="255" type="line"/>
			<point x="697" y="592" type="line"/>
			<point x="721" y="596"/>
			<point x="732" y="606"/>
		</contour>
		<contour>
			<point x="880" y="518" type="curve"/>
			<point x="839" y="468" type="line"/>
			<point x="672" y="468" type="line"/>
			<point x="672" y="438" type="line"/>
			<point x="930" y="438" type="line" smooth="yes"/>
			<point x="944" y="438"/>
			<point x="954" y="443"/>
			<point x="956" y="454" type="curve"/>
			<point x="927" y="482"/>
			<point x="880" y="518"/>
		</contour>
		<contour>
			<point x="710" y="814" type="curve"/>
			<point x="630" y="824" type="line"/>
			<point x="630" y="680" type="line"/>
			<point x="674" y="680" type="line"/>
			<point x="674" y="787" type="line"/>
			<point x="698" y="790"/>
			<point x="708" y="800"/>
		</contour>
		<contour>
			<point x="869" y="746" type="curve"/>
			<point x="826" y="693" type="line"/>
			<point x="414" y="693" type="line"/>
			<point x="414" y="663" type="line"/>
			<point x="923" y="663" type="line" smooth="yes"/>
			<point x="937" y="663"/>
			<point x="947" y="668"/>
			<point x="950" y="679" type="curve"/>
			<point x="918" y="708"/>
			<point x="869" y="746"/>
		</contour>
		<contour>
			<point x="386" y="702" type="line"/>
			<point x="386" y="693" type="line"/>
			<point x="386" y="489" type="line" smooth="yes"/>
			<point x="386" y="306"/>
			<point x="378" y="105"/>
			<point x="290" y="-65" type="curve"/>
			<point x="308" y="-76" type="line"/>
			<point x="423" y="95"/>
			<point x="430" y="327"/>
			<point x="430" y="490" type="curve" smooth="yes"/>
			<point x="430" y="693" type="line"/>
			<point x="440" y="693" type="line"/>
			<point x="386" y="721" type="line"/>
		</contour>
	</outline>
</glyph>
<glyph name="uni6757" format="2">
	<advance width="1000" height="1000"/>
	<unicode hex="6757"/>
	<note>
		cid20769
	</note>
	<outline>
		<contour>
			<point x="484" y="258" type="curve"/>
			<point x="484" y="273" type="line"/>
			<point x="431" y="273" type="line"/>
			<point x="344" y="155"/>
			<point x="205" y="47"/>
			<point x="48" y="-25" type="curve"/>
			<point x="57" y="-42" type="line"/>
			<point x="235" y="26"/>
			<point x="387" y="129"/>
		</contour>
		<contour>
			<point x="527" y="278" type="curve"/>
			<point x="510" y="268" type="line"/>
			<point x="591" y="138"/>
			<point x="743" y="19"/>
			<point x="905" y="-41" type="curve"/>
			<point x="913" y="-17"/>
			<point x="932" y="-2"/>
			<point x="953" y="0" type="curve"/>
			<point x="954" y="11" type="line"/>
			<point x="787" y="56"/>
			<point x="622" y="159"/>
		</contour>
		<contour>
			<point x="867" y="347" type="curve"/>
			<point x="822" y="293" type="line"/>
			<point x="59" y="293" type="line"/>
			<point x="68" y="263" type="line"/>
			<point x="922" y="263" type="line" smooth="yes"/>
			<point x="936" y="263"/>
			<point x="946" y="268"/>
			<point x="949" y="279" type="curve"/>
			<point x="917" y="309"/>
			<point x="867" y="347"/>
		</contour>
		<contour>
			<point x="556" y="409" type="curve"/>
			<point x="476" y="419" type="line"/>
			<point x="476" y="-72" type="line"/>
			<point x="485" y="-72" type="line" smooth="yes"/>
			<point x="501" y="-72"/>
			<point x="520" y="-60"/>
			<point x="520" y="-52" type="curve" smooth="yes"/>
			<point x="520" y="382" type="line"/>
			<point x="545" y="385"/>
			<point x="553" y="395"/>
		</contour>
		<contour>
			<point x="874" y="768" type="curve"/>
			<point x="832" y="717" type="line"/>
			<point x="49" y="717" type="line"/>
			<point x="58" y="687" type="line"/>
			<point x="925" y="687" type="line" smooth="yes"/>
			<point x="939" y="687"/>
			<point x="948" y="692"/>
			<point x="951" y="703" type="curve"/>
			<point x="921" y="732"/>
			<point x="874" y="768"/>
		</contour>
		<contour>
			<point x="558" y="826" type="curve"/>
			<point x="477" y="835" type="line"/>
			<point x="477" y="704" type="line"/>
			<point x="521" y="704" type="line"/>
			<point x="521" y="799" type="line"/>
			<point x="545" y="802"/>
			<point x="556" y="812"/>
		</contour>
		<contour>
			<point x="247" y="712" type="curve"/>
			<point x="203" y="712" type="line"/>
			<point x="203" y="524" type="line" smooth="yes"/>
			<point x="203" y="473"/>
			<point x="221" y="466"/>
			<point x="332" y="465" type="curve" smooth="yes"/>
			<point x="549" y="464" type="line" smooth="yes"/>
			<point x="825" y="463"/>
			<point x="860" y="469"/>
			<point x="860" y="495" type="curve" smooth="yes"/>
			<point x="860" y="505"/>
			<point x="852" y="508"/>
			<point x="828" y="514" type="curve" smooth="yes"/>
			<point x="824" y="515" type="line"/>
			<point x="815" y="515" type="line"/>
			<point x="807" y="512"/>
			<point x="797" y="510"/>
			<point x="788" y="509" type="curve" smooth="yes"/>
			<point x="780" y="508"/>
			<point x="770" y="507"/>
			<point x="758" y="506" type="curve" smooth="yes"/>
			<point x="728" y="504"/>
			<point x="645" y="504"/>
			<point x="551" y="504" type="curve" smooth="yes"/>
			<point x="330" y="504" type="line" smooth="yes"/>
			<point x="251" y="504"/>
			<point x="247" y="508"/>
			<point x="247" y="527" type="curve" smooth="yes"/>
			<point x="247" y="688" type="line" smooth="yes"/>
			<point x="247" y="695"/>
			<point x="247" y="704"/>
		</contour>
	</outline>
</glyph>
<glyph name="uni6AE5" format="2">
	<advance width="1000" height="1000"/>
	<unicode hex="6AE5"/>
	<note>
		cid22321
	</note>
	<outline>
		<contour>
			<point x="217" y="429" type="curve"/>
			<point x="204" y="422" type="line"/>
			<point x="240" y="384"/>
			<point x="284" y="318"/>
			<point x="295" y="270" type="curve"/>
			<point x="343" y="233"/>
			<point x="381" y="339"/>
		</contour>
		<contour>
			<point x="253" y="829" type="curve"/>
			<point x="174" y="838" type="line"/>
			<point x="174" y="-71" type="line"/>
			<point x="184" y="-71" type="line" smooth="yes"/>
			<point x="199" y="-71"/>
			<point x="218" y="-59"/>
			<point x="218" y="-51" type="curve" smooth="yes"/>
			<point x="218" y="801" type="line"/>
			<point x="243" y="805"/>
			<point x="251" y="814"/>
		</contour>
		<contour>
			<point x="214" y="588" type="curve"/>
			<point x="214" y="604" type="line"/>
			<point x="165" y="604" type="line"/>
			<point x="144" y="450"/>
			<point x="107" y="293"/>
			<point x="43" y="168" type="curve"/>
			<point x="59" y="154" type="line"/>
			<point x="140" y="278"/>
			<point x="188" y="428"/>
		</contour>
		<contour>
			<point x="274" y="655" type="curve"/>
			<point x="236" y="604" type="line"/>
			<point x="45" y="604" type="line"/>
			<point x="53" y="574" type="line"/>
			<point x="317" y="574" type="line" smooth="yes"/>
			<point x="331" y="574"/>
			<point x="340" y="579"/>
			<point x="343" y="590" type="curve"/>
			<point x="317" y="618"/>
			<point x="274" y="655"/>
		</contour>
		<contour>
			<point x="881" y="768" type="curve"/>
			<point x="837" y="715" type="line"/>
			<point x="388" y="715" type="line"/>
			<point x="388" y="685" type="line"/>
			<point x="935" y="685" type="line" smooth="yes"/>
			<point x="949" y="685"/>
			<point x="957" y="690"/>
			<point x="960" y="701" type="curve"/>
			<point x="930" y="730"/>
			<point x="881" y="768"/>
		</contour>
		<contour>
			<point x="363" y="743" type="line"/>
			<point x="363" y="725" type="line"/>
			<point x="363" y="492" type="line" smooth="yes"/>
			<point x="363" y="308"/>
			<point x="355" y="105"/>
			<point x="267" y="-64" type="curve"/>
			<point x="285" y="-75" type="line"/>
			<point x="400" y="94"/>
			<point x="407" y="328"/>
			<point x="407" y="493" type="curve" smooth="yes"/>
			<point x="407" y="715" type="line"/>
			<point x="417" y="715" type="line"/>
		</contour>
		<contour>
			<point x="608" y="380" type="line"/>
			<point x="617" y="380" type="line"/>
			<point x="617" y="194" type="line"/>
			<point x="623" y="194" type="line" smooth="yes"/>
			<point x="637" y="194"/>
			<point x="657" y="205"/>
			<point x="658" y="210" type="curve"/>
			<point x="658" y="344" type="line"/>
			<point x="676" y="347"/>
			<point x="692" y="354"/>
			<point x="698" y="361" type="curve"/>
			<point x="635" y="409" type="line"/>
		</contour>
		<contour>
			<point x="448" y="403" type="line"/>
			<point x="448" y="185" type="line"/>
			<point x="455" y="185" type="line" smooth="yes"/>
			<point x="472" y="185"/>
			<point x="489" y="195"/>
			<point x="489" y="199" type="curve" smooth="yes"/>
			<point x="489" y="350" type="line"/>
			<point x="639" y="350" type="line"/>
			<point x="639" y="380" type="line"/>
			<point x="494" y="380" type="line"/>
		</contour>
		<contour>
			<point x="682" y="159" type="curve"/>
			<point x="602" y="180" type="line"/>
			<point x="595" y="133"/>
			<point x="583" y="67"/>
			<point x="573" y="24" type="curve"/>
			<point x="594" y="20" type="line"/>
			<point x="613" y="57"/>
			<point x="634" y="103"/>
			<point x="647" y="140" type="curve"/>
			<point x="668" y="138"/>
			<point x="679" y="147"/>
		</contour>
		<contour>
			<point x="720" y="389" type="curve"/>
			<point x="705" y="384" type="line"/>
			<point x="725" y="335"/>
			<point x="748" y="257"/>
			<point x="746" y="199" type="curve"/>
			<point x="788" y="155"/>
			<point x="835" y="260"/>
		</contour>
		<contour>
			<point x="456" y="169" type="curve"/>
			<point x="442" y="164" type="line"/>
			<point x="458" y="132"/>
			<point x="478" y="79"/>
			<point x="480" y="41" type="curve"/>
			<point x="518" y="3"/>
			<point x="563" y="83"/>
		</contour>
		<contour>
			<point x="385" y="-2" type="curve"/>
			<point x="419" y="-63" type="line"/>
			<point x="427" y="-61"/>
			<point x="435" y="-54"/>
			<point x="439" y="-41" type="curve"/>
			<point x="567" y="-7"/>
			<point x="663" y="23"/>
			<point x="732" y="44" type="curve"/>
			<point x="729" y="61" type="line"/>
			<point x="586" y="32"/>
			<point x="446" y="6"/>
		</contour>
		<contour>
			<point x="906" y="655" type="curve"/>
			<point x="825" y="665" type="line"/>
			<point x="825" y="11" type="line" smooth="yes"/>
			<point x="825" y="-3"/>
			<point x="821" y="-8"/>
			<point x="806" y="-8" type="curve" smooth="yes"/>
			<point x="791" y="-8"/>
			<point x="718" y="-2"/>
			<point x="718" y="-2" type="curve"/>
			<point x="718" y="-19" type="line"/>
			<point x="749" y="-23"/>
			<point x="769" y="-27"/>
			<point x="781" y="-36" type="curve" smooth="yes"/>
			<point x="791" y="-44"/>
			<point x="795" y="-58"/>
			<point x="796" y="-71" type="curve"/>
			<point x="862" y="-64"/>
			<point x="869" y="-37"/>
			<point x="869" y="6" type="curve" smooth="yes"/>
			<point x="869" y="629" type="line"/>
			<point x="893" y="632"/>
			<point x="903" y="641"/>
		</contour>
		<contour>
			<point x="634" y="221" type="line"/>
			<point x="634" y="251" type="line"/>
			<point x="471" y="251" type="line"/>
			<point x="471" y="221" type="line"/>
		</contour>
		<contour>
			<point x="906" y="555" type="curve"/>
			<point x="875" y="500" type="line"/>
			<point x="684" y="500" type="line"/>
			<point x="692" y="470" type="line"/>
			<point x="936" y="470" type="line" smooth="yes"/>
			<point x="949" y="470"/>
			<point x="958" y="475"/>
			<point x="961" y="486" type="curve"/>
			<point x="942" y="514"/>
			<point x="906" y="555"/>
		</contour>
		<contour>
			<point x="634" y="506" type="curve"/>
			<point x="601" y="466" type="line"/>
			<point x="434" y="466" type="line"/>
			<point x="442" y="436" type="line"/>
			<point x="670" y="436" type="line" smooth="yes"/>
			<point x="684" y="436"/>
			<point x="693" y="441"/>
			<point x="695" y="452" type="curve"/>
			<point x="671" y="476"/>
			<point x="634" y="506"/>
		</contour>
		<contour>
			<point x="646" y="621" type="curve"/>
			<point x="611" y="578" type="line"/>
			<point x="420" y="578" type="line"/>
			<point x="428" y="548" type="line"/>
			<point x="686" y="548" type="line" smooth="yes"/>
			<point x="700" y="548"/>
			<point x="709" y="553"/>
			<point x="712" y="564" type="curve"/>
			<point x="686" y="589"/>
			<point x="646" y="621"/>
		</contour>
		<contour>
			<point x="612" y="656" type="curve"/>
			<point x="537" y="665" type="line"/>
			<point x="537" y="453" type="line"/>
			<point x="578" y="453" type="line"/>
			<point x="578" y="631" type="line"/>
			<point x="600" y="634"/>
			<point x="610" y="643"/>
		</contour>
		<contour>
			<point x="692" y="824" type="curve"/>
			<point x="611" y="833" type="line"/>
			<point x="611" y="695" type="line"/>
			<point x="656" y="695" type="line"/>
			<point x="656" y="797" type="line"/>
			<point x="679" y="800"/>
			<point x="690" y="810"/>
		</contour>
	</outline>
</glyph>
<glyph name="uni6C26" format="2">
	<advance width="1000" height="1000"/>
	<unicode hex="6C26"/>
	<note>
		cid22896
	</note>
	<outline>
		<contour>
			<point x="725" y="535" type="line"/>
			<point x="734" y="535" type="line"/>
			<point x="737" y="297"/>
			<point x="757" y="46"/>
			<point x="873" y="-42" type="curve"/>
			<point x="903" y="-69"/>
			<point x="939" y="-84"/>
			<point x="954" y="-66" type="curve" smooth="yes"/>
			<point x="961" y="-57"/>
			<point x="956" y="-46"/>
			<point x="938" y="-24" type="curve"/>
			<point x="951" y="103" type="line"/>
			<point x="938" y="105" type="line"/>
			<point x="930" y="73"/>
			<point x="920" y="40"/>
			<point x="910" y="10" type="curve" smooth="yes"/>
			<point x="906" y="-2"/>
			<point x="902" y="-3"/>
			<point x="892" y="5" type="curve" smooth="yes"/>
			<point x="801" y="73"/>
			<point x="778" y="315"/>
			<point x="780" y="496" type="curve"/>
			<point x="801" y="499"/>
			<point x="815" y="504"/>
			<point x="821" y="511" type="curve"/>
			<point x="756" y="567" type="line"/>
		</contour>
		<contour>
			<point x="782" y="535" type="line"/>
			<point x="140" y="535" type="line"/>
			<point x="149" y="505" type="line"/>
			<point x="782" y="505" type="line"/>
		</contour>
		<contour>
			<point x="779" y="686" type="curve"/>
			<point x="738" y="634" type="line"/>
			<point x="247" y="634" type="line"/>
			<point x="255" y="605" type="line"/>
			<point x="829" y="605" type="line" smooth="yes"/>
			<point x="843" y="605"/>
			<point x="853" y="610"/>
			<point x="856" y="621" type="curve"/>
			<point x="827" y="648"/>
			<point x="779" y="686"/>
		</contour>
		<contour>
			<point x="832" y="787" type="curve"/>
			<point x="789" y="734" type="line"/>
			<point x="243" y="734" type="line"/>
			<point x="229" y="704" type="line"/>
			<point x="887" y="704" type="line" smooth="yes"/>
			<point x="900" y="704"/>
			<point x="910" y="709"/>
			<point x="912" y="720" type="curve"/>
			<point x="881" y="751"/>
			<point x="832" y="787"/>
		</contour>
		<contour>
			<point x="357" y="804" type="curve"/>
			<point x="280" y="833" type="line"/>
			<point x="237" y="725"/>
			<point x="149" y="596"/>
			<point x="59" y="523" type="curve"/>
			<point x="73" y="510" type="line"/>
			<point x="175" y="578"/>
			<point x="271" y="697"/>
			<point x="321" y="795" type="curve"/>
			<point x="344" y="791"/>
			<point x="352" y="794"/>
		</contour>
		<contour>
			<point x="637" y="444" type="curve"/>
			<point x="594" y="391" type="line"/>
			<point x="90" y="391" type="line"/>
			<point x="98" y="361" type="line"/>
			<point x="691" y="361" type="line" smooth="yes"/>
			<point x="704" y="361"/>
			<point x="713" y="366"/>
			<point x="716" y="377" type="curve"/>
			<point x="686" y="406"/>
			<point x="637" y="444"/>
		</contour>
		<contour>
			<point x="175" y="304" type="curve"/>
			<point x="166" y="293" type="line"/>
			<point x="212" y="270"/>
			<point x="267" y="223"/>
			<point x="285" y="183" type="curve"/>
			<point x="340" y="157"/>
			<point x="359" y="271"/>
		</contour>
		<contour>
			<point x="562" y="283" type="curve"/>
			<point x="493" y="322" type="line"/>
			<point x="420" y="224"/>
			<point x="264" y="123"/>
			<point x="109" y="71" type="curve"/>
			<point x="118" y="55" type="line"/>
			<point x="285" y="98"/>
			<point x="445" y="188"/>
			<point x="524" y="276" type="curve"/>
			<point x="547" y="270"/>
			<point x="555" y="273"/>
		</contour>
		<contour>
			<point x="664" y="198" type="curve"/>
			<point x="597" y="239" type="line"/>
			<point x="499" y="105"/>
			<point x="285" y="-9"/>
			<point x="60" y="-58" type="curve"/>
			<point x="66" y="-75" type="line"/>
			<point x="305" y="-36"/>
			<point x="522" y="71"/>
			<point x="626" y="193" type="curve"/>
			<point x="647" y="186"/>
			<point x="656" y="189"/>
		</contour>
		<contour>
			<point x="467" y="87" type="curve"/>
			<point x="459" y="74" type="line"/>
			<point x="550" y="37"/>
			<point x="646" y="-20"/>
			<point x="708" y="-72" type="curve"/>
			<point x="771" y="-88"/>
			<point x="770" y="24"/>
		</contour>
		<contour>
			<point x="453" y="471" type="curve"/>
			<point x="376" y="480" type="line"/>
			<point x="376" y="378" type="line"/>
			<point x="421" y="378" type="line"/>
			<point x="421" y="445" type="line"/>
			<point x="442" y="449"/>
			<point x="452" y="458"/>
		</contour>
		<contour>
			<point x="412" y="347" type="curve"/>
			<point x="343" y="382" type="line"/>
			<point x="320" y="339"/>
			<point x="290" y="292"/>
			<point x="265" y="261" type="curve"/>
			<point x="279" y="249" type="line"/>
			<point x="315" y="275"/>
			<point x="353" y="309"/>
			<point x="379" y="338" type="curve"/>
			<point x="393" y="333"/>
			<point x="406" y="336"/>
		</contour>
	</outline>
</glyph>
<glyph name="uni6C61" format="2">
	<advance width="1000" height="1000"/>
	<unicode hex="6C61"/>
	<note>
		cid22980
	</note>
	<outline>
		<contour>
			<point x="130" y="819" type="curve"/>
			<point x="120" y="809" type="line"/>
			<point x="167" y="781"/>
			<point x="224" y="728"/>
			<point x="239" y="684" type="curve"/>
			<point x="300" y="652"/>
			<point x="325" y="778"/>
		</contour>
		<contour>
			<point x="52" y="597" type="curve"/>
			<point x="42" y="586" type="line"/>
			<point x="89" y="563"/>
			<point x="145" y="515"/>
			<point x="163" y="475" type="curve"/>
			<point x="222" y="445"/>
			<point x="242" y="567"/>
		</contour>
		<contour>
			<point x="106" y="200" type="curve" smooth="yes"/>
			<point x="96" y="200"/>
			<point x="63" y="200"/>
			<point x="63" y="200" type="curve"/>
			<point x="63" y="177" type="line"/>
			<point x="84" y="175"/>
			<point x="98" y="173"/>
			<point x="110" y="164" type="curve" smooth="yes"/>
			<point x="131" y="150"/>
			<point x="138" y="77"/>
			<point x="126" y="-24" type="curve"/>
			<point x="126" y="-53"/>
			<point x="133" y="-73"/>
			<point x="149" y="-73" type="curve" smooth="yes"/>
			<point x="176" y="-73"/>
			<point x="190" y="-50"/>
			<point x="192" y="-10" type="curve" smooth="yes"/>
			<point x="196" y="69"/>
			<point x="172" y="119"/>
			<point x="172" y="160" type="curve" smooth="yes"/>
			<point x="172" y="184"/>
			<point x="179" y="214"/>
			<point x="188" y="243" type="curve" smooth="yes"/>
			<point x="202" y="289"/>
			<point x="292" y="525"/>
			<point x="336" y="651" type="curve"/>
			<point x="316" y="656" type="line"/>
			<point x="145" y="255"/>
			<point x="145" y="255"/>
			<point x="129" y="221" type="curve" smooth="yes"/>
			<point x="120" y="201"/>
			<point x="117" y="200"/>
		</contour>
		<contour>
			<point x="821" y="806" type="curve"/>
			<point x="781" y="756" type="line"/>
			<point x="386" y="756" type="line"/>
			<point x="394" y="726" type="line"/>
			<point x="872" y="726" type="line" smooth="yes"/>
			<point x="885" y="726"/>
			<point x="894" y="731"/>
			<point x="897" y="742" type="curve"/>
			<point x="868" y="770"/>
			<point x="821" y="806"/>
		</contour>
		<contour>
			<point x="876" y="583" type="curve"/>
			<point x="835" y="533" type="line"/>
			<point x="329" y="533" type="line"/>
			<point x="337" y="503" type="line"/>
			<point x="926" y="503" type="line" smooth="yes"/>
			<point x="940" y="503"/>
			<point x="949" y="508"/>
			<point x="952" y="519" type="curve"/>
			<point x="923" y="547"/>
			<point x="876" y="583"/>
		</contour>
		<contour>
			<point x="533" y="507" type="curve"/>
			<point x="485" y="508" type="line"/>
			<point x="465" y="425"/>
			<point x="424" y="308"/>
			<point x="392" y="245" type="curve"/>
			<point x="411" y="238"/>
			<point x="432" y="237"/>
			<point x="442" y="244" type="curve"/>
			<point x="467" y="303"/>
			<point x="507" y="419"/>
		</contour>
		<contour>
			<point x="833" y="303" type="line"/>
			<point x="833" y="333" type="line"/>
			<point x="454" y="333" type="line"/>
			<point x="447" y="303" type="line"/>
		</contour>
		<contour>
			<point x="896" y="312" type="curve"/>
			<point x="829" y="367" type="line"/>
			<point x="797" y="333" type="line"/>
			<point x="807" y="333" type="line"/>
			<point x="796" y="168"/>
			<point x="758" y="31"/>
			<point x="723" y="4" type="curve" smooth="yes"/>
			<point x="711" y="-5"/>
			<point x="701" y="-8"/>
			<point x="680" y="-8" type="curve" smooth="yes"/>
			<point x="659" y="-8"/>
			<point x="582" y="0"/>
			<point x="540" y="4" type="curve"/>
			<point x="539" y="-15" type="line"/>
			<point x="576" y="-20"/>
			<point x="618" y="-29"/>
			<point x="632" y="-38" type="curve" smooth="yes"/>
			<point x="646" y="-46"/>
			<point x="651" y="-61"/>
			<point x="651" y="-76" type="curve"/>
			<point x="689" y="-76"/>
			<point x="727" y="-65"/>
			<point x="753" y="-43" type="curve" smooth="yes"/>
			<point x="799" y="-4"/>
			<point x="840" y="126"/>
			<point x="856" y="298" type="curve"/>
			<point x="876" y="300"/>
			<point x="889" y="305"/>
		</contour>
	</outline>
</glyph>
<glyph name="uni752D" format="2">
	<advance width="1000" height="1000"/>
	<unicode hex="752D"/>
	<note>
		cid26950
	</note>
	<outline>
		<contour>
			<point x="596" y="766" type="curve"/>
			<point x="596" y="780" type="line"/>
			<point x="544" y="780" type="line"/>
			<point x="438" y="685"/>
			<point x="246" y="585"/>
			<point x="47" y="521" type="curve"/>
			<point x="56" y="503" type="line"/>
			<point x="269" y="558"/>
			<point x="478" y="660"/>
		</contour>
		<contour>
			<point x="549" y="698" type="curve"/>
			<point x="500" y="716" type="line"/>
			<point x="475" y="684" type="line"/>
			<point x="475" y="497" type="line"/>
			<point x="483" y="497" type="line" smooth="yes"/>
			<point x="499" y="497"/>
			<point x="518" y="509"/>
			<point x="519" y="513" type="curve"/>
			<point x="519" y="680" type="line"/>
			<point x="535" y="683"/>
			<point x="546" y="689"/>
		</contour>
		<contour>
			<point x="852" y="832" type="curve"/>
			<point x="812" y="782" type="line"/>
			<point x="76" y="782" type="line"/>
			<point x="85" y="752" type="line"/>
			<point x="902" y="752" type="line" smooth="yes"/>
			<point x="916" y="752"/>
			<point x="926" y="757"/>
			<point x="928" y="768" type="curve"/>
			<point x="899" y="796"/>
			<point x="852" y="832"/>
		</contour>
		<contour>
			<point x="580" y="680" type="curve"/>
			<point x="576" y="662" type="line"/>
			<point x="727" y="629"/>
			<point x="853" y="569"/>
			<point x="908" y="525" type="curve"/>
			<point x="970" y="509"/>
			<point x="975" y="636"/>
		</contour>
		<contour>
			<point x="201" y="-59" type="curve" smooth="yes"/>
			<point x="201" y="448" type="line"/>
			<point x="815" y="448" type="line"/>
			<point x="815" y="478" type="line"/>
			<point x="213" y="478" type="line"/>
			<point x="157" y="505" type="line"/>
			<point x="157" y="-77" type="line"/>
			<point x="163" y="-77" type="line" smooth="yes"/>
			<point x="185" y="-77"/>
			<point x="201" y="-64"/>
		</contour>
		<contour>
			<point x="885" y="457" type="curve"/>
			<point x="810" y="513" type="line"/>
			<point x="782" y="478" type="line"/>
			<point x="793" y="478" type="line"/>
			<point x="793" y="11" type="line" smooth="yes"/>
			<point x="793" y="-5"/>
			<point x="788" y="-10"/>
			<point x="769" y="-10" type="curve" smooth="yes"/>
			<point x="749" y="-10"/>
			<point x="651" y="-2"/>
			<point x="651" y="-2" type="curve"/>
			<point x="651" y="-19" type="line"/>
			<point x="693" y="-24"/>
			<point x="718" y="-30"/>
			<point x="733" y="-38" type="curve" smooth="yes"/>
			<point x="746" y="-45"/>
			<point x="751" y="-58"/>
			<point x="754" y="-71" type="curve"/>
			<point x="829" y="-63"/>
			<point x="837" y="-36"/>
			<point x="837" y="5" type="curve" smooth="yes"/>
			<point x="837" y="435" type="line"/>
			<point x="859" y="439"/>
			<point x="877" y="448"/>
		</contour>
		<contour>
			<point x="519" y="-51" type="curve" smooth="yes"/>
			<point x="519" y="463" type="line"/>
			<point x="475" y="463" type="line"/>
			<point x="475" y="-68" type="line"/>
			<point x="481" y="-68" type="line" smooth="yes"/>
			<point x="503" y="-68"/>
			<point x="519" y="-55"/>
		</contour>
		<contour>
			<point x="815" y="285" type="line"/>
			<point x="815" y="315" type="line"/>
			<point x="179" y="315" type="line"/>
			<point x="179" y="285" type="line"/>
		</contour>
		<contour>
			<point x="815" y="116" type="line"/>
			<point x="815" y="146" type="line"/>
			<point x="179" y="146" type="line"/>
			<point x="179" y="116" type="line"/>
		</contour>
	</outline>
</glyph>
<glyph name="uni7CB5" format="2">
	<advance width="1000" height="1000"/>
	<unicode hex="7CB5"/>
	<note>
		cid30494
	</note>
	<outline>
		<contour>
			<point x="520" y="377" type="curve" smooth="yes"/>
			<point x="520" y="664" type="line"/>
			<point x="476" y="658" type="line"/>
			<point x="476" y="361" type="line"/>
			<point x="483" y="361" type="line" smooth="yes"/>
			<point x="504" y="361"/>
			<point x="520" y="372"/>
		</contour>
		<contour>
			<point x="701" y="666" type="curve"/>
			<point x="651" y="709" type="line"/>
			<point x="563" y="683"/>
			<point x="421" y="660"/>
			<point x="283" y="649" type="curve"/>
			<point x="287" y="629" type="line"/>
			<point x="439" y="633"/>
			<point x="583" y="647"/>
			<point x="660" y="665" type="curve"/>
			<point x="679" y="657"/>
			<point x="694" y="658"/>
		</contour>
		<contour>
			<point x="687" y="614" type="curve"/>
			<point x="624" y="650" type="line"/>
			<point x="614" y="623"/>
			<point x="587" y="573"/>
			<point x="566" y="540" type="curve"/>
			<point x="578" y="533" type="line"/>
			<point x="606" y="556"/>
			<point x="636" y="583"/>
			<point x="653" y="602" type="curve"/>
			<point x="671" y="597"/>
			<point x="685" y="607"/>
		</contour>
		<contour>
			<point x="344" y="626" type="curve"/>
			<point x="333" y="617" type="line"/>
			<point x="361" y="595"/>
			<point x="384" y="565"/>
			<point x="391" y="538" type="curve"/>
			<point x="432" y="510"/>
			<point x="463" y="591"/>
		</contour>
		<contour>
			<point x="507" y="489" type="curve"/>
			<point x="499" y="475" type="line"/>
			<point x="565" y="452"/>
			<point x="656" y="402"/>
			<point x="693" y="364" type="curve"/>
			<point x="748" y="347"/>
			<point x="744" y="453"/>
		</contour>
		<contour>
			<point x="498" y="510" type="curve"/>
			<point x="498" y="526" type="line"/>
			<point x="453" y="526" type="line"/>
			<point x="409" y="466"/>
			<point x="340" y="413"/>
			<point x="263" y="378" type="curve"/>
			<point x="274" y="360" type="line"/>
			<point x="366" y="390"/>
			<point x="446" y="444"/>
		</contour>
		<contour>
			<point x="684" y="562" type="curve"/>
			<point x="652" y="527" type="line"/>
			<point x="258" y="527" type="line"/>
			<point x="266" y="497" type="line"/>
			<point x="719" y="497" type="line" smooth="yes"/>
			<point x="732" y="497"/>
			<point x="741" y="502"/>
			<point x="744" y="513" type="curve"/>
			<point x="720" y="536"/>
			<point x="684" y="562"/>
		</contour>
		<contour>
			<point x="555" y="822" type="curve"/>
			<point x="474" y="840" type="line"/>
			<point x="466" y="811"/>
			<point x="452" y="763"/>
			<point x="443" y="738" type="curve"/>
			<point x="472" y="738" type="line"/>
			<point x="487" y="758"/>
			<point x="505" y="782"/>
			<point x="518" y="801" type="curve"/>
			<point x="539" y="801"/>
			<point x="551" y="809"/>
		</contour>
		<contour>
			<point x="857" y="729" type="curve"/>
			<point x="789" y="782" type="line"/>
			<point x="759" y="749" type="line"/>
			<point x="769" y="749" type="line"/>
			<point x="769" y="276" type="line"/>
			<point x="775" y="276" type="line" smooth="yes"/>
			<point x="790" y="276"/>
			<point x="812" y="289"/>
			<point x="813" y="296" type="curve"/>
			<point x="813" y="710" type="line"/>
			<point x="833" y="714"/>
			<point x="850" y="721"/>
		</contour>
		<contour>
			<point x="234" y="286" type="curve" smooth="yes"/>
			<point x="234" y="719" type="line"/>
			<point x="799" y="719" type="line"/>
			<point x="799" y="749" type="line"/>
			<point x="239" y="749" type="line"/>
			<point x="190" y="775" type="line"/>
			<point x="190" y="269" type="line"/>
			<point x="198" y="269" type="line" smooth="yes"/>
			<point x="217" y="269"/>
			<point x="234" y="280"/>
		</contour>
		<contour>
			<point x="791" y="311" type="line"/>
			<point x="791" y="341" type="line"/>
			<point x="210" y="341" type="line"/>
			<point x="210" y="311" type="line"/>
		</contour>
		<contour>
			<point x="766" y="112" type="line"/>
			<point x="766" y="142" type="line"/>
			<point x="274" y="142" type="line"/>
			<point x="274" y="112" type="line"/>
		</contour>
		<contour>
			<point x="823" y="122" type="curve"/>
			<point x="762" y="173" type="line"/>
			<point x="734" y="142" type="line"/>
			<point x="744" y="142" type="line"/>
			<point x="733" y="63"/>
			<point x="711" y="8"/>
			<point x="691" y="-6" type="curve" smooth="yes"/>
			<point x="682" y="-12"/>
			<point x="672" y="-14"/>
			<point x="654" y="-14" type="curve" smooth="yes"/>
			<point x="633" y="-14"/>
			<point x="554" y="-7"/>
			<point x="512" y="-3" type="curve"/>
			<point x="511" y="-22" type="line"/>
			<point x="549" y="-26"/>
			<point x="590" y="-33"/>
			<point x="603" y="-41" type="curve" smooth="yes"/>
			<point x="617" y="-48"/>
			<point x="621" y="-62"/>
			<point x="621" y="-75" type="curve"/>
			<point x="654" y="-75"/>
			<point x="690" y="-66"/>
			<point x="711" y="-52" type="curve" smooth="yes"/>
			<point x="745" y="-30"/>
			<point x="772" y="30"/>
			<point x="783" y="109" type="curve"/>
			<point x="804" y="111"/>
			<point x="816" y="115"/>
		</contour>
		<contour>
			<point x="880" y="300" type="curve"/>
			<point x="839" y="250" type="line"/>
			<point x="49" y="250" type="line"/>
			<point x="58" y="220" type="line"/>
			<point x="929" y="220" type="line" smooth="yes"/>
			<point x="943" y="220"/>
			<point x="952" y="225"/>
			<point x="954" y="236" type="curve"/>
			<point x="926" y="264"/>
			<point x="880" y="300"/>
		</contour>
		<contour>
			<point x="342" y="250" type="curve"/>
			<point x="295" y="250" type="line"/>
			<point x="281" y="203"/>
			<point x="240" y="103"/>
			<point x="210" y="59" type="curve"/>
			<point x="228" y="51"/>
			<point x="247" y="49"/>
			<point x="257" y="55" type="curve"/>
			<point x="280" y="100"/>
			<point x="324" y="197"/>
		</contour>
	</outline>
</glyph>
<glyph name="uni8921" format="2">
	<advance width="1000" height="1000"/>
	<unicode hex="8921"/>
	<note>
		cid37038
	</note>
	<outline>
		<contour>
			<point x="599" y="819" type="curve"/>
			<point x="522" y="827" type="line"/>
			<point x="522" y="710" type="line"/>
			<point x="392" y="710" type="line"/>
			<point x="399" y="680" type="line"/>
			<point x="522" y="680" type="line"/>
			<point x="522" y="595" type="line"/>
			<point x="529" y="595" type="line" smooth="yes"/>
			<point x="546" y="595"/>
			<point x="566" y="603"/>
			<point x="566" y="609" type="curve" smooth="yes"/>
			<point x="566" y="680" type="line"/>
			<point x="737" y="680" type="line"/>
			<point x="737" y="597" type="line"/>
			<point x="745" y="597" type="line" smooth="yes"/>
			<point x="768" y="597"/>
			<point x="781" y="609"/>
			<point x="781" y="613" type="curve" smooth="yes"/>
			<point x="781" y="680" type="line"/>
			<point x="914" y="680" type="line" smooth="yes"/>
			<point x="928" y="680"/>
			<point x="937" y="685"/>
			<point x="939" y="696" type="curve"/>
			<point x="913" y="720"/>
			<point x="871" y="753"/>
			<point x="871" y="753" type="curve"/>
			<point x="835" y="710" type="line"/>
			<point x="781" y="710" type="line"/>
			<point x="781" y="791" type="line"/>
			<point x="804" y="794"/>
			<point x="814" y="805"/>
			<point x="814" y="819" type="curve"/>
			<point x="737" y="827" type="line"/>
			<point x="737" y="710" type="line"/>
			<point x="566" y="710" type="line"/>
			<point x="566" y="791" type="line"/>
			<point x="588" y="794"/>
			<point x="598" y="805"/>
		</contour>
		<contour>
			<point x="664" y="576" type="curve"/>
			<point x="717" y="463"/>
			<point x="813" y="358"/>
			<point x="913" y="281" type="curve"/>
			<point x="919" y="298"/>
			<point x="931" y="308"/>
			<point x="949" y="313" type="curve"/>
			<point x="951" y="326" type="line"/>
			<point x="844" y="388"/>
			<point x="744" y="488"/>
			<point x="680" y="587" type="curve"/>
			<point x="700" y="588"/>
			<point x="709" y="593"/>
			<point x="711" y="601" type="curve"/>
			<point x="624" y="618" type="line"/>
			<point x="583" y="507"/>
			<point x="474" y="367"/>
			<point x="376" y="291" type="curve"/>
			<point x="385" y="275" type="line"/>
			<point x="492" y="348"/>
			<point x="605" y="463"/>
		</contour>
		<contour>
			<point x="739" y="397" type="curve"/>
			<point x="703" y="354" type="line"/>
			<point x="508" y="354" type="line"/>
			<point x="516" y="325" type="line"/>
			<point x="779" y="325" type="line" smooth="yes"/>
			<point x="793" y="325"/>
			<point x="802" y="329"/>
			<point x="805" y="340" type="curve"/>
			<point x="779" y="366"/>
			<point x="739" y="397"/>
		</contour>
		<contour>
			<point x="518" y="236" type="line"/>
			<point x="463" y="262" type="line"/>
			<point x="463" y="-71" type="line"/>
			<point x="469" y="-71" type="line" smooth="yes"/>
			<point x="491" y="-71"/>
			<point x="506" y="-59"/>
			<point x="506" y="-54" type="curve" smooth="yes"/>
			<point x="506" y="206" type="line"/>
			<point x="787" y="206" type="line"/>
			<point x="787" y="-54" type="line"/>
			<point x="794" y="-54" type="line" smooth="yes"/>
			<point x="811" y="-54"/>
			<point x="831" y="-42"/>
			<point x="831" y="-38" type="curve" smooth="yes"/>
			<point x="831" y="203" type="line"/>
			<point x="850" y="206"/>
			<point x="861" y="212"/>
			<point x="866" y="219" type="curve"/>
			<point x="808" y="265" type="line"/>
			<point x="784" y="236" type="line"/>
		</contour>
		<contour>
			<point x="809" y="-14" type="line"/>
			<point x="809" y="16" type="line"/>
			<point x="484" y="16" type="line"/>
			<point x="484" y="-14" type="line"/>
		</contour>
		<contour>
			<point x="395" y="431" type="curve"/>
			<point x="335" y="474" type="line"/>
			<point x="311" y="431"/>
			<point x="283" y="389"/>
			<point x="261" y="365" type="curve"/>
			<point x="276" y="352" type="line"/>
			<point x="303" y="371"/>
			<point x="334" y="399"/>
			<point x="357" y="424" type="curve"/>
			<point x="374" y="418"/>
			<point x="389" y="423"/>
		</contour>
		<contour>
			<point x="242" y="-58" type="curve" smooth="yes"/>
			<point x="242" y="443" type="line"/>
			<point x="200" y="402" type="line"/>
			<point x="200" y="-75" type="line"/>
			<point x="206" y="-75" type="line" smooth="yes"/>
			<point x="226" y="-75"/>
			<point x="242" y="-63"/>
		</contour>
		<contour>
			<point x="234" y="383" type="curve"/>
			<point x="223" y="373" type="line"/>
			<point x="277" y="327"/>
			<point x="323" y="273"/>
			<point x="343" y="234" type="curve"/>
			<point x="394" y="202"/>
			<point x="421" y="307"/>
		</contour>
		<contour>
			<point x="404" y="626" type="curve"/>
			<point x="350" y="680" type="line"/>
			<point x="314" y="648" type="line"/>
			<point x="319" y="648" type="line"/>
			<point x="263" y="501"/>
			<point x="153" y="345"/>
			<point x="34" y="245" type="curve"/>
			<point x="47" y="230" type="line"/>
			<point x="177" y="320"/>
			<point x="298" y="469"/>
			<point x="361" y="615" type="curve"/>
			<point x="385" y="615"/>
			<point x="396" y="618"/>
		</contour>
		<contour>
			<point x="360" y="618" type="line"/>
			<point x="360" y="648" type="line"/>
			<point x="47" y="648" type="line"/>
			<point x="56" y="618" type="line"/>
		</contour>
		<contour>
			<point x="280" y="822" type="curve"/>
			<point x="200" y="832" type="line"/>
			<point x="200" y="639" type="line"/>
			<point x="244" y="639" type="line"/>
			<point x="244" y="795" type="line"/>
			<point x="268" y="798"/>
			<point x="278" y="808"/>
		</contour>
	</outline>
</glyph>
<glyph name="uni8AA4" format="2">
	<advance width="1000" height="1000"/>
	<unicode hex="8AA4"/>
	<note>
		cid62703
	</note>
	<outline>
		<contour>
			<point x="296" y="815" type="curve"/>
			<point x="258" y="767" type="line"/>
			<point x="81" y="767" type="line"/>
			<point x="89" y="738" type="line"/>
			<point x="341" y="738" type="line" smooth="yes"/>
			<point x="355" y="738"/>
			<point x="364" y="743"/>
			<point x="367" y="754" type="curve"/>
			<point x="339" y="780"/>
			<point x="296" y="815"/>
		</contour>
		<contour>
			<point x="299" y="559" type="curve"/>
			<point x="263" y="516" type="line"/>
			<point x="82" y="516" type="line"/>
			<point x="90" y="487" type="line"/>
			<point x="338" y="487" type="line" smooth="yes"/>
			<point x="352" y="487"/>
			<point x="361" y="492"/>
			<point x="363" y="502" type="curve"/>
			<point x="338" y="527"/>
			<point x="299" y="559"/>
		</contour>
		<contour>
			<point x="299" y="432" type="curve"/>
			<point x="263" y="389" type="line"/>
			<point x="82" y="389" type="line"/>
			<point x="90" y="360" type="line"/>
			<point x="338" y="360" type="line" smooth="yes"/>
			<point x="352" y="360"/>
			<point x="361" y="365"/>
			<point x="363" y="375" type="curve"/>
			<point x="338" y="400"/>
			<point x="299" y="432"/>
		</contour>
		<contour>
			<point x="336" y="691" type="curve"/>
			<point x="297" y="642" type="line"/>
			<point x="41" y="642" type="line"/>
			<point x="49" y="613" type="line"/>
			<point x="382" y="613" type="line" smooth="yes"/>
			<point x="396" y="613"/>
			<point x="405" y="618"/>
			<point x="408" y="629" type="curve"/>
			<point x="380" y="655"/>
			<point x="336" y="691"/>
		</contour>
		<contour>
			<point x="87" y="288" type="line"/>
			<point x="87" y="263" type="line"/>
			<point x="87" y="-73" type="line"/>
			<point x="94" y="-73" type="line" smooth="yes"/>
			<point x="112" y="-73"/>
			<point x="131" y="-62"/>
			<point x="131" y="-57" type="curve" smooth="yes"/>
			<point x="131" y="234" type="line"/>
			<point x="313" y="234" type="line"/>
			<point x="313" y="263" type="line"/>
			<point x="136" y="263" type="line"/>
			<point x="87" y="288" type="line"/>
		</contour>
		<contour>
			<point x="282" y="263" type="line"/>
			<point x="292" y="263" type="line"/>
			<point x="292" y="-35" type="line"/>
			<point x="298" y="-35" type="line" smooth="yes"/>
			<point x="312" y="-35"/>
			<point x="335" y="-24"/>
			<point x="336" y="-18" type="curve"/>
			<point x="336" y="224" type="line"/>
			<point x="356" y="228"/>
			<point x="372" y="236"/>
			<point x="379" y="243" type="curve"/>
			<point x="311" y="296" type="line"/>
		</contour>
		<contour>
			<point x="314" y="44" type="line"/>
			<point x="109" y="44" type="line"/>
			<point x="109" y="15" type="line"/>
			<point x="314" y="15" type="line"/>
		</contour>
		<contour>
			<point x="571" y="814" type="line"/>
			<point x="571" y="789" type="line"/>
			<point x="571" y="485" type="line"/>
			<point x="578" y="485" type="line" smooth="yes"/>
			<point x="597" y="485"/>
			<point x="616" y="496"/>
			<point x="616" y="500" type="curve" smooth="yes"/>
			<point x="616" y="760" type="line"/>
			<point x="876" y="760" type="line"/>
			<point x="876" y="789" type="line"/>
			<point x="621" y="789" type="line"/>
			<point x="571" y="814" type="line"/>
		</contour>
		<contour>
			<point x="839" y="789" type="line"/>
			<point x="849" y="789" type="line"/>
			<point x="849" y="491" type="line"/>
			<point x="855" y="491" type="line" smooth="yes"/>
			<point x="870" y="491"/>
			<point x="893" y="502"/>
			<point x="894" y="508" type="curve"/>
			<point x="894" y="750" type="line"/>
			<point x="913" y="754"/>
			<point x="930" y="761"/>
			<point x="937" y="769" type="curve"/>
			<point x="869" y="822" type="line"/>
		</contour>
		<contour>
			<point x="864" y="569" type="line"/>
			<point x="589" y="569" type="line"/>
			<point x="589" y="540" type="line"/>
			<point x="864" y="540" type="line"/>
		</contour>
		<contour>
			<point x="821" y="435" type="line"/>
			<point x="456" y="435" type="line"/>
			<point x="456" y="406" type="line"/>
			<point x="821" y="406" type="line"/>
		</contour>
		<contour>
			<point x="511" y="718" type="curve"/>
			<point x="431" y="728" type="line"/>
			<point x="431" y="323" type="line"/>
			<point x="439" y="323" type="line" smooth="yes"/>
			<point x="456" y="323"/>
			<point x="475" y="334"/>
			<point x="475" y="342" type="curve" smooth="yes"/>
			<point x="475" y="692" type="line"/>
			<point x="500" y="696"/>
			<point x="509" y="704"/>
		</contour>
		<contour>
			<point x="790" y="435" type="line"/>
			<point x="800" y="435" type="line"/>
			<point x="800" y="214" type="line"/>
			<point x="844" y="214" type="line"/>
			<point x="844" y="396" type="line"/>
			<point x="863" y="400"/>
			<point x="881" y="408"/>
			<point x="888" y="416" type="curve"/>
			<point x="821" y="467" type="line"/>
		</contour>
		<contour>
			<point x="905" y="279" type="curve"/>
			<point x="872" y="229" type="line"/>
			<point x="376" y="229" type="line"/>
			<point x="384" y="199" type="line"/>
			<point x="943" y="199" type="line" smooth="yes"/>
			<point x="957" y="199"/>
			<point x="965" y="204"/>
			<point x="967" y="215" type="curve"/>
			<point x="945" y="241"/>
			<point x="905" y="279"/>
		</contour>
		<contour>
			<point x="671" y="227" type="curve"/>
			<point x="653" y="219" type="line"/>
			<point x="702" y="72"/>
			<point x="791" y="-25"/>
			<point x="923" y="-73" type="curve"/>
			<point x="928" y="-51"/>
			<point x="944" y="-38"/>
			<point x="963" y="-35" type="curve"/>
			<point x="964" y="-25" type="line"/>
			<point x="826" y="11"/>
			<point x="721" y="102"/>
		</contour>
		<contour>
			<point x="669" y="420" type="curve"/>
			<point x="625" y="420" type="line"/>
			<point x="623" y="195"/>
			<point x="624" y="56"/>
			<point x="347" y="-52" type="curve"/>
			<point x="361" y="-70" type="line"/>
			<point x="659" y="36"/>
			<point x="664" y="178"/>
		</contour>
	</outline>
</glyph>
<glyph name="uni8BA0" format="2">
	<advance width="1000" height="1000"/>
	<unicode hex="8BA0"/>
	<note>
		cid38434
	</note>
	<outline>
		<contour>
			<point x="164" y="829" type="curve"/>
			<point x="152" y="820" type="line"/>
			<point x="214" y="766"/>
			<point x="265" y="700"/>
			<point x="284" y="649" type="curve"/>
			<point x="339" y="614"/>
			<point x="369" y="733"/>
		</contour>
		<contour>
			<point x="236" y="500" type="line"/>
			<point x="245" y="500" type="line"/>
			<point x="245" y="27" type="line"/>
			<point x="251" y="27" type="line" smooth="yes"/>
			<point x="266" y="27"/>
			<point x="289" y="39"/>
			<point x="289" y="45" type="curve" smooth="yes"/>
			<point x="289" y="464" type="line"/>
			<point x="306" y="467"/>
			<point x="322" y="475"/>
			<point x="328" y="481" type="curve"/>
			<point x="264" y="531" type="line"/>
		</contour>
		<contour>
			<point x="275" y="500" type="line"/>
			<point x="50" y="500" type="line"/>
			<point x="59" y="470" type="line"/>
			<point x="275" y="470" type="line"/>
		</contour>
		<contour>
			<point x="152" y="22" type="curve"/>
			<point x="188" y="-40" type="line"/>
			<point x="197" y="-35"/>
			<point x="204" y="-26"/>
			<point x="206" y="-14" type="curve"/>
			<point x="296" y="22"/>
			<point x="400" y="71"/>
			<point x="477" y="114" type="curve"/>
			<point x="471" y="131" type="line"/>
			<point x="357" y="86"/>
			<point x="234" y="44"/>
		</contour>
	</outline>
</glyph>
<glyph name="uni92D8" format="2">
	<advance width="1000" height="1000"/>
	<unicode hex="92D8"/>
	<note>
		cid41657
	</note>
	<outline>
		<contour>
			<point x="857" y="566" type="line"/>
			<point x="577" y="566" type="line"/>
			<point x="577" y="537" type="line"/>
			<point x="857" y="537" type="line"/>
		</contour>
		<contour>
			<point x="522" y="748" type="curve"/>
			<point x="441" y="758" type="line"/>
			<point x="441" y="334" type="line"/>
			<point x="450" y="334" type="line" smooth="yes"/>
			<point x="467" y="334"/>
			<point x="486" y="346"/>
			<point x="486" y="353" type="curve" smooth="yes"/>
			<point x="486" y="721" type="line"/>
			<point x="510" y="725"/>
			<point x="520" y="734"/>
		</contour>
		<contour>
			<point x="835" y="429" type="line"/>
			<point x="457" y="429" type="line"/>
			<point x="457" y="399" type="line"/>
			<point x="835" y="399" type="line"/>
		</contour>
		<contour>
			<point x="911" y="288" type="curve"/>
			<point x="877" y="237" type="line"/>
			<point x="372" y="237" type="line"/>
			<point x="380" y="208" type="line"/>
			<point x="948" y="208" type="line" smooth="yes"/>
			<point x="961" y="208"/>
			<point x="970" y="213"/>
			<point x="973" y="224" type="curve"/>
			<point x="951" y="250"/>
			<point x="911" y="288"/>
		</contour>
		<contour>
			<point x="814" y="786" type="line"/>
			<point x="824" y="786" type="line"/>
			<point x="824" y="492" type="line"/>
			<point x="829" y="492" type="line" smooth="yes"/>
			<point x="844" y="492"/>
			<point x="867" y="503"/>
			<point x="868" y="509" type="curve"/>
			<point x="868" y="747" type="line"/>
			<point x="888" y="751"/>
			<point x="904" y="759"/>
			<point x="911" y="766" type="curve"/>
			<point x="843" y="819" type="line"/>
		</contour>
		<contour>
			<point x="576" y="813" type="line"/>
			<point x="576" y="786" type="line"/>
			<point x="576" y="477" type="line"/>
			<point x="582" y="477" type="line" smooth="yes"/>
			<point x="605" y="477"/>
			<point x="621" y="491"/>
			<point x="621" y="495" type="curve" smooth="yes"/>
			<point x="621" y="786" type="line"/>
			<point x="632" y="786" type="line"/>
		</contour>
		<contour>
			<point x="857" y="786" type="line"/>
			<point x="577" y="786" type="line"/>
			<point x="577" y="757" type="line"/>
			<point x="857" y="757" type="line"/>
		</contour>
		<contour>
			<point x="669" y="414" type="curve"/>
			<point x="625" y="414" type="line"/>
			<point x="623" y="209"/>
			<point x="611" y="58"/>
			<point x="313" y="-54" type="curve"/>
			<point x="326" y="-72" type="line"/>
			<point x="647" y="39"/>
			<point x="666" y="192"/>
		</contour>
		<contour>
			<point x="664" y="236" type="curve"/>
			<point x="646" y="228" type="line"/>
			<point x="696" y="79"/>
			<point x="786" y="-21"/>
			<point x="927" y="-70" type="curve"/>
			<point x="933" y="-48"/>
			<point x="948" y="-35"/>
			<point x="968" y="-32" type="curve"/>
			<point x="969" y="-22" type="line"/>
			<point x="826" y="13"/>
			<point x="716" y="106"/>
		</contour>
		<contour>
			<point x="795" y="429" type="line"/>
			<point x="804" y="429" type="line"/>
			<point x="804" y="213" type="line"/>
			<point x="848" y="213" type="line"/>
			<point x="848" y="397" type="line"/>
			<point x="863" y="399"/>
			<point x="872" y="401"/>
			<point x="878" y="408" type="curve"/>
			<point x="823" y="458" type="line"/>
		</contour>
		<contour>
			<point x="242" y="787" type="curve"/>
			<point x="267" y="788"/>
			<point x="277" y="794"/>
			<point x="280" y="805" type="curve"/>
			<point x="202" y="830" type="line"/>
			<point x="172" y="728"/>
			<point x="94" y="574"/>
			<point x="19" y="490" type="curve"/>
			<point x="34" y="479" type="line"/>
			<point x="123" y="559"/>
			<point x="200" y="690"/>
		</contour>
		<contour>
			<point x="229" y="796" type="curve"/>
			<point x="213" y="793" type="line"/>
			<point x="287" y="732"/>
			<point x="342" y="658"/>
			<point x="365" y="606" type="curve"/>
			<point x="412" y="571"/>
			<point x="475" y="678"/>
		</contour>
		<contour>
			<point x="309" y="590" type="curve"/>
			<point x="273" y="545" type="line"/>
			<point x="109" y="545" type="line"/>
			<point x="117" y="515" type="line"/>
			<point x="353" y="515" type="line" smooth="yes"/>
			<point x="367" y="515"/>
			<point x="375" y="520"/>
			<point x="377" y="531" type="curve"/>
			<point x="352" y="557"/>
			<point x="309" y="590"/>
		</contour>
		<contour>
			<point x="342" y="433" type="curve"/>
			<point x="304" y="386" type="line"/>
			<point x="49" y="386" type="line"/>
			<point x="57" y="357" type="line"/>
			<point x="387" y="357" type="line" smooth="yes"/>
			<point x="400" y="357"/>
			<point x="410" y="362"/>
			<point x="412" y="372" type="curve"/>
			<point x="385" y="399"/>
			<point x="342" y="433"/>
		</contour>
		<contour>
			<point x="247" y="545" type="line"/>
			<point x="203" y="545" type="line"/>
			<point x="203" y="13" type="line"/>
			<point x="247" y="23" type="line"/>
		</contour>
		<contour>
			<point x="40" y="-5" type="curve"/>
			<point x="80" y="-69" type="line"/>
			<point x="89" y="-66"/>
			<point x="96" y="-58"/>
			<point x="99" y="-45" type="curve"/>
			<point x="242" y="6"/>
			<point x="351" y="50"/>
			<point x="429" y="82" type="curve"/>
			<point x="424" y="98" type="line"/>
			<point x="263" y="52"/>
			<point x="106" y="9"/>
		</contour>
		<contour>
			<point x="401" y="284" type="curve"/>
			<point x="319" y="307" type="line"/>
			<point x="310" y="240"/>
			<point x="296" y="164"/>
			<point x="281" y="111" type="curve"/>
			<point x="300" y="105" type="line"/>
			<point x="324" y="148"/>
			<point x="349" y="211"/>
			<point x="367" y="263" type="curve"/>
			<point x="386" y="264"/>
			<point x="397" y="273"/>
		</contour>
		<contour>
			<point x="91" y="298" type="curve"/>
			<point x="76" y="294" type="line"/>
			<point x="96" y="240"/>
			<point x="115" y="157"/>
			<point x="110" y="95" type="curve"/>
			<point x="152" y="47"/>
			<point x="203" y="160"/>
		</contour>
	</outline>
</glyph>
<glyph name="uni93A6" format="2">
	<advance width="1000" height="1000"/>
	<unicode hex="93A6"/>
	<note>
		cid42010
	</note>
	<outline>
		<contour>
			<point x="249" y="787" type="curve"/>
			<point x="274" y="788"/>
			<point x="284" y="794"/>
			<point x="287" y="805" type="curve"/>
			<point x="210" y="831" type="line"/>
			<point x="178" y="728"/>
			<point x="98" y="573"/>
			<point x="21" y="489" type="curve"/>
			<point x="36" y="478" type="line"/>
			<point x="126" y="558"/>
			<point x="206" y="690"/>
		</contour>
		<contour>
			<point x="236" y="796" type="curve"/>
			<point x="220" y="793" type="line"/>
			<point x="288" y="738"/>
			<point x="339" y="670"/>
			<point x="360" y="622" type="curve"/>
			<point x="406" y="587"/>
			<point x="468" y="692"/>
		</contour>
		<contour>
			<point x="326" y="595" type="curve"/>
			<point x="290" y="550" type="line"/>
			<point x="112" y="550" type="line"/>
			<point x="120" y="520" type="line"/>
			<point x="369" y="520" type="line" smooth="yes"/>
			<point x="383" y="520"/>
			<point x="392" y="525"/>
			<point x="394" y="536" type="curve"/>
			<point x="368" y="562"/>
			<point x="326" y="595"/>
		</contour>
		<contour>
			<point x="347" y="437" type="curve"/>
			<point x="309" y="391" type="line"/>
			<point x="49" y="391" type="line"/>
			<point x="57" y="362" type="line"/>
			<point x="391" y="362" type="line" smooth="yes"/>
			<point x="405" y="362"/>
			<point x="414" y="367"/>
			<point x="417" y="377" type="curve"/>
			<point x="390" y="404"/>
			<point x="347" y="437"/>
		</contour>
		<contour>
			<point x="256" y="550" type="line"/>
			<point x="212" y="550" type="line"/>
			<point x="212" y="18" type="line"/>
			<point x="256" y="28" type="line"/>
		</contour>
		<contour>
			<point x="40" y="0" type="curve"/>
			<point x="79" y="-66" type="line"/>
			<point x="88" y="-62"/>
			<point x="96" y="-54"/>
			<point x="99" y="-42" type="curve"/>
			<point x="248" y="6"/>
			<point x="360" y="47"/>
			<point x="440" y="78" type="curve"/>
			<point x="436" y="94" type="line"/>
			<point x="271" y="52"/>
			<point x="109" y="12"/>
		</contour>
		<contour>
			<point x="412" y="287" type="curve"/>
			<point x="331" y="312" type="line"/>
			<point x="319" y="245"/>
			<point x="303" y="170"/>
			<point x="286" y="121" type="curve"/>
			<point x="303" y="113" type="line"/>
			<point x="330" y="155"/>
			<point x="357" y="216"/>
			<point x="377" y="268" type="curve"/>
			<point x="396" y="267"/>
			<point x="408" y="276"/>
		</contour>
		<contour>
			<point x="93" y="302" type="curve"/>
			<point x="78" y="298" type="line"/>
			<point x="100" y="245"/>
			<point x="122" y="162"/>
			<point x="119" y="100" type="curve"/>
			<point x="162" y="53"/>
			<point x="211" y="166"/>
		</contour>
		<contour>
			<point x="882" y="183" type="line"/>
			<point x="470" y="183" type="line"/>
			<point x="470" y="154" type="line"/>
			<point x="882" y="154" type="line"/>
		</contour>
		<contour>
			<point x="882" y="20" type="line"/>
			<point x="470" y="20" type="line"/>
			<point x="470" y="-10" type="line"/>
			<point x="882" y="-10" type="line"/>
		</contour>
		<contour>
			<point x="528" y="741" type="curve"/>
			<point x="445" y="769" type="line"/>
			<point x="445" y="472" type="line"/>
			<point x="451" y="472" type="line" smooth="yes"/>
			<point x="476" y="472"/>
			<point x="487" y="484"/>
			<point x="489" y="488" type="curve"/>
			<point x="489" y="723" type="line"/>
			<point x="510" y="726"/>
			<point x="525" y="733"/>
		</contour>
		<contour>
			<point x="674" y="782" type="curve"/>
			<point x="609" y="825" type="line"/>
			<point x="577" y="799"/>
			<point x="516" y="756"/>
			<point x="469" y="730" type="curve"/>
			<point x="483" y="717" type="line"/>
			<point x="536" y="733"/>
			<point x="601" y="759"/>
			<point x="637" y="778" type="curve"/>
			<point x="657" y="770"/>
			<point x="666" y="773"/>
		</contour>
		<contour>
			<point x="911" y="760" type="line"/>
			<point x="653" y="760" type="line"/>
			<point x="662" y="730" type="line"/>
			<point x="911" y="730" type="line"/>
		</contour>
		<contour>
			<point x="880" y="760" type="line"/>
			<point x="890" y="760" type="line"/>
			<point x="886" y="579"/>
			<point x="878" y="492"/>
			<point x="860" y="474" type="curve" smooth="yes"/>
			<point x="853" y="468"/>
			<point x="846" y="466"/>
			<point x="831" y="466" type="curve" smooth="yes"/>
			<point x="816" y="466"/>
			<point x="770" y="470"/>
			<point x="742" y="472" type="curve"/>
			<point x="742" y="453" type="line"/>
			<point x="764" y="450"/>
			<point x="792" y="444"/>
			<point x="802" y="437" type="curve" smooth="yes"/>
			<point x="813" y="430"/>
			<point x="815" y="416"/>
			<point x="815" y="404" type="curve"/>
			<point x="842" y="403"/>
			<point x="871" y="412"/>
			<point x="890" y="430" type="curve" smooth="yes"/>
			<point x="918" y="458"/>
			<point x="931" y="543"/>
			<point x="935" y="726" type="curve"/>
			<point x="954" y="729"/>
			<point x="965" y="733"/>
			<point x="971" y="740" type="curve"/>
			<point x="908" y="791" type="line"/>
		</contour>
		<contour>
			<point x="698" y="343" type="line"/>
			<point x="654" y="343" type="line"/>
			<point x="654" y="8" type="line"/>
			<point x="698" y="8" type="line"/>
		</contour>
		<contour>
			<point x="382" y="465" type="curve"/>
			<point x="414" y="408" type="line"/>
			<point x="423" y="412"/>
			<point x="429" y="421"/>
			<point x="431" y="433" type="curve"/>
			<point x="506" y="467"/>
			<point x="587" y="508"/>
			<point x="640" y="540" type="curve"/>
			<point x="634" y="556" type="line"/>
			<point x="527" y="513"/>
			<point x="430" y="478"/>
		</contour>
		<contour>
			<point x="568" y="655" type="curve"/>
			<point x="555" y="649" type="line"/>
			<point x="584" y="606"/>
			<point x="623" y="536"/>
			<point x="631" y="487" type="curve"/>
			<point x="678" y="447"/>
			<point x="719" y="549"/>
		</contour>
		<contour>
			<point x="786" y="760" type="curve"/>
			<point x="741" y="760" type="line"/>
			<point x="734" y="596"/>
			<point x="711" y="457"/>
			<point x="603" y="392" type="curve"/>
			<point x="618" y="376" type="line"/>
			<point x="751" y="448"/>
			<point x="776" y="574"/>
		</contour>
		<contour>
			<point x="452" y="368" type="line"/>
			<point x="452" y="343" type="line"/>
			<point x="452" y="-73" type="line"/>
			<point x="460" y="-73" type="line" smooth="yes"/>
			<point x="479" y="-73"/>
			<point x="496" y="-62"/>
			<point x="496" y="-57" type="curve" smooth="yes"/>
			<point x="496" y="313" type="line"/>
			<point x="886" y="313" type="line"/>
			<point x="886" y="343" type="line"/>
			<point x="501" y="343" type="line"/>
		</contour>
		<contour>
			<point x="849" y="343" type="line"/>
			<point x="856" y="343" type="line"/>
			<point x="856" y="-68" type="line"/>
			<point x="862" y="-68" type="line" smooth="yes"/>
			<point x="877" y="-68"/>
			<point x="899" y="-55"/>
			<point x="900" y="-49" type="curve"/>
			<point x="900" y="310" type="line"/>
			<point x="914" y="313"/>
			<point x="927" y="319"/>
			<point x="932" y="325" type="curve"/>
			<point x="875" y="370" type="line"/>
		</contour>
	</outline>
</glyph>
<glyph name="uni98CE" format="2">
	<advance width="1000" height="1000"/>
	<unicode hex="98CE"/>
	<note>
		cid44176
	</note>
	<outline>
		<contour>
			<point x="290" y="551" type="curve"/>
			<point x="276" y="538" type="line"/>
			<point x="449" y="408"/>
			<point x="623" y="212"/>
			<point x="672" y="92" type="curve"/>
			<point x="758" y="35"/>
			<point x="732" y="267"/>
		</contour>
		<contour>
			<point x="683" y="633" type="curve"/>
			<point x="607" y="662" type="line"/>
			<point x="520" y="407"/>
			<point x="381" y="189"/>
			<point x="218" y="55" type="curve"/>
			<point x="232" y="41" type="line"/>
			<point x="405" y="167"/>
			<point x="552" y="373"/>
			<point x="643" y="616" type="curve"/>
			<point x="666" y="613"/>
			<point x="679" y="622"/>
		</contour>
		<contour>
			<point x="829" y="751" type="curve"/>
			<point x="759" y="813" type="line"/>
			<point x="725" y="778" type="line"/>
			<point x="735" y="778" type="line"/>
			<point x="733" y="445"/>
			<point x="735" y="80"/>
			<point x="874" y="-35" type="curve"/>
			<point x="906" y="-65"/>
			<point x="941" y="-84"/>
			<point x="960" y="-66" type="curve" smooth="yes"/>
			<point x="968" y="-57"/>
			<point x="963" y="-43"/>
			<point x="944" y="-16" type="curve"/>
			<point x="959" y="138" type="line"/>
			<point x="946" y="140" type="line"/>
			<point x="937" y="101"/>
			<point x="927" y="64"/>
			<point x="916" y="27" type="curve" smooth="yes"/>
			<point x="911" y="13"/>
			<point x="907" y="11"/>
			<point x="896" y="21" type="curve" smooth="yes"/>
			<point x="785" y="115"/>
			<point x="775" y="476"/>
			<point x="785" y="734" type="curve"/>
			<point x="808" y="737"/>
			<point x="822" y="744"/>
		</contour>
		<contour>
			<point x="765" y="748" type="line"/>
			<point x="765" y="778" type="line"/>
			<point x="194" y="778" type="line"/>
			<point x="194" y="748" type="line"/>
		</contour>
		<contour>
			<point x="174" y="806" type="line"/>
			<point x="174" y="788" type="line"/>
			<point x="174" y="425" type="line" smooth="yes"/>
			<point x="174" y="237"/>
			<point x="157" y="64"/>
			<point x="40" y="-66" type="curve"/>
			<point x="57" y="-78" type="line"/>
			<point x="204" y="52"/>
			<point x="218" y="247"/>
			<point x="218" y="426" type="curve" smooth="yes"/>
			<point x="218" y="778" type="line"/>
			<point x="228" y="778" type="line"/>
		</contour>
	</outline>
</glyph>
<glyph name="u270FD" format="2">
	<advance width="1000"/>
	<unicode hex="270FD"/>
	<outline>
		<contour>
			<point x="313" y="751" type="line"/>
			<point x="47" y="751" type="line"/>
			<point x="54" y="721" type="line"/>
			<point x="313" y="721" type="line"/>
			<point x="313" y="661" type="line"/>
			<point x="320" y="661" type="line" smooth="yes"/>
			<point x="337" y="661"/>
			<point x="358" y="667"/>
			<point x="358" y="674" type="curve" smooth="yes"/>
			<point x="358" y="721" type="line"/>
			<point x="636" y="721" type="line"/>
			<point x="636" y="663" type="line"/>
			<point x="644" y="663" type="line" smooth="yes"/>
			<point x="668" y="663"/>
			<point x="681" y="673"/>
			<point x="681" y="678" type="curve" smooth="yes"/>
			<point x="681" y="721" type="line"/>
			<point x="926" y="721" type="line" smooth="yes"/>
			<point x="940" y="721"/>
			<point x="950" y="726"/>
			<point x="952" y="737" type="curve"/>
			<point x="922" y="764"/>
			<point x="875" y="801"/>
			<point x="875" y="801" type="curve"/>
			<point x="832" y="751" type="line"/>
			<point x="681" y="751" type="line"/>
			<point x="681" y="801" type="line"/>
			<point x="705" y="804"/>
			<point x="714" y="814"/>
			<point x="716" y="827" type="curve"/>
			<point x="636" y="836" type="line"/>
			<point x="636" y="751" type="line"/>
			<point x="358" y="751" type="line"/>
			<point x="358" y="801" type="line"/>
			<point x="382" y="804"/>
			<point x="391" y="815"/>
			<point x="393" y="827" type="curve"/>
			<point x="313" y="836" type="line"/>
		</contour>
		<contour>
			<point x="573" y="691" type="curve"/>
			<point x="492" y="700" type="line"/>
			<point x="492" y="614" type="line"/>
			<point x="536" y="614" type="line"/>
			<point x="536" y="664" type="line"/>
			<point x="560" y="667"/>
			<point x="571" y="677"/>
		</contour>
		<contour>
			<point x="865" y="676" type="curve"/>
			<point x="823" y="623" type="line"/>
			<point x="138" y="623" type="line"/>
			<point x="138" y="593" type="line"/>
			<point x="920" y="593" type="line" smooth="yes"/>
			<point x="934" y="593"/>
			<point x="943" y="598"/>
			<point x="946" y="609" type="curve"/>
			<point x="915" y="637"/>
			<point x="865" y="676"/>
		</contour>
		<contour>
			<point x="119" y="632" type="line"/>
			<point x="119" y="623" type="line"/>
			<point x="119" y="401" type="line" smooth="yes"/>
			<point x="119" y="243"/>
			<point x="114" y="74"/>
			<point x="38" y="-65" type="curve"/>
			<point x="54" y="-76" type="line"/>
			<point x="159" y="63"/>
			<point x="164" y="258"/>
			<point x="164" y="402" type="curve" smooth="yes"/>
			<point x="164" y="623" type="line"/>
			<point x="173" y="623" type="line"/>
			<point x="119" y="650" type="line"/>
		</contour>
		<contour>
			<point x="857" y="543" type="curve"/>
			<point x="822" y="500" type="line"/>
			<point x="488" y="500" type="line"/>
			<point x="488" y="471" type="line"/>
			<point x="897" y="471" type="line" smooth="yes"/>
			<point x="911" y="471"/>
			<point x="920" y="475"/>
			<point x="923" y="486" type="curve"/>
			<point x="897" y="511"/>
			<point x="857" y="543"/>
		</contour>
		<contour>
			<point x="831" y="449" type="curve"/>
			<point x="798" y="413" type="line"/>
			<point x="487" y="413" type="line"/>
			<point x="487" y="383" type="line"/>
			<point x="869" y="383" type="line" smooth="yes"/>
			<point x="883" y="383"/>
			<point x="891" y="388"/>
			<point x="894" y="399" type="curve"/>
			<point x="869" y="422"/>
			<point x="831" y="449"/>
		</contour>
		<contour>
			<point x="875" y="273" type="curve"/>
			<point x="840" y="235" type="line"/>
			<point x="483" y="235" type="line"/>
			<point x="483" y="205" type="line"/>
			<point x="916" y="205" type="line" smooth="yes"/>
			<point x="929" y="205"/>
			<point x="938" y="210"/>
			<point x="941" y="221" type="curve"/>
			<point x="914" y="245"/>
			<point x="875" y="273"/>
		</contour>
		<contour>
			<point x="831" y="361" type="curve"/>
			<point x="798" y="324" type="line"/>
			<point x="487" y="324" type="line"/>
			<point x="487" y="295" type="line"/>
			<point x="869" y="295" type="line" smooth="yes"/>
			<point x="883" y="295"/>
			<point x="891" y="300"/>
			<point x="894" y="310" type="curve"/>
			<point x="869" y="333"/>
			<point x="831" y="361"/>
		</contour>
		<contour>
			<point x="366" y="460" type="curve"/>
			<point x="320" y="477" type="line"/>
			<point x="293" y="441" type="line"/>
			<point x="293" y="167" type="line"/>
			<point x="300" y="167" type="line" smooth="yes"/>
			<point x="317" y="167"/>
			<point x="336" y="180"/>
			<point x="337" y="184" type="curve"/>
			<point x="337" y="442" type="line"/>
			<point x="353" y="445"/>
			<point x="363" y="452"/>
		</contour>
		<contour>
			<point x="698" y="500" type="line"/>
			<point x="654" y="500" type="line"/>
			<point x="654" y="220" type="line"/>
			<point x="698" y="220" type="line"/>
		</contour>
		<contour>
			<point x="752" y="560" type="curve"/>
			<point x="681" y="582" type="line"/>
			<point x="671" y="552"/>
			<point x="656" y="515"/>
			<point x="642" y="485" type="curve"/>
			<point x="665" y="485" type="line"/>
			<point x="680" y="499"/>
			<point x="699" y="521"/>
			<point x="714" y="541" type="curve"/>
			<point x="734" y="540"/>
			<point x="747" y="549"/>
		</contour>
		<contour>
			<point x="509" y="197" type="curve" smooth="yes"/>
			<point x="509" y="500" type="line"/>
			<point x="521" y="500" type="line"/>
			<point x="490" y="515" type="line"/>
			<point x="465" y="477" type="line"/>
			<point x="465" y="180" type="line"/>
			<point x="472" y="180" type="line" smooth="yes"/>
			<point x="494" y="180"/>
			<point x="509" y="192"/>
		</contour>
		<contour>
			<point x="455" y="118" type="curve"/>
			<point x="383" y="127" type="line"/>
			<point x="383" y="-12" type="line" smooth="yes"/>
			<point x="383" y="-49"/>
			<point x="395" y="-60"/>
			<point x="468" y="-60" type="curve" smooth="yes"/>
			<point x="590" y="-60" type="line" smooth="yes"/>
			<point x="754" y="-60"/>
			<point x="780" y="-53"/>
			<point x="780" y="-31" type="curve" smooth="yes"/>
			<point x="780" y="-22"/>
			<point x="774" y="-17"/>
			<point x="756" y="-12" type="curve"/>
			<point x="753" y="76" type="line"/>
			<point x="741" y="76" type="line"/>
			<point x="734" y="37"/>
			<point x="726" y="3"/>
			<point x="719" y="-10" type="curve" smooth="yes"/>
			<point x="715" y="-17"/>
			<point x="712" y="-19"/>
			<point x="700" y="-20" type="curve" smooth="yes"/>
			<point x="687" y="-21"/>
			<point x="643" y="-21"/>
			<point x="589" y="-21" type="curve" smooth="yes"/>
			<point x="473" y="-21" type="line" smooth="yes"/>
			<point x="431" y="-21"/>
			<point x="427" y="-18"/>
			<point x="427" y="-5" type="curve" smooth="yes"/>
			<point x="427" y="95" type="line"/>
			<point x="444" y="98"/>
			<point x="454" y="107"/>
		</contour>
		<contour>
			<point x="464" y="166" type="curve"/>
			<point x="457" y="154" type="line"/>
			<point x="512" y="136"/>
			<point x="583" y="97"/>
			<point x="612" y="59" type="curve"/>
			<point x="675" y="41"/>
			<point x="672" y="165"/>
		</contour>
		<contour>
			<point x="759" y="132" type="curve"/>
			<point x="748" y="123" type="line"/>
			<point x="817" y="90"/>
			<point x="887" y="29"/>
			<point x="906" y="-16" type="curve"/>
			<point x="970" y="-52"/>
			<point x="994" y="79"/>
		</contour>
		<contour>
			<point x="311" y="119" type="curve"/>
			<point x="293" y="120" type="line"/>
			<point x="280" y="68"/>
			<point x="245" y="37"/>
			<point x="201" y="16" type="curve" smooth="yes"/>
			<point x="184" y="7"/>
			<point x="173" y="-10"/>
			<point x="181" y="-25" type="curve" smooth="yes"/>
			<point x="191" y="-42"/>
			<point x="222" y="-37"/>
			<point x="243" y="-24" type="curve" smooth="yes"/>
			<point x="277" y="-3"/>
			<point x="322" y="35"/>
		</contour>
		<contour>
			<point x="576" y="556" type="curve"/>
			<point x="508" y="584" type="line"/>
			<point x="481" y="505"/>
			<point x="423" y="418"/>
			<point x="357" y="359" type="curve"/>
			<point x="371" y="348" type="line"/>
			<point x="442" y="399"/>
			<point x="507" y="473"/>
			<point x="539" y="540" type="curve"/>
			<point x="560" y="537"/>
			<point x="571" y="546"/>
		</contour>
		<contour>
			<point x="420" y="556" type="curve"/>
			<point x="350" y="584" type="line"/>
			<point x="317" y="484"/>
			<point x="248" y="380"/>
			<point x="171" y="314" type="curve"/>
			<point x="186" y="301" type="line"/>
			<point x="269" y="362"/>
			<point x="345" y="454"/>
			<point x="382" y="539" type="curve"/>
			<point x="403" y="537"/>
			<point x="415" y="545"/>
		</contour>
	</outline>
</glyph>
<glyph name="uni4E49.noaxe" format="2">
	<advance width="1000" height="1000"/>
	<note>
		cid09602
	</note>
	<outline>
		<contour>
			<point x="216" y="726" type="curve"/>
			<point x="196" y="713" type="line"/>
			<point x="278" y="303"/>
			<point x="518" y="44"/>
			<point x="902" y="-70" type="curve"/>
			<point x="914" y="-47"/>
			<point x="935" y="-35"/>
			<point x="960" y="-36" type="curve"/>
			<point x="963" y="-25" type="line"/>
			<point x="564" y="77"/>
			<point x="304" y="331"/>
		</contour>
		<contour>
			<point x="844" y="725" type="curve"/>
			<point x="754" y="748" type="line"/>
			<point x="675" y="379"/>
			<point x="476" y="87"/>
			<point x="41" y="-57" type="curve"/>
			<point x="50" y="-74" type="line"/>
			<point x="513" y="59"/>
			<point x="713" y="351"/>
			<point x="800" y="708" type="curve"/>
			<point x="829" y="706"/>
			<point x="839" y="712"/>
		</contour>
		<contour>
			<point x="393" y="813" type="curve"/>
			<point x="380" y="805" type="line"/>
			<point x="436" y="750"/>
			<point x="505" y="655"/>
			<point x="516" y="584" type="curve"/>
			<point x="573" y="539"/>
			<point x="611" y="684"/>
		</contour>
	</outline>
</glyph>
<glyph name="uni4FDE.inherited" format="2">
	<advance width="1000" height="1000"/>
	<note>
		cid10190
	</note>
	<outline>
		<contour>
			<point x="180" y="-56" type="curve" smooth="yes"/>
			<point x="180" y="401" type="line"/>
			<point x="440" y="401" type="line"/>
			<point x="440" y="431" type="line"/>
			<point x="185" y="431" type="line"/>
			<point x="136" y="457" type="line"/>
			<point x="136" y="-72" type="line"/>
			<point x="144" y="-72" type="line" smooth="yes"/>
			<point x="164" y="-72"/>
			<point x="180" y="-62"/>
		</contour>
		<contour>
			<point x="211" y="205" type="curve"/>
			<point x="202" y="194" type="line"/>
			<point x="251" y="170"/>
			<point x="315" y="122"/>
			<point x="338" y="85" type="curve"/>
			<point x="393" y="61"/>
			<point x="407" y="171"/>
		</contour>
		<contour>
			<point x="223" y="343" type="curve"/>
			<point x="214" y="331" type="line"/>
			<point x="260" y="310"/>
			<point x="323" y="266"/>
			<point x="348" y="235" type="curve"/>
			<point x="402" y="214"/>
			<point x="415" y="317"/>
		</contour>
		<contour>
			<point x="502" y="410" type="curve"/>
			<point x="430" y="464" type="line"/>
			<point x="404" y="431" type="line"/>
			<point x="414" y="431" type="line"/>
			<point x="414" y="1" type="line" smooth="yes"/>
			<point x="414" y="-11"/>
			<point x="410" y="-17"/>
			<point x="394" y="-17" type="curve" smooth="yes"/>
			<point x="377" y="-17"/>
			<point x="305" y="-11"/>
			<point x="305" y="-11" type="curve"/>
			<point x="305" y="-28" type="line"/>
			<point x="337" y="-31"/>
			<point x="357" y="-36"/>
			<point x="369" y="-43" type="curve" smooth="yes"/>
			<point x="379" y="-49"/>
			<point x="383" y="-61"/>
			<point x="385" y="-71" type="curve"/>
			<point x="450" y="-65"/>
			<point x="458" y="-41"/>
			<point x="458" y="-2" type="curve" smooth="yes"/>
			<point x="458" y="392" type="line"/>
			<point x="478" y="395"/>
			<point x="496" y="403"/>
		</contour>
		<contour>
			<point x="512" y="786" type="curve"/>
			<point x="592" y="665"/>
			<point x="750" y="543"/>
			<point x="912" y="468" type="curve"/>
			<point x="919" y="486"/>
			<point x="940" y="502"/>
			<point x="965" y="506" type="curve"/>
			<point x="967" y="521" type="line"/>
			<point x="790" y="589"/>
			<point x="625" y="690"/>
			<point x="531" y="798" type="curve"/>
			<point x="553" y="800"/>
			<point x="566" y="805"/>
			<point x="569" y="816" type="curve"/>
			<point x="467" y="838" type="line"/>
			<point x="407" y="713"/>
			<point x="193" y="532"/>
			<point x="30" y="450" type="curve"/>
			<point x="38" y="434" type="line"/>
			<point x="215" y="513"/>
			<point x="412" y="664"/>
		</contour>
		<contour>
			<point x="639" y="601" type="curve"/>
			<point x="601" y="557" type="line"/>
			<point x="300" y="557" type="line"/>
			<point x="308" y="527" type="line"/>
			<point x="685" y="527" type="line" smooth="yes"/>
			<point x="698" y="527"/>
			<point x="708" y="532"/>
			<point x="710" y="543" type="curve"/>
			<point x="682" y="569"/>
			<point x="639" y="601"/>
		</contour>
		<contour>
			<point x="702" y="434" type="curve"/>
			<point x="630" y="456" type="line"/>
			<point x="613" y="406"/>
			<point x="554" y="275"/>
			<point x="521" y="202" type="curve"/>
			<point x="589" y="119"/>
			<point x="635" y="1"/>
			<point x="654" y="-65" type="curve"/>
			<point x="695" y="-99"/>
			<point x="765" y="-16"/>
			<point x="550" y="205" type="curve"/>
			<point x="587" y="267"/>
			<point x="650" y="375"/>
			<point x="675" y="423" type="curve"/>
			<point x="691" y="422"/>
			<point x="699" y="425"/>
		</contour>
		<contour>
			<point x="883" y="433" type="curve"/>
			<point x="810" y="456" type="line"/>
			<point x="790" y="405"/>
			<point x="722" y="274"/>
			<point x="686" y="202" type="curve"/>
			<point x="762" y="120"/>
			<point x="816" y="1"/>
			<point x="839" y="-66" type="curve"/>
			<point x="881" y="-98"/>
			<point x="952" y="-17"/>
			<point x="716" y="206" type="curve"/>
			<point x="756" y="266"/>
			<point x="827" y="373"/>
			<point x="853" y="423" type="curve"/>
			<point x="869" y="420"/>
			<point x="879" y="423"/>
		</contour>
	</outline>
</glyph>
<glyph name="uni55B3.JP" format="2">
	<advance width="1000" height="1000"/>
	<note>
		cid12584
	</note>
	<outline>
		<contour>
			<point x="127" y="122" type="curve" smooth="yes"/>
			<point x="127" y="647" type="line"/>
			<point x="285" y="647" type="line"/>
			<point x="285" y="677" type="line"/>
			<point x="132" y="677" type="line"/>
			<point x="84" y="703" type="line"/>
			<point x="84" y="105" type="line"/>
			<point x="92" y="105" type="line" smooth="yes"/>
			<point x="111" y="105"/>
			<point x="127" y="116"/>
		</contour>
		<contour>
			<point x="350" y="657" type="curve"/>
			<point x="283" y="710" type="line"/>
			<point x="253" y="677" type="line"/>
			<point x="263" y="677" type="line"/>
			<point x="263" y="147" type="line"/>
			<point x="269" y="147" type="line" smooth="yes"/>
			<point x="284" y="147"/>
			<point x="306" y="159"/>
			<point x="307" y="165" type="curve"/>
			<point x="307" y="637" type="line"/>
			<point x="327" y="641"/>
			<point x="344" y="649"/>
		</contour>
		<contour>
			<point x="285" y="228" type="line"/>
			<point x="285" y="258" type="line"/>
			<point x="105" y="258" type="line"/>
			<point x="105" y="228" type="line"/>
		</contour>
		<contour>
			<point x="870" y="749" type="curve"/>
			<point x="829" y="699" type="line"/>
			<point x="366" y="699" type="line"/>
			<point x="374" y="669" type="line"/>
			<point x="920" y="669" type="line" smooth="yes"/>
			<point x="934" y="669"/>
			<point x="943" y="674"/>
			<point x="945" y="685" type="curve"/>
			<point x="917" y="713"/>
			<point x="870" y="749"/>
		</contour>
		<contour>
			<point x="702" y="818" type="curve"/>
			<point x="621" y="828" type="line"/>
			<point x="621" y="423" type="line"/>
			<point x="630" y="423" type="line" smooth="yes"/>
			<point x="646" y="423"/>
			<point x="665" y="433"/>
			<point x="665" y="441" type="curve" smooth="yes"/>
			<point x="665" y="791" type="line"/>
			<point x="690" y="795"/>
			<point x="700" y="804"/>
		</contour>
		<contour>
			<point x="637" y="683" type="curve"/>
			<point x="637" y="699" type="line"/>
			<point x="593" y="699" type="line"/>
			<point x="541" y="591"/>
			<point x="439" y="482"/>
			<point x="330" y="415" type="curve"/>
			<point x="342" y="397" type="line"/>
			<point x="467" y="463"/>
			<point x="581" y="573"/>
		</contour>
		<contour>
			<point x="671" y="690" type="curve"/>
			<point x="654" y="680" type="line"/>
			<point x="706" y="577"/>
			<point x="809" y="479"/>
			<point x="922" y="425" type="curve"/>
			<point x="928" y="445"/>
			<point x="942" y="456"/>
			<point x="961" y="458" type="curve"/>
			<point x="963" y="468" type="line"/>
			<point x="845" y="509"/>
			<point x="733" y="595"/>
		</contour>
		<contour>
			<point x="456" y="426" type="line"/>
			<point x="456" y="-23" type="line"/>
			<point x="506" y="-23" type="line"/>
			<point x="506" y="367" type="line"/>
			<point x="787" y="367" type="line"/>
			<point x="787" y="-24" type="line"/>
			<point x="838" y="-24" type="line"/>
			<point x="838" y="359" type="line"/>
			<point x="862" y="362"/>
			<point x="875" y="367"/>
			<point x="883" y="378" type="curve"/>
			<point x="807" y="436" type="line"/>
			<point x="776" y="397" type="line"/>
			<point x="518" y="397" type="line"/>
		</contour>
		<contour>
			<point x="795" y="237" type="line"/>
			<point x="795" y="267" type="line"/>
			<point x="499" y="267" type="line"/>
			<point x="499" y="237" type="line"/>
		</contour>
		<contour>
			<point x="795" y="102" type="line"/>
			<point x="795" y="132" type="line"/>
			<point x="499" y="132" type="line"/>
			<point x="499" y="102" type="line"/>
		</contour>
		<contour>
			<point x="893" y="41" type="curve"/>
			<point x="852" y="-9" type="line"/>
			<point x="306" y="-9" type="line"/>
			<point x="314" y="-39" type="line"/>
			<point x="942" y="-39" type="line" smooth="yes"/>
			<point x="956" y="-39"/>
			<point x="966" y="-34"/>
			<point x="969" y="-23" type="curve"/>
			<point x="939" y="5"/>
			<point x="893" y="41"/>
		</contour>
	</outline>
</glyph>
<glyph name="uni567A.HK" format="2">
	<advance width="1000" height="1000"/>
	<note>
		cid12936
	</note>
	<outline>
		<contour>
			<point x="581" y="725" type="curve"/>
			<point x="542" y="677" type="line"/>
			<point x="301" y="677" type="line"/>
			<point x="308" y="648" type="line"/>
			<point x="629" y="648" type="line" smooth="yes"/>
			<point x="642" y="648"/>
			<point x="651" y="653"/>
			<point x="654" y="664" type="curve"/>
			<point x="626" y="690"/>
			<point x="581" y="725"/>
		</contour>
		<contour>
			<point x="894" y="563" type="curve"/>
			<point x="853" y="512" type="line"/>
			<point x="681" y="512" type="line"/>
			<point x="681" y="483" type="line"/>
			<point x="943" y="483" type="line" smooth="yes"/>
			<point x="957" y="483"/>
			<point x="966" y="488"/>
			<point x="968" y="499" type="curve"/>
			<point x="940" y="526"/>
			<point x="894" y="563"/>
		</contour>
		<contour>
			<point x="361" y="632" type="curve"/>
			<point x="347" y="626" type="line"/>
			<point x="372" y="583"/>
			<point x="386" y="528"/>
			<point x="383" y="483" type="curve"/>
			<point x="426" y="438"/>
			<point x="481" y="543"/>
		</contour>
		<contour>
			<point x="485" y="240" type="curve"/>
			<point x="474" y="232" type="line"/>
			<point x="512" y="205"/>
			<point x="555" y="155"/>
			<point x="564" y="113" type="curve"/>
			<point x="616" y="79"/>
			<point x="651" y="193"/>
		</contour>
		<contour>
			<point x="860" y="-59" type="curve" smooth="yes"/>
			<point x="860" y="512" type="line"/>
			<point x="816" y="512" type="line"/>
			<point x="816" y="-73" type="line"/>
			<point x="822" y="-73" type="line" smooth="yes"/>
			<point x="844" y="-73"/>
			<point x="860" y="-62"/>
		</contour>
		<contour>
			<point x="668" y="719" type="line"/>
			<point x="668" y="709" type="line"/>
			<point x="668" y="424" type="line" smooth="yes"/>
			<point x="668" y="243"/>
			<point x="655" y="64"/>
			<point x="548" y="-78" type="curve"/>
			<point x="565" y="-89" type="line"/>
			<point x="700" y="52"/>
			<point x="712" y="257"/>
			<point x="712" y="425" type="curve" smooth="yes"/>
			<point x="712" y="709" type="line"/>
			<point x="723" y="709" type="line"/>
			<point x="668" y="737" type="line"/>
		</contour>
		<contour>
			<point x="476" y="301" type="curve"/>
			<point x="476" y="316" type="line"/>
			<point x="429" y="316" type="line"/>
			<point x="387" y="199"/>
			<point x="315" y="88"/>
			<point x="218" y="5" type="curve"/>
			<point x="230" y="-12" type="line"/>
			<point x="344" y="69"/>
			<point x="427" y="175"/>
		</contour>
		<contour>
			<point x="620" y="615" type="curve"/>
			<point x="542" y="644" type="line"/>
			<point x="533" y="596"/>
			<point x="511" y="514"/>
			<point x="492" y="458" type="curve"/>
			<point x="502" y="453" type="line"/>
			<point x="533" y="498"/>
			<point x="568" y="557"/>
			<point x="587" y="597" type="curve"/>
			<point x="607" y="595"/>
			<point x="618" y="606"/>
		</contour>
		<contour>
			<point x="79" y="755" type="line"/>
			<point x="79" y="729" type="line"/>
			<point x="79" y="90" type="line"/>
			<point x="87" y="90" type="line" smooth="yes"/>
			<point x="107" y="90"/>
			<point x="122" y="102"/>
			<point x="122" y="107" type="curve" smooth="yes"/>
			<point x="122" y="699" type="line"/>
			<point x="263" y="699" type="line"/>
			<point x="263" y="729" type="line"/>
			<point x="127" y="729" type="line"/>
		</contour>
		<contour>
			<point x="222" y="729" type="line"/>
			<point x="232" y="729" type="line"/>
			<point x="232" y="145" type="line"/>
			<point x="237" y="145" type="line" smooth="yes"/>
			<point x="253" y="145"/>
			<point x="275" y="158"/>
			<point x="276" y="165" type="curve"/>
			<point x="276" y="690" type="line"/>
			<point x="296" y="694"/>
			<point x="312" y="701"/>
			<point x="319" y="709" type="curve"/>
			<point x="251" y="762" type="line"/>
		</contour>
		<contour>
			<point x="254" y="236" type="line"/>
			<point x="102" y="236" type="line"/>
			<point x="102" y="207" type="line"/>
			<point x="254" y="207" type="line"/>
		</contour>
		<contour>
			<point x="591" y="513" type="curve"/>
			<point x="552" y="464" type="line"/>
			<point x="292" y="464" type="line"/>
			<point x="300" y="434" type="line"/>
			<point x="639" y="434" type="line" smooth="yes"/>
			<point x="653" y="434"/>
			<point x="662" y="439"/>
			<point x="665" y="450" type="curve"/>
			<point x="636" y="478"/>
			<point x="591" y="513"/>
		</contour>
		<contour>
			<point x="584" y="366" type="curve"/>
			<point x="545" y="316" type="line"/>
			<point x="294" y="316" type="line"/>
			<point x="302" y="287" type="line"/>
			<point x="632" y="287" type="line" smooth="yes"/>
			<point x="645" y="287"/>
			<point x="655" y="292"/>
			<point x="657" y="302" type="curve"/>
			<point x="630" y="330"/>
			<point x="584" y="366"/>
		</contour>
		<contour>
			<point x="948" y="755" type="curve"/>
			<point x="892" y="806" type="line"/>
			<point x="849" y="778"/>
			<point x="760" y="731"/>
			<point x="692" y="704" type="curve"/>
			<point x="697" y="692" type="line"/>
			<point x="777" y="705"/>
			<point x="870" y="736"/>
			<point x="919" y="754" type="curve"/>
			<point x="932" y="749"/>
			<point x="942" y="749"/>
		</contour>
		<contour>
			<point x="516" y="410" type="curve"/>
			<point x="440" y="419" type="line"/>
			<point x="440" y="-73" type="line"/>
			<point x="449" y="-73" type="line" smooth="yes"/>
			<point x="466" y="-73"/>
			<point x="485" y="-61"/>
			<point x="485" y="-53" type="curve" smooth="yes"/>
			<point x="485" y="385" type="line"/>
			<point x="506" y="388"/>
			<point x="514" y="397"/>
		</contour>
		<contour>
			<point x="547" y="833" type="curve"/>
			<point x="515" y="795" type="line"/>
			<point x="345" y="795" type="line"/>
			<point x="353" y="765" type="line"/>
			<point x="580" y="765" type="line" smooth="yes"/>
			<point x="593" y="765"/>
			<point x="602" y="770"/>
			<point x="605" y="781" type="curve"/>
			<point x="582" y="804"/>
			<point x="547" y="833"/>
		</contour>
	</outline>
</glyph>
<glyph name="uni5AFA.HK" format="2">
	<advance width="1000" height="1000"/>
	<note>
		cid15135
	</note>
	<outline>
		<contour>
			<point x="565" y="654" type="line"/>
			<point x="375" y="654" type="line"/>
			<point x="375" y="625" type="line"/>
			<point x="565" y="625" type="line"/>
		</contour>
		<contour>
			<point x="565" y="528" type="line"/>
			<point x="375" y="528" type="line"/>
			<point x="375" y="499" type="line"/>
			<point x="565" y="499" type="line"/>
		</contour>
		<contour>
			<point x="726" y="397" type="line"/>
			<point x="540" y="397" type="line"/>
			<point x="540" y="367" type="line"/>
			<point x="726" y="367" type="line"/>
		</contour>
		<contour>
			<point x="890" y="654" type="line"/>
			<point x="685" y="654" type="line"/>
			<point x="685" y="625" type="line"/>
			<point x="890" y="625" type="line"/>
		</contour>
		<contour>
			<point x="890" y="528" type="line"/>
			<point x="685" y="528" type="line"/>
			<point x="685" y="499" type="line"/>
			<point x="890" y="499" type="line"/>
		</contour>
		<contour>
			<point x="534" y="777" type="line"/>
			<point x="544" y="777" type="line"/>
			<point x="544" y="445" type="line"/>
			<point x="550" y="445" type="line" smooth="yes"/>
			<point x="565" y="445"/>
			<point x="587" y="458"/>
			<point x="588" y="464" type="curve"/>
			<point x="588" y="738" type="line"/>
			<point x="608" y="742"/>
			<point x="625" y="750"/>
			<point x="631" y="758" type="curve"/>
			<point x="564" y="810" type="line"/>
		</contour>
		<contour>
			<point x="663" y="802" type="line"/>
			<point x="663" y="777" type="line"/>
			<point x="663" y="449" type="line"/>
			<point x="670" y="449" type="line" smooth="yes"/>
			<point x="689" y="449"/>
			<point x="707" y="460"/>
			<point x="707" y="465" type="curve" smooth="yes"/>
			<point x="707" y="748" type="line"/>
			<point x="894" y="748" type="line"/>
			<point x="894" y="777" type="line"/>
			<point x="712" y="777" type="line"/>
		</contour>
		<contour>
			<point x="352" y="804" type="line"/>
			<point x="352" y="777" type="line"/>
			<point x="352" y="-73" type="line"/>
			<point x="361" y="-73" type="line" smooth="yes"/>
			<point x="382" y="-73"/>
			<point x="396" y="-61"/>
			<point x="396" y="-54" type="curve" smooth="yes"/>
			<point x="396" y="748" type="line"/>
			<point x="567" y="748" type="line"/>
			<point x="567" y="777" type="line"/>
			<point x="401" y="777" type="line"/>
		</contour>
		<contour>
			<point x="856" y="777" type="line"/>
			<point x="866" y="777" type="line"/>
			<point x="866" y="10" type="line" smooth="yes"/>
			<point x="866" y="-5"/>
			<point x="862" y="-10"/>
			<point x="846" y="-10" type="curve" smooth="yes"/>
			<point x="830" y="-10"/>
			<point x="756" y="-4"/>
			<point x="756" y="-4" type="curve"/>
			<point x="756" y="-21" type="line"/>
			<point x="788" y="-24"/>
			<point x="808" y="-30"/>
			<point x="820" y="-38" type="curve" smooth="yes"/>
			<point x="830" y="-46"/>
			<point x="834" y="-60"/>
			<point x="836" y="-73" type="curve"/>
			<point x="903" y="-66"/>
			<point x="910" y="-38"/>
			<point x="910" y="4" type="curve" smooth="yes"/>
			<point x="910" y="737" type="line"/>
			<point x="931" y="741"/>
			<point x="948" y="750"/>
			<point x="955" y="757" type="curve"/>
			<point x="883" y="812" type="line"/>
		</contour>
		<contour>
			<point x="693" y="397" type="line"/>
			<point x="700" y="397" type="line"/>
			<point x="700" y="53" type="line" smooth="yes"/>
			<point x="700" y="40"/>
			<point x="697" y="36"/>
			<point x="683" y="36" type="curve" smooth="yes"/>
			<point x="667" y="36"/>
			<point x="602" y="40"/>
			<point x="602" y="40" type="curve"/>
			<point x="602" y="25" type="line"/>
			<point x="631" y="21"/>
			<point x="649" y="16"/>
			<point x="660" y="8" type="curve" smooth="yes"/>
			<point x="670" y="1"/>
			<point x="674" y="-12"/>
			<point x="675" y="-24" type="curve"/>
			<point x="738" y="-17"/>
			<point x="745" y="8"/>
			<point x="745" y="47" type="curve" smooth="yes"/>
			<point x="745" y="363" type="line"/>
			<point x="761" y="366"/>
			<point x="774" y="372"/>
			<point x="780" y="378" type="curve"/>
			<point x="715" y="427" type="line"/>
		</contour>
		<contour>
			<point x="512" y="425" type="line"/>
			<point x="512" y="397" type="line"/>
			<point x="512" y="254" type="line" smooth="yes"/>
			<point x="512" y="150"/>
			<point x="504" y="55"/>
			<point x="453" y="-17" type="curve"/>
			<point x="468" y="-28" type="line"/>
			<point x="544" y="44"/>
			<point x="556" y="146"/>
			<point x="556" y="254" type="curve" smooth="yes"/>
			<point x="556" y="397" type="line"/>
			<point x="566" y="397" type="line"/>
		</contour>
		<contour>
			<point x="288" y="621" type="line"/>
			<point x="40" y="621" type="line"/>
			<point x="49" y="591" type="line"/>
			<point x="288" y="591" type="line"/>
		</contour>
		<contour>
			<point x="233" y="824" type="curve"/>
			<point x="156" y="833" type="line"/>
			<point x="143" y="678"/>
			<point x="87" y="352"/>
			<point x="49" y="212" type="curve"/>
			<point x="69" y="207"/>
			<point x="86" y="208"/>
			<point x="95" y="215" type="curve"/>
			<point x="132" y="382"/>
			<point x="179" y="659"/>
			<point x="196" y="798" type="curve"/>
			<point x="222" y="801"/>
			<point x="230" y="810"/>
		</contour>
		<contour>
			<point x="94" y="308" type="curve"/>
			<point x="82" y="299" type="line"/>
			<point x="156" y="242"/>
			<point x="252" y="142"/>
			<point x="273" y="63" type="curve"/>
			<point x="333" y="22"/>
			<point x="358" y="175"/>
		</contour>
		<contour>
			<point x="247" y="621" type="line"/>
			<point x="256" y="621" type="line"/>
			<point x="245" y="373"/>
			<point x="210" y="119"/>
			<point x="39" y="-51" type="curve"/>
			<point x="51" y="-65" type="line"/>
			<point x="250" y="101"/>
			<point x="285" y="353"/>
			<point x="302" y="585" type="curve"/>
			<point x="321" y="587"/>
			<point x="331" y="590"/>
			<point x="338" y="599" type="curve"/>
			<point x="278" y="653" type="line"/>
		</contour>
		<contour>
			<point x="637" y="315" type="curve"/>
			<point x="611" y="287" type="line"/>
			<point x="534" y="287" type="line"/>
			<point x="534" y="257" type="line"/>
			<point x="662" y="257" type="line" smooth="yes"/>
			<point x="675" y="257"/>
			<point x="684" y="262"/>
			<point x="686" y="273" type="curve"/>
			<point x="666" y="293"/>
			<point x="637" y="315"/>
		</contour>
		<contour>
			<point x="637" y="205" type="curve"/>
			<point x="611" y="177" type="line"/>
			<point x="534" y="177" type="line"/>
			<point x="534" y="147" type="line"/>
			<point x="662" y="147" type="line" smooth="yes"/>
			<point x="675" y="147"/>
			<point x="684" y="152"/>
			<point x="686" y="163" type="curve"/>
			<point x="666" y="183"/>
			<point x="637" y="205"/>
		</contour>
	</outline>
</glyph>
<glyph name="uni65B0.HK" format="2">
	<advance width="1000" height="1000"/>
	<note>
		cid20073
	</note>
	<outline>
		<contour>
			<point x="393" y="833" type="curve"/>
			<point x="361" y="795" type="line"/>
			<point x="121" y="795" type="line"/>
			<point x="129" y="765" type="line"/>
			<point x="426" y="765" type="line" smooth="yes"/>
			<point x="439" y="765"/>
			<point x="448" y="770"/>
			<point x="451" y="781" type="curve"/>
			<point x="428" y="804"/>
			<point x="393" y="833"/>
		</contour>
		<contour>
			<point x="443" y="739" type="curve"/>
			<point x="409" y="695" type="line"/>
			<point x="62" y="695" type="line"/>
			<point x="70" y="666" type="line"/>
			<point x="485" y="666" type="line" smooth="yes"/>
			<point x="499" y="666"/>
			<point x="507" y="671"/>
			<point x="510" y="682" type="curve"/>
			<point x="485" y="706"/>
			<point x="443" y="739"/>
		</contour>
		<contour>
			<point x="144" y="656" type="curve"/>
			<point x="130" y="650" type="line"/>
			<point x="155" y="610"/>
			<point x="182" y="545"/>
			<point x="183" y="496" type="curve"/>
			<point x="228" y="453"/>
			<point x="278" y="556"/>
		</contour>
		<contour>
			<point x="448" y="632" type="curve"/>
			<point x="367" y="657" type="line"/>
			<point x="354" y="598"/>
			<point x="330" y="517"/>
			<point x="308" y="463" type="curve"/>
			<point x="329" y="463" type="line"/>
			<point x="362" y="509"/>
			<point x="393" y="569"/>
			<point x="412" y="614" type="curve"/>
			<point x="433" y="613"/>
			<point x="444" y="622"/>
		</contour>
		<contour>
			<point x="458" y="529" type="curve"/>
			<point x="418" y="479" type="line"/>
			<point x="42" y="479" type="line"/>
			<point x="50" y="449" type="line"/>
			<point x="508" y="449" type="line" smooth="yes"/>
			<point x="522" y="449"/>
			<point x="532" y="454"/>
			<point x="534" y="465" type="curve"/>
			<point x="505" y="493"/>
			<point x="458" y="529"/>
		</contour>
		<contour>
			<point x="449" y="373" type="curve"/>
			<point x="410" y="325" type="line"/>
			<point x="53" y="325" type="line"/>
			<point x="61" y="296" type="line"/>
			<point x="496" y="296" type="line" smooth="yes"/>
			<point x="509" y="296"/>
			<point x="518" y="301"/>
			<point x="521" y="311" type="curve"/>
			<point x="494" y="338"/>
			<point x="449" y="373"/>
		</contour>
		<contour>
			<point x="331" y="427" type="curve"/>
			<point x="254" y="436" type="line"/>
			<point x="254" y="-74" type="line"/>
			<point x="264" y="-74" type="line" smooth="yes"/>
			<point x="280" y="-74"/>
			<point x="299" y="-62"/>
			<point x="299" y="-55" type="curve" smooth="yes"/>
			<point x="299" y="402" type="line"/>
			<point x="320" y="405"/>
			<point x="329" y="414"/>
		</contour>
		<contour>
			<point x="287" y="309" type="curve"/>
			<point x="287" y="325" type="line"/>
			<point x="237" y="325" type="line"/>
			<point x="199" y="210"/>
			<point x="131" y="100"/>
			<point x="41" y="15" type="curve"/>
			<point x="54" y="-1" type="line"/>
			<point x="161" y="80"/>
			<point x="239" y="186"/>
		</contour>
		<contour>
			<point x="299" y="244" type="curve"/>
			<point x="289" y="235" type="line"/>
			<point x="341" y="202"/>
			<point x="406" y="140"/>
			<point x="424" y="90" type="curve"/>
			<point x="483" y="57"/>
			<point x="507" y="185"/>
		</contour>
		<contour>
			<point x="938" y="781" type="curve"/>
			<point x="876" y="832" type="line"/>
			<point x="815" y="799"/>
			<point x="695" y="753"/>
			<point x="597" y="728" type="curve"/>
			<point x="603" y="710" type="line"/>
			<point x="704" y="724"/>
			<point x="822" y="756"/>
			<point x="894" y="780" type="curve"/>
			<point x="915" y="773"/>
			<point x="930" y="772"/>
		</contour>
		<contour>
			<point x="631" y="731" type="curve"/>
			<point x="566" y="755" type="line"/>
			<point x="566" y="431" type="line" smooth="yes"/>
			<point x="566" y="240"/>
			<point x="538" y="73"/>
			<point x="380" y="-59" type="curve"/>
			<point x="395" y="-73" type="line"/>
			<point x="585" y="58"/>
			<point x="611" y="251"/>
			<point x="611" y="432" type="curve" smooth="yes"/>
			<point x="611" y="721" type="line"/>
			<point x="621" y="723"/>
			<point x="628" y="726"/>
		</contour>
		<contour>
			<point x="894" y="540" type="curve"/>
			<point x="852" y="490" type="line"/>
			<point x="597" y="490" type="line"/>
			<point x="597" y="460" type="line"/>
			<point x="944" y="460" type="line" smooth="yes"/>
			<point x="958" y="460"/>
			<point x="966" y="465"/>
			<point x="969" y="476" type="curve"/>
			<point x="940" y="503"/>
			<point x="894" y="540"/>
		</contour>
		<contour>
			<point x="825" y="-57" type="curve" smooth="yes"/>
			<point x="825" y="490" type="line"/>
			<point x="780" y="490" type="line"/>
			<point x="780" y="-74" type="line"/>
			<point x="786" y="-74" type="line" smooth="yes"/>
			<point x="809" y="-74"/>
			<point x="825" y="-61"/>
		</contour>
	</outline>
</glyph>
<glyph name="uni6757.JP" format="2">
	<advance width="1000" height="1000"/>
	<note>
		cid20769
	</note>
	<outline>
		<contour>
			<point x="558" y="824" type="curve"/>
			<point x="478" y="834" type="line"/>
			<point x="478" y="702" type="line"/>
			<point x="522" y="702" type="line"/>
			<point x="522" y="797" type="line"/>
			<point x="546" y="800"/>
			<point x="556" y="810"/>
		</contour>
		<contour>
			<point x="484" y="258" type="curve"/>
			<point x="484" y="273" type="line"/>
			<point x="431" y="273" type="line"/>
			<point x="344" y="155"/>
			<point x="205" y="47"/>
			<point x="48" y="-25" type="curve"/>
			<point x="57" y="-42" type="line"/>
			<point x="235" y="26"/>
			<point x="387" y="129"/>
		</contour>
		<contour>
			<point x="152" y="744" type="line"/>
			<point x="152" y="507" type="line" smooth="yes"/>
			<point x="152" y="453"/>
			<point x="172" y="445"/>
			<point x="291" y="445" type="curve" smooth="yes"/>
			<point x="532" y="444" type="line" smooth="yes"/>
			<point x="833" y="443"/>
			<point x="871" y="450"/>
			<point x="871" y="477" type="curve" smooth="yes"/>
			<point x="871" y="486"/>
			<point x="863" y="490"/>
			<point x="837" y="496" type="curve" smooth="yes"/>
			<point x="833" y="497" type="line"/>
			<point x="824" y="497" type="line"/>
			<point x="816" y="494"/>
			<point x="805" y="492"/>
			<point x="796" y="490" type="curve" smooth="yes"/>
			<point x="788" y="489"/>
			<point x="777" y="488"/>
			<point x="762" y="487" type="curve" smooth="yes"/>
			<point x="733" y="485"/>
			<point x="638" y="484"/>
			<point x="533" y="484" type="curve" smooth="yes"/>
			<point x="288" y="484" type="line" smooth="yes"/>
			<point x="200" y="484"/>
			<point x="196" y="489"/>
			<point x="196" y="509" type="curve" smooth="yes"/>
			<point x="196" y="717" type="line"/>
			<point x="208" y="717" type="line"/>
		</contour>
		<contour>
			<point x="823" y="767" type="curve"/>
			<point x="783" y="717" type="line"/>
			<point x="168" y="717" type="line"/>
			<point x="176" y="687" type="line"/>
			<point x="874" y="687" type="line" smooth="yes"/>
			<point x="887" y="687"/>
			<point x="896" y="692"/>
			<point x="899" y="703" type="curve"/>
			<point x="870" y="731"/>
			<point x="823" y="767"/>
		</contour>
		<contour>
			<point x="527" y="278" type="curve"/>
			<point x="510" y="268" type="line"/>
			<point x="591" y="138"/>
			<point x="743" y="19"/>
			<point x="905" y="-41" type="curve"/>
			<point x="913" y="-17"/>
			<point x="932" y="-2"/>
			<point x="953" y="0" type="curve"/>
			<point x="954" y="11" type="line"/>
			<point x="787" y="56"/>
			<point x="622" y="159"/>
		</contour>
		<contour>
			<point x="867" y="347" type="curve"/>
			<point x="822" y="293" type="line"/>
			<point x="59" y="293" type="line"/>
			<point x="68" y="263" type="line"/>
			<point x="922" y="263" type="line" smooth="yes"/>
			<point x="936" y="263"/>
			<point x="946" y="268"/>
			<point x="949" y="279" type="curve"/>
			<point x="917" y="309"/>
			<point x="867" y="347"/>
		</contour>
		<contour>
			<point x="556" y="404" type="curve"/>
			<point x="476" y="414" type="line"/>
			<point x="476" y="-72" type="line"/>
			<point x="485" y="-72" type="line" smooth="yes"/>
			<point x="501" y="-72"/>
			<point x="520" y="-60"/>
			<point x="520" y="-52" type="curve" smooth="yes"/>
			<point x="520" y="377" type="line"/>
			<point x="545" y="380"/>
			<point x="553" y="390"/>
		</contour>
	</outline>
</glyph>
<glyph name="uni6AEC.HK" format="2">
	<advance width="1000" height="1000"/>
	<note>
		cid22332
	</note>
	<outline>
		<contour>
			<point x="494" y="239" type="curve"/>
			<point x="483" y="231" type="line"/>
			<point x="523" y="202"/>
			<point x="568" y="148"/>
			<point x="576" y="104" type="curve"/>
			<point x="631" y="66"/>
			<point x="668" y="187"/>
		</contour>
		<contour>
			<point x="579" y="729" type="curve"/>
			<point x="548" y="690" type="line"/>
			<point x="326" y="690" type="line"/>
			<point x="334" y="661" type="line"/>
			<point x="613" y="661" type="line" smooth="yes"/>
			<point x="626" y="661"/>
			<point x="634" y="666"/>
			<point x="637" y="677" type="curve"/>
			<point x="615" y="699"/>
			<point x="579" y="729"/>
		</contour>
		<contour>
			<point x="590" y="511" type="curve"/>
			<point x="559" y="473" type="line"/>
			<point x="317" y="473" type="line"/>
			<point x="325" y="443" type="line"/>
			<point x="624" y="443" type="line" smooth="yes"/>
			<point x="636" y="443"/>
			<point x="645" y="448"/>
			<point x="648" y="459" type="curve"/>
			<point x="626" y="482"/>
			<point x="590" y="511"/>
		</contour>
		<contour>
			<point x="588" y="361" type="curve"/>
			<point x="558" y="323" type="line"/>
			<point x="325" y="323" type="line"/>
			<point x="333" y="294" type="line"/>
			<point x="621" y="294" type="line" smooth="yes"/>
			<point x="634" y="294"/>
			<point x="643" y="299"/>
			<point x="645" y="309" type="curve"/>
			<point x="624" y="332"/>
			<point x="588" y="361"/>
		</contour>
		<contour>
			<point x="386" y="648" type="curve"/>
			<point x="371" y="643" type="line"/>
			<point x="389" y="603"/>
			<point x="403" y="543"/>
			<point x="399" y="493" type="curve"/>
			<point x="436" y="452"/>
			<point x="486" y="543"/>
		</contour>
		<contour>
			<point x="600" y="632" type="curve"/>
			<point x="525" y="652" type="line"/>
			<point x="514" y="586"/>
			<point x="499" y="510"/>
			<point x="485" y="455" type="curve"/>
			<point x="503" y="449" type="line"/>
			<point x="524" y="495"/>
			<point x="549" y="557"/>
			<point x="567" y="611" type="curve"/>
			<point x="586" y="612"/>
			<point x="597" y="621"/>
		</contour>
		<contour>
			<point x="488" y="307" type="curve"/>
			<point x="488" y="323" type="line"/>
			<point x="442" y="323" type="line"/>
			<point x="412" y="217"/>
			<point x="358" y="117"/>
			<point x="279" y="39" type="curve"/>
			<point x="292" y="22" type="line"/>
			<point x="385" y="98"/>
			<point x="449" y="194"/>
		</contour>
		<contour>
			<point x="655" y="809" type="line"/>
			<point x="655" y="783" type="line"/>
			<point x="655" y="220" type="line"/>
			<point x="663" y="220" type="line" smooth="yes"/>
			<point x="683" y="220"/>
			<point x="699" y="232"/>
			<point x="699" y="236" type="curve" smooth="yes"/>
			<point x="699" y="754" type="line"/>
			<point x="886" y="754" type="line"/>
			<point x="886" y="783" type="line"/>
			<point x="704" y="783" type="line"/>
		</contour>
		<contour>
			<point x="854" y="783" type="line"/>
			<point x="863" y="783" type="line"/>
			<point x="863" y="224" type="line"/>
			<point x="869" y="224" type="line" smooth="yes"/>
			<point x="885" y="224"/>
			<point x="906" y="237"/>
			<point x="907" y="243" type="curve"/>
			<point x="907" y="747" type="line"/>
			<point x="925" y="750"/>
			<point x="940" y="758"/>
			<point x="946" y="764" type="curve"/>
			<point x="883" y="815" type="line"/>
		</contour>
		<contour>
			<point x="884" y="622" type="line"/>
			<point x="679" y="622" type="line"/>
			<point x="679" y="592" type="line"/>
			<point x="884" y="592" type="line"/>
		</contour>
		<contour>
			<point x="884" y="460" type="line"/>
			<point x="679" y="460" type="line"/>
			<point x="679" y="431" type="line"/>
			<point x="884" y="431" type="line"/>
		</contour>
		<contour>
			<point x="884" y="285" type="line"/>
			<point x="679" y="285" type="line"/>
			<point x="679" y="255" type="line"/>
			<point x="884" y="255" type="line"/>
		</contour>
		<contour>
			<point x="530" y="425" type="curve"/>
			<point x="449" y="433" type="line"/>
			<point x="449" y="-72" type="line"/>
			<point x="459" y="-72" type="line" smooth="yes"/>
			<point x="475" y="-72"/>
			<point x="494" y="-60"/>
			<point x="494" y="-52" type="curve" smooth="yes"/>
			<point x="494" y="397" type="line"/>
			<point x="518" y="401"/>
			<point x="528" y="410"/>
		</contour>
		<contour>
			<point x="828" y="285" type="curve"/>
			<point x="784" y="285" type="line"/>
			<point x="784" y="-13" type="line" smooth="yes"/>
			<point x="784" y="-42"/>
			<point x="792" y="-56"/>
			<point x="834" y="-56" type="curve" smooth="yes"/>
			<point x="876" y="-56" type="line" smooth="yes"/>
			<point x="950" y="-56"/>
			<point x="968" y="-47"/>
			<point x="968" y="-28" type="curve" smooth="yes"/>
			<point x="968" y="-20"/>
			<point x="964" y="-14"/>
			<point x="949" y="-9" type="curve"/>
			<point x="945" y="86" type="line"/>
			<point x="933" y="86" type="line"/>
			<point x="926" y="48"/>
			<point x="918" y="3"/>
			<point x="913" y="-8" type="curve" smooth="yes"/>
			<point x="911" y="-14"/>
			<point x="908" y="-15"/>
			<point x="903" y="-15" type="curve" smooth="yes"/>
			<point x="898" y="-16"/>
			<point x="888" y="-16"/>
			<point x="874" y="-16" type="curve" smooth="yes"/>
			<point x="844" y="-16" type="line" smooth="yes"/>
			<point x="830" y="-16"/>
			<point x="828" y="-13"/>
			<point x="828" y="-2" type="curve" smooth="yes"/>
			<point x="828" y="256" type="line" smooth="yes"/>
			<point x="828" y="263"/>
			<point x="828" y="274"/>
		</contour>
		<contour>
			<point x="281" y="656" type="curve"/>
			<point x="243" y="605" type="line"/>
			<point x="48" y="605" type="line"/>
			<point x="56" y="575" type="line"/>
			<point x="325" y="575" type="line" smooth="yes"/>
			<point x="338" y="575"/>
			<point x="348" y="580"/>
			<point x="350" y="591" type="curve"/>
			<point x="324" y="619"/>
			<point x="281" y="656"/>
		</contour>
		<contour>
			<point x="223" y="589" type="curve"/>
			<point x="223" y="605" type="line"/>
			<point x="173" y="605" type="line"/>
			<point x="150" y="452"/>
			<point x="106" y="297"/>
			<point x="37" y="174" type="curve"/>
			<point x="52" y="161" type="line"/>
			<point x="139" y="282"/>
			<point x="193" y="430"/>
		</contour>
		<contour>
			<point x="257" y="829" type="curve"/>
			<point x="177" y="839" type="line"/>
			<point x="177" y="-70" type="line"/>
			<point x="187" y="-70" type="line" smooth="yes"/>
			<point x="203" y="-70"/>
			<point x="222" y="-58"/>
			<point x="222" y="-50" type="curve" smooth="yes"/>
			<point x="222" y="802" type="line"/>
			<point x="246" y="806"/>
			<point x="254" y="815"/>
		</contour>
		<contour>
			<point x="220" y="439" type="curve"/>
			<point x="206" y="433" type="line"/>
			<point x="231" y="393"/>
			<point x="262" y="327"/>
			<point x="269" y="279" type="curve"/>
			<point x="315" y="238"/>
			<point x="361" y="337"/>
		</contour>
		<contour>
			<point x="760" y="276" type="curve"/>
			<point x="708" y="276" type="line"/>
			<point x="699" y="132"/>
			<point x="663" y="28"/>
			<point x="553" y="-57" type="curve"/>
			<point x="562" y="-73" type="line"/>
			<point x="691" y="3"/>
			<point x="743" y="110"/>
		</contour>
		<contour>
			<point x="541" y="833" type="curve"/>
			<point x="509" y="795" type="line"/>
			<point x="364" y="795" type="line"/>
			<point x="372" y="765" type="line"/>
			<point x="574" y="765" type="line" smooth="yes"/>
			<point x="588" y="765"/>
			<point x="596" y="770"/>
			<point x="599" y="781" type="curve"/>
			<point x="576" y="804"/>
			<point x="541" y="833"/>
		</contour>
	</outline>
</glyph>
<glyph name="uni6C26.HK" format="2">
	<advance width="1000" height="1000"/>
	<note>
		cid22896
	</note>
	<outline>
		<contour>
			<point x="725" y="535" type="line"/>
			<point x="734" y="535" type="line"/>
			<point x="737" y="297"/>
			<point x="757" y="46"/>
			<point x="873" y="-42" type="curve"/>
			<point x="903" y="-69"/>
			<point x="939" y="-84"/>
			<point x="954" y="-66" type="curve" smooth="yes"/>
			<point x="961" y="-57"/>
			<point x="956" y="-46"/>
			<point x="938" y="-24" type="curve"/>
			<point x="951" y="103" type="line"/>
			<point x="938" y="105" type="line"/>
			<point x="930" y="73"/>
			<point x="920" y="40"/>
			<point x="910" y="10" type="curve" smooth="yes"/>
			<point x="906" y="-2"/>
			<point x="902" y="-3"/>
			<point x="892" y="5" type="curve" smooth="yes"/>
			<point x="801" y="73"/>
			<point x="778" y="315"/>
			<point x="780" y="496" type="curve"/>
			<point x="801" y="499"/>
			<point x="815" y="504"/>
			<point x="821" y="511" type="curve"/>
			<point x="756" y="567" type="line"/>
		</contour>
		<contour>
			<point x="782" y="535" type="line"/>
			<point x="140" y="535" type="line"/>
			<point x="149" y="505" type="line"/>
			<point x="782" y="505" type="line"/>
		</contour>
		<contour>
			<point x="779" y="686" type="curve"/>
			<point x="738" y="634" type="line"/>
			<point x="247" y="634" type="line"/>
			<point x="255" y="605" type="line"/>
			<point x="829" y="605" type="line" smooth="yes"/>
			<point x="843" y="605"/>
			<point x="853" y="610"/>
			<point x="856" y="621" type="curve"/>
			<point x="827" y="648"/>
			<point x="779" y="686"/>
		</contour>
		<contour>
			<point x="832" y="787" type="curve"/>
			<point x="789" y="734" type="line"/>
			<point x="243" y="734" type="line"/>
			<point x="229" y="704" type="line"/>
			<point x="887" y="704" type="line" smooth="yes"/>
			<point x="900" y="704"/>
			<point x="910" y="709"/>
			<point x="912" y="720" type="curve"/>
			<point x="881" y="751"/>
			<point x="832" y="787"/>
		</contour>
		<contour>
			<point x="357" y="804" type="curve"/>
			<point x="280" y="833" type="line"/>
			<point x="237" y="725"/>
			<point x="149" y="596"/>
			<point x="59" y="523" type="curve"/>
			<point x="73" y="510" type="line"/>
			<point x="175" y="578"/>
			<point x="271" y="697"/>
			<point x="321" y="795" type="curve"/>
			<point x="344" y="791"/>
			<point x="352" y="794"/>
		</contour>
		<contour>
			<point x="637" y="404" type="curve"/>
			<point x="594" y="351" type="line"/>
			<point x="90" y="351" type="line"/>
			<point x="98" y="321" type="line"/>
			<point x="691" y="321" type="line" smooth="yes"/>
			<point x="704" y="321"/>
			<point x="713" y="326"/>
			<point x="716" y="337" type="curve"/>
			<point x="686" y="366"/>
			<point x="637" y="404"/>
		</contour>
		<contour>
			<point x="552" y="499" type="curve"/>
			<point x="509" y="445" type="line"/>
			<point x="189" y="445" type="line"/>
			<point x="197" y="416" type="line"/>
			<point x="606" y="416" type="line" smooth="yes"/>
			<point x="620" y="416"/>
			<point x="629" y="421"/>
			<point x="631" y="432" type="curve"/>
			<point x="601" y="460"/>
			<point x="552" y="499"/>
		</contour>
		<contour>
			<point x="175" y="294" type="curve"/>
			<point x="166" y="283" type="line"/>
			<point x="212" y="260"/>
			<point x="267" y="213"/>
			<point x="285" y="173" type="curve"/>
			<point x="340" y="147"/>
			<point x="359" y="261"/>
		</contour>
		<contour>
			<point x="562" y="273" type="curve"/>
			<point x="493" y="312" type="line"/>
			<point x="420" y="214"/>
			<point x="264" y="113"/>
			<point x="109" y="61" type="curve"/>
			<point x="118" y="45" type="line"/>
			<point x="285" y="88"/>
			<point x="445" y="178"/>
			<point x="524" y="266" type="curve"/>
			<point x="547" y="260"/>
			<point x="555" y="263"/>
		</contour>
		<contour>
			<point x="664" y="198" type="curve"/>
			<point x="597" y="239" type="line"/>
			<point x="499" y="105"/>
			<point x="285" y="-9"/>
			<point x="60" y="-58" type="curve"/>
			<point x="66" y="-75" type="line"/>
			<point x="305" y="-36"/>
			<point x="522" y="71"/>
			<point x="626" y="193" type="curve"/>
			<point x="647" y="186"/>
			<point x="656" y="189"/>
		</contour>
		<contour>
			<point x="418" y="333" type="curve"/>
			<point x="418" y="349" type="line"/>
			<point x="358" y="349" type="line"/>
			<point x="337" y="317"/>
			<point x="304" y="283"/>
			<point x="268" y="255" type="curve"/>
			<point x="282" y="237" type="line"/>
			<point x="334" y="263"/>
			<point x="385" y="296"/>
		</contour>
		<contour>
			<point x="467" y="87" type="curve"/>
			<point x="459" y="74" type="line"/>
			<point x="550" y="37"/>
			<point x="646" y="-20"/>
			<point x="708" y="-72" type="curve"/>
			<point x="771" y="-88"/>
			<point x="770" y="24"/>
		</contour>
	</outline>
</glyph>
<glyph name="uni7684.HK" format="2">
	<advance width="1000" height="1000"/>
	<note>
		cid27570
	</note>
	<outline>
		<contour>
			<point x="140" y="-28" type="curve" smooth="yes"/>
			<point x="140" y="632" type="line"/>
			<point x="404" y="632" type="line"/>
			<point x="404" y="662" type="line"/>
			<point x="145" y="662" type="line"/>
			<point x="96" y="689" type="line"/>
			<point x="96" y="-45" type="line"/>
			<point x="105" y="-45" type="line" smooth="yes"/>
			<point x="125" y="-45"/>
			<point x="140" y="-34"/>
		</contour>
		<contour>
			<point x="316" y="815" type="curve"/>
			<point x="235" y="834" type="line"/>
			<point x="221" y="774"/>
			<point x="198" y="687"/>
			<point x="184" y="639" type="curve"/>
			<point x="206" y="639" type="line"/>
			<point x="228" y="681"/>
			<point x="260" y="747"/>
			<point x="280" y="795" type="curve"/>
			<point x="300" y="795"/>
			<point x="312" y="802"/>
		</contour>
		<contour>
			<point x="949" y="642" type="curve"/>
			<point x="881" y="698" type="line"/>
			<point x="850" y="662" type="line"/>
			<point x="861" y="662" type="line"/>
			<point x="854" y="303"/>
			<point x="838" y="51"/>
			<point x="799" y="12" type="curve" smooth="yes"/>
			<point x="788" y="0"/>
			<point x="781" y="-2"/>
			<point x="760" y="-2" type="curve" smooth="yes"/>
			<point x="737" y="-2"/>
			<point x="664" y="5"/>
			<point x="619" y="10" type="curve"/>
			<point x="618" y="-9" type="line"/>
			<point x="656" y="-15"/>
			<point x="700" y="-25"/>
			<point x="715" y="-34" type="curve" smooth="yes"/>
			<point x="729" y="-42"/>
			<point x="733" y="-57"/>
			<point x="733" y="-72" type="curve"/>
			<point x="774" y="-72"/>
			<point x="813" y="-58"/>
			<point x="837" y="-25" type="curve" smooth="yes"/>
			<point x="881" y="31"/>
			<point x="900" y="271"/>
			<point x="907" y="628" type="curve"/>
			<point x="929" y="629"/>
			<point x="941" y="634"/>
		</contour>
		<contour>
			<point x="460" y="642" type="curve"/>
			<point x="392" y="695" type="line"/>
			<point x="362" y="662" type="line"/>
			<point x="372" y="662" type="line"/>
			<point x="372" y="-18" type="line"/>
			<point x="378" y="-18" type="line" smooth="yes"/>
			<point x="394" y="-18"/>
			<point x="415" y="-4"/>
			<point x="416" y="2" type="curve"/>
			<point x="416" y="623" type="line"/>
			<point x="436" y="627"/>
			<point x="454" y="634"/>
		</contour>
		<contour>
			<point x="898" y="632" type="line"/>
			<point x="898" y="662" type="line"/>
			<point x="586" y="662" type="line"/>
			<point x="573" y="632" type="line"/>
		</contour>
		<contour>
			<point x="692" y="809" type="curve"/>
			<point x="612" y="833" type="line"/>
			<point x="576" y="678"/>
			<point x="510" y="529"/>
			<point x="441" y="432" type="curve"/>
			<point x="456" y="421" type="line"/>
			<point x="538" y="509"/>
			<point x="609" y="646"/>
			<point x="655" y="790" type="curve"/>
			<point x="677" y="789"/>
			<point x="688" y="799"/>
		</contour>
		<contour>
			<point x="410" y="352" type="line"/>
			<point x="410" y="382" type="line"/>
			<point x="120" y="382" type="line"/>
			<point x="120" y="352" type="line"/>
		</contour>
		<contour>
			<point x="410" y="57" type="line"/>
			<point x="410" y="87" type="line"/>
			<point x="120" y="87" type="line"/>
			<point x="120" y="57" type="line"/>
		</contour>
		<contour>
			<point x="721" y="413" type="curve"/>
			<point x="680" y="362" type="line"/>
			<point x="488" y="362" type="line"/>
			<point x="496" y="332" type="line"/>
			<point x="772" y="332" type="line" smooth="yes"/>
			<point x="786" y="332"/>
			<point x="796" y="337"/>
			<point x="798" y="348" type="curve"/>
			<point x="768" y="376"/>
			<point x="721" y="413"/>
		</contour>
	</outline>
</glyph>
<glyph name="uni7D00.HK" format="2">
	<advance width="1000" height="1000"/>
	<note>
		cid30664
	</note>
	<outline>
		<contour>
			<point x="847" y="762" type="line"/>
			<point x="449" y="762" type="line"/>
			<point x="458" y="733" type="line"/>
			<point x="847" y="733" type="line"/>
		</contour>
		<contour>
			<point x="823" y="762" type="line"/>
			<point x="832" y="762" type="line"/>
			<point x="832" y="348" type="line"/>
			<point x="838" y="348" type="line" smooth="yes"/>
			<point x="853" y="348"/>
			<point x="876" y="361"/>
			<point x="877" y="367" type="curve"/>
			<point x="877" y="723" type="line"/>
			<point x="895" y="727"/>
			<point x="913" y="735"/>
			<point x="919" y="743" type="curve"/>
			<point x="852" y="795" type="line"/>
		</contour>
		<contour>
			<point x="861" y="443" type="line"/>
			<point x="510" y="443" type="line"/>
			<point x="510" y="414" type="line"/>
			<point x="861" y="414" type="line"/>
		</contour>
		<contour>
			<point x="299" y="805" type="curve"/>
			<point x="224" y="834" type="line"/>
			<point x="198" y="762"/>
			<point x="164" y="685"/>
			<point x="135" y="635" type="curve"/>
			<point x="151" y="626" type="line"/>
			<point x="188" y="667"/>
			<point x="231" y="731"/>
			<point x="262" y="788" type="curve"/>
			<point x="283" y="786"/>
			<point x="294" y="795"/>
		</contour>
		<contour>
			<point x="405" y="687" type="curve"/>
			<point x="331" y="719" type="line"/>
			<point x="282" y="613"/>
			<point x="195" y="471"/>
			<point x="121" y="376" type="curve"/>
			<point x="146" y="376" type="line"/>
			<point x="228" y="462"/>
			<point x="315" y="583"/>
			<point x="366" y="672" type="curve"/>
			<point x="386" y="669"/>
			<point x="400" y="676"/>
		</contour>
		<contour>
			<point x="47" y="398" type="curve"/>
			<point x="67" y="337" type="line"/>
			<point x="77" y="339"/>
			<point x="86" y="345"/>
			<point x="91" y="357" type="curve"/>
			<point x="221" y="374"/>
			<point x="321" y="390"/>
			<point x="395" y="403" type="curve"/>
			<point x="394" y="421" type="line"/>
			<point x="249" y="410"/>
			<point x="108" y="399"/>
		</contour>
		<contour>
			<point x="65" y="682" type="curve"/>
			<point x="54" y="673" type="line"/>
			<point x="98" y="641"/>
			<point x="151" y="583"/>
			<point x="164" y="538" type="curve"/>
			<point x="213" y="506"/>
			<point x="240" y="616"/>
		</contour>
		<contour>
			<point x="316" y="521" type="curve"/>
			<point x="303" y="515" type="line"/>
			<point x="336" y="468"/>
			<point x="374" y="391"/>
			<point x="378" y="335" type="curve"/>
			<point x="427" y="292"/>
			<point x="472" y="407"/>
		</contour>
		<contour>
			<point x="328" y="304" type="curve"/>
			<point x="313" y="300" type="line"/>
			<point x="341" y="245"/>
			<point x="371" y="161"/>
			<point x="372" y="98" type="curve"/>
			<point x="420" y="49"/>
			<point x="470" y="169"/>
		</contour>
		<contour>
			<point x="273" y="-55" type="curve" smooth="yes"/>
			<point x="273" y="395" type="line"/>
			<point x="229" y="392" type="line"/>
			<point x="229" y="-72" type="line"/>
			<point x="235" y="-72" type="line" smooth="yes"/>
			<point x="256" y="-72"/>
			<point x="273" y="-60"/>
		</contour>
		<contour>
			<point x="202" y="282" type="curve"/>
			<point x="126" y="302" type="line"/>
			<point x="111" y="189"/>
			<point x="80" y="74"/>
			<point x="42" y="-6" type="curve"/>
			<point x="60" y="-15" type="line"/>
			<point x="107" y="56"/>
			<point x="145" y="162"/>
			<point x="168" y="261" type="curve"/>
			<point x="188" y="261"/>
			<point x="198" y="271"/>
		</contour>
		<contour>
			<point x="531" y="13" type="curve" smooth="yes"/>
			<point x="531" y="160" type="line"/>
			<point x="487" y="160" type="line"/>
			<point x="487" y="7" type="line" smooth="yes"/>
			<point x="487" y="-40"/>
			<point x="505" y="-54"/>
			<point x="588" y="-54" type="curve" smooth="yes"/>
			<point x="730" y="-54" type="line" smooth="yes"/>
			<point x="920" y="-54"/>
			<point x="952" y="-49"/>
			<point x="952" y="-23" type="curve" smooth="yes"/>
			<point x="952" y="-14"/>
			<point x="947" y="-8"/>
			<point x="927" y="-2" type="curve"/>
			<point x="925" y="173" type="line"/>
			<point x="910" y="173" type="line"/>
			<point x="900" y="96"/>
			<point x="890" y="25"/>
			<point x="882" y="5" type="curve"/>
			<point x="879" y="-7"/>
			<point x="875" y="-11"/>
			<point x="861" y="-12" type="curve" smooth="yes"/>
			<point x="842" y="-14"/>
			<point x="794" y="-15"/>
			<point x="727" y="-15" type="curve" smooth="yes"/>
			<point x="591" y="-15" type="line" smooth="yes"/>
			<point x="538" y="-15"/>
			<point x="531" y="-8"/>
		</contour>
		<contour>
			<point x="564" y="608" type="curve"/>
			<point x="487" y="617" type="line"/>
			<point x="487" y="100" type="line"/>
			<point x="531" y="100" type="line"/>
			<point x="531" y="583" type="line"/>
			<point x="553" y="585"/>
			<point x="561" y="594"/>
		</contour>
	</outline>
</glyph>
